<svg viewBox="0 0 330.0000305175781 200.00001525878906" xmlns="http://www.w3.org/2000/svg"><g><g><g><g><g><line x1="61.953125" y1="165" x2="56.953125" y2="165" style="visibility: inherit;" fill="rgb(0, 0, 0)" stroke="rgb(204, 204, 204)" stroke-width="1px"></line><line x1="61.953125" y1="153.21428571428572" x2="56.953125" y2="153.21428571428572" style="visibility: inherit;" fill="rgb(0, 0, 0)" stroke="rgb(204, 204, 204)" stroke-width="1px"></line><line x1="61.953125" y1="141.42857142857144" x2="56.953125" y2="141.42857142857144" style="visibility: inherit;" fill="rgb(0, 0, 0)" stroke="rgb(204, 204, 204)" stroke-width="1px"></line><line x1="61.953125" y1="129.64285714285714" x2="56.953125" y2="129.64285714285714" style="visibility: inherit;" fill="rgb(0, 0, 0)" stroke="rgb(204, 204, 204)" stroke-width="1px"></line><line x1="61.953125" y1="117.85714285714286" x2="56.953125" y2="117.85714285714286" style="visibility: inherit;" fill="rgb(0, 0, 0)" stroke="rgb(204, 204, 204)" stroke-width="1px"></line><line x1="61.953125" y1="106.07142857142858" x2="56.953125" y2="106.07142857142858" style="visibility: inherit;" fill="rgb(0, 0, 0)" stroke="rgb(204, 204, 204)" stroke-width="1px"></line><line x1="61.953125" y1="94.28571428571429" x2="56.953125" y2="94.28571428571429" style="visibility: inherit;" fill="rgb(0, 0, 0)" stroke="rgb(204, 204, 204)" stroke-width="1px"></line><line x1="61.953125" y1="82.5" x2="56.953125" y2="82.5" style="visibility: inherit;" fill="rgb(0, 0, 0)" stroke="rgb(204, 204, 204)" stroke-width="1px"></line><line x1="61.953125" y1="70.71428571428574" x2="56.953125" y2="70.71428571428574" style="visibility: inherit;" fill="rgb(0, 0, 0)" stroke="rgb(204, 204, 204)" stroke-width="1px"></line><line x1="61.953125" y1="58.92857142857144" x2="56.953125" y2="58.92857142857144" style="visibility: inherit;" fill="rgb(0, 0, 0)" stroke="rgb(204, 204, 204)" stroke-width="1px"></line><line x1="61.953125" y1="47.14285714285716" x2="56.953125" y2="47.14285714285716" style="visibility: inherit;" fill="rgb(0, 0, 0)" stroke="rgb(204, 204, 204)" stroke-width="1px"></line><line x1="61.953125" y1="35.35714285714286" x2="56.953125" y2="35.35714285714286" style="visibility: inherit;" fill="rgb(0, 0, 0)" stroke="rgb(204, 204, 204)" stroke-width="1px"></line><line x1="61.953125" y1="23.571428571428562" x2="56.953125" y2="23.571428571428562" style="visibility: inherit;" fill="rgb(0, 0, 0)" stroke="rgb(204, 204, 204)" stroke-width="1px"></line><line x1="61.953125" y1="11.785714285714299" x2="56.953125" y2="11.785714285714299" style="visibility: inherit;" fill="rgb(0, 0, 0)" stroke="rgb(204, 204, 204)" stroke-width="1px"></line><line x1="61.953125" y1="0" x2="56.953125" y2="0" style="visibility: inherit;" fill="rgb(0, 0, 0)" stroke="rgb(204, 204, 204)" stroke-width="1px"></line></g><g transform="translate(51.953125, 0)"><text x="0" y="165" dx="0em" dy="0.3em" style="text-anchor: end; visibility: hidden; font-family: Roboto, sans-serif; font-size: 12px; font-weight: 200;" fill="rgb(255, 255, 255)" stroke="none" stroke-width="1px">-0.05</text><text x="0" y="153.21428571428572" dx="0em" dy="0.3em" style="text-anchor: end; visibility: inherit; font-family: Roboto, sans-serif; font-size: 12px; font-weight: 200;" fill="rgb(255, 255, 255)" stroke="none" stroke-width="1px">0</text><text x="0" y="141.42857142857144" dx="0em" dy="0.3em" style="text-anchor: end; visibility: hidden; font-family: Roboto, sans-serif; font-size: 12px; font-weight: 200;" fill="rgb(255, 255, 255)" stroke="none" stroke-width="1px">0.05</text><text x="0" y="129.64285714285714" dx="0em" dy="0.3em" style="text-anchor: end; visibility: inherit; font-family: Roboto, sans-serif; font-size: 12px; font-weight: 200;" fill="rgb(255, 255, 255)" stroke="none" stroke-width="1px">0.1</text><text x="0" y="117.85714285714286" dx="0em" dy="0.3em" style="text-anchor: end; visibility: hidden; font-family: Roboto, sans-serif; font-size: 12px; font-weight: 200;" fill="rgb(255, 255, 255)" stroke="none" stroke-width="1px">0.15</text><text x="0" y="106.07142857142858" dx="0em" dy="0.3em" style="text-anchor: end; visibility: inherit; font-family: Roboto, sans-serif; font-size: 12px; font-weight: 200;" fill="rgb(255, 255, 255)" stroke="none" stroke-width="1px">0.2</text><text x="0" y="94.28571428571429" dx="0em" dy="0.3em" style="text-anchor: end; visibility: hidden; font-family: Roboto, sans-serif; font-size: 12px; font-weight: 200;" fill="rgb(255, 255, 255)" stroke="none" stroke-width="1px">0.25</text><text x="0" y="82.5" dx="0em" dy="0.3em" style="text-anchor: end; visibility: inherit; font-family: Roboto, sans-serif; font-size: 12px; font-weight: 200;" fill="rgb(255, 255, 255)" stroke="none" stroke-width="1px">0.3</text><text x="0" y="70.71428571428574" dx="0em" dy="0.3em" style="text-anchor: end; visibility: hidden; font-family: Roboto, sans-serif; font-size: 12px; font-weight: 200;" fill="rgb(255, 255, 255)" stroke="none" stroke-width="1px">0.35</text><text x="0" y="58.92857142857144" dx="0em" dy="0.3em" style="text-anchor: end; visibility: inherit; font-family: Roboto, sans-serif; font-size: 12px; font-weight: 200;" fill="rgb(255, 255, 255)" stroke="none" stroke-width="1px">0.4</text><text x="0" y="47.14285714285716" dx="0em" dy="0.3em" style="text-anchor: end; visibility: hidden; font-family: Roboto, sans-serif; font-size: 12px; font-weight: 200;" fill="rgb(255, 255, 255)" stroke="none" stroke-width="1px">0.45</text><text x="0" y="35.35714285714286" dx="0em" dy="0.3em" style="text-anchor: end; visibility: inherit; font-family: Roboto, sans-serif; font-size: 12px; font-weight: 200;" fill="rgb(255, 255, 255)" stroke="none" stroke-width="1px">0.5</text><text x="0" y="23.571428571428562" dx="0em" dy="0.3em" style="text-anchor: end; visibility: hidden; font-family: Roboto, sans-serif; font-size: 12px; font-weight: 200;" fill="rgb(255, 255, 255)" stroke="none" stroke-width="1px">0.55</text><text x="0" y="11.785714285714299" dx="0em" dy="0.3em" style="text-anchor: end; visibility: inherit; font-family: Roboto, sans-serif; font-size: 12px; font-weight: 200;" fill="rgb(255, 255, 255)" stroke="none" stroke-width="1px">0.6</text><text x="0" y="0" dx="0em" dy="0.3em" style="text-anchor: end; visibility: hidden; font-family: Roboto, sans-serif; font-size: 12px; font-weight: 200;" fill="rgb(255, 255, 255)" stroke="none" stroke-width="1px">0.65</text></g><line x1="61.953125" y1="0" x2="61.953125" y2="165" fill="rgb(0, 0, 0)" stroke="rgb(204, 204, 204)" stroke-width="1px"></line></g></g><g transform="translate(61, 0)" clip-path="url(#clip_0)"><clipPath id="clip_0"><rect width="268" height="165"></rect></clipPath><g><g><g><line x1="0" y1="0" x2="0" y2="165" fill="rgb(0, 0, 0)" stroke="rgb(189, 189, 189)" stroke-width="1px" opacity="0.25"></line><line x1="38.292410714285715" y1="0" x2="38.292410714285715" y2="165" fill="rgb(0, 0, 0)" stroke="rgb(189, 189, 189)" stroke-width="1px" opacity="0.25"></line><line x1="76.58482142857143" y1="0" x2="76.58482142857143" y2="165" fill="rgb(0, 0, 0)" stroke="rgb(189, 189, 189)" stroke-width="1px" opacity="0.25"></line><line x1="114.87723214285714" y1="0" x2="114.87723214285714" y2="165" fill="rgb(0, 0, 0)" stroke="rgb(189, 189, 189)" stroke-width="1px" opacity="0.25"></line><line x1="153.16964285714286" y1="0" x2="153.16964285714286" y2="165" fill="rgb(0, 0, 0)" stroke="rgb(189, 189, 189)" stroke-width="1px" opacity="0.25"></line><line x1="191.46205357142858" y1="0" x2="191.46205357142858" y2="165" fill="rgb(0, 0, 0)" stroke="rgb(189, 189, 189)" stroke-width="1px" opacity="0.25"></line><line x1="229.75446428571428" y1="0" x2="229.75446428571428" y2="165" fill="rgb(0, 0, 0)" stroke="rgb(189, 189, 189)" stroke-width="1px" opacity="0.25"></line><line x1="268.046875" y1="0" x2="268.046875" y2="165" fill="rgb(0, 0, 0)" stroke="rgb(189, 189, 189)" stroke-width="1px" opacity="0.25"></line></g><g><line x1="0" y1="165" x2="268.046875" y2="165" fill="rgb(0, 0, 0)" stroke="rgb(189, 189, 189)" stroke-width="1px" opacity="0.25"></line><line x1="0" y1="153.21428571428572" x2="268.046875" y2="153.21428571428572" fill="rgb(0, 0, 0)" stroke="rgb(189, 189, 189)" stroke-width="1px" opacity="0.25"></line><line x1="0" y1="141.42857142857144" x2="268.046875" y2="141.42857142857144" fill="rgb(0, 0, 0)" stroke="rgb(189, 189, 189)" stroke-width="1px" opacity="0.25"></line><line x1="0" y1="129.64285714285714" x2="268.046875" y2="129.64285714285714" fill="rgb(0, 0, 0)" stroke="rgb(189, 189, 189)" stroke-width="1px" opacity="0.25"></line><line x1="0" y1="117.85714285714286" x2="268.046875" y2="117.85714285714286" fill="rgb(0, 0, 0)" stroke="rgb(189, 189, 189)" stroke-width="1px" opacity="0.25"></line><line x1="0" y1="106.07142857142858" x2="268.046875" y2="106.07142857142858" fill="rgb(0, 0, 0)" stroke="rgb(189, 189, 189)" stroke-width="1px" opacity="0.25"></line><line x1="0" y1="94.28571428571429" x2="268.046875" y2="94.28571428571429" fill="rgb(0, 0, 0)" stroke="rgb(189, 189, 189)" stroke-width="1px" opacity="0.25"></line><line x1="0" y1="82.5" x2="268.046875" y2="82.5" fill="rgb(0, 0, 0)" stroke="rgb(189, 189, 189)" stroke-width="1px" opacity="0.25"></line><line x1="0" y1="70.71428571428574" x2="268.046875" y2="70.71428571428574" fill="rgb(0, 0, 0)" stroke="rgb(189, 189, 189)" stroke-width="1px" opacity="0.25"></line><line x1="0" y1="58.92857142857144" x2="268.046875" y2="58.92857142857144" fill="rgb(0, 0, 0)" stroke="rgb(189, 189, 189)" stroke-width="1px" opacity="0.25"></line><line x1="0" y1="47.14285714285716" x2="268.046875" y2="47.14285714285716" fill="rgb(0, 0, 0)" stroke="rgb(189, 189, 189)" stroke-width="1px" opacity="0.25"></line><line x1="0" y1="35.35714285714286" x2="268.046875" y2="35.35714285714286" fill="rgb(0, 0, 0)" stroke="rgb(189, 189, 189)" stroke-width="1px" opacity="0.25"></line><line x1="0" y1="23.571428571428562" x2="268.046875" y2="23.571428571428562" fill="rgb(0, 0, 0)" stroke="rgb(189, 189, 189)" stroke-width="1px" opacity="0.25"></line><line x1="0" y1="11.785714285714299" x2="268.046875" y2="11.785714285714299" fill="rgb(0, 0, 0)" stroke="rgb(189, 189, 189)" stroke-width="1px" opacity="0.25"></line><line x1="0" y1="0" x2="268.046875" y2="0" fill="rgb(0, 0, 0)" stroke="rgb(189, 189, 189)" stroke-width="1px" opacity="0.25"></line></g></g></g><g><g><line x1="0" y1="153.21428571428572" x2="268.046875" y2="153.21428571428572" fill="rgb(0, 0, 0)" stroke="rgb(153, 153, 153)" stroke-width="1.5px"></line></g></g><g><g><line x1="-6087995.502232143" y1="0" x2="-6087995.502232143" y2="165" fill="rgb(0, 0, 0)" stroke="rgb(153, 153, 153)" stroke-width="1.5px"></line></g></g><g><g><g><g><g><path stroke="rgb(204, 51, 17)" stroke-width="2px" d="M19.967811576140875,152.4541071719224L20.568541497189152,152.24964181788226L20.901373458167992,152.0714657947874L21.709502875950726,152.23400782858283L21.797231498015872,152.22763519642555L21.951496729290675,152.24959729629822L22.039087073206016,152.21522538859344L22.34183112702546,152.08732134844263L22.48464763661541,152.27564720385018L22.95561592365245,152.21841132531387L23.224042177166005,152.09693406459579L23.322226754712304,152.0896731958466L23.383994540550592,151.5830634925467L23.61038423652447,151.99480227599528L24.02477194113757,152.0066631391836L24.35687705543155,151.80694043538074L24.786283894469246,151.89840806656562L24.936836889260913,151.89276223521134L24.98078806733631,152.09452717933593L25.31670824032738,151.9439479459175L25.572175349289022,152.00330287404321L25.956783613384587,152.07977432480203L26.594352251777448,152.02344864595327L27.136285594411376,152.04808261317643L27.374226834284062,152.1505426830039L27.529803935185186,152.14536965276696L27.98149837549603,152.1492800760907L28.018652650669644,152.23305852140942L28.494988966393848,151.80411402488275L28.746836024305555,151.1852673048763L28.829781640625,149.72221925864096L28.89802722594246,150.08569668787288L29.087500201512896,150.36835550003116L29.461301496362434,150.67378763554018L29.884429089161706,150.72893276927533L29.93267398106812,150.55184350101544L30.172916311177246,150.1474138887925L30.720628971354166,150.0526823321737L31.012906432911706,149.93971578167L31.251439786913032,149.97573650405388L31.393525904224536,150.2957147489956L31.99050104166667,150.35800325165215L32.30159142278439,149.61527133316363L32.56103314215443,150.37215989088918L32.72404889839616,150.69343521791063L32.91324886326058,151.04195928343086L33.09979317853009,150.89663309976058L33.20069013516865,151.2019711457553L34.13412792142031,151.34947310295107L34.37378877418155,150.40228548737016L34.41809096602183,149.83898446947393L34.70949975715113,150.57829231231554L34.954890289145176,151.278046663302L35.040058992642194,151.35150691061435L35.41025441881614,151.63302331257168L35.46428571945271,151.67633908284503L35.825290967055224,150.01635492945942L35.882701218377974,149.63130136487115L36.02246142629795,150.1040615457821L36.45271566220238,149.88994761257533L36.88818192067625,150.47425961958373L37.677126131572415,150.92235990111266L37.868939198908734,151.40441940710696L38.16521609002976,151.2736165639833L38.353011999834656,151.58697561939445L38.450859745990414,151.55062474127016L39.11153501777447,151.31357219720175L39.91492043134094,151.14867628370547L40.5871720661789,151.12146293206544L40.623507309234455,150.85807132913797L40.72872279885913,149.8036432589753L41.01413599123677,148.79734480071977L41.432193385209985,149.1015731904639L41.55256274181548,149.67995878883653L41.6107884796627,149.69741596585573L41.75743777591766,149.3564265879968L42.063372863963295,149.4453937475152L42.49168056898975,150.23593924951777L42.66819440000827,150.22282609465722L42.71245759031911,150.05480237707815L43.190740436921295,150.0710449678098L44.04422154224537,149.4842618990443L44.14404063843419,150.17137570983525L44.839086894427915,149.73682232688566L45.094649734416336,148.52560325936213L45.16315414806547,147.5162763476167L45.32657410197586,147.66075045859372L45.80564407035384,146.9963268173605L46.091351546999014,144.47933065020783L46.186926567666994,146.9696512191284L46.342372481605494,145.63563511473743L46.69960521763392,145.38747352518396L46.93558219866071,142.42088106785368L47.41253190207506,136.533975674745L47.807798220486106,138.61060787309992L48.13869428736773,139.37585203059643L48.355096046213625,139.93422978085985L48.72379523189485,140.0047461842947L48.81522545366237,141.6731035526362L48.869143295304234,138.47795493206473L48.97261435288525,141.0459287696988L49.057304401248345,139.6415873825471L49.10413814690807,138.3135560277001L49.35077318225033,138.8804355431277L49.38972152777777,129.83058080475467L49.899985628513555,135.0095103836882L50.214373411665015,139.4258872850025L50.286441146866736,141.7690656876204L50.60128276599703,143.53422435374466L50.90119743613592,134.4131953233807L50.995903786375656,128.39233594674724L51.60830225591105,135.12498939777777L51.96207449260086,137.84516882193233L51.99751624607308,129.85696583991648L52.09379329427083,130.61318021198827L52.19083973627646,125.12250337775471L52.21646728670635,124.94541448530359L52.31741742724867,127.96086217136937L52.91171209594081,126.60929566335241L53.050266802042,126.05714623473567L53.270582896205354,128.20923974068117L53.44419643167163,124.14615770373123L53.66888424272487,128.4601984320029L53.83517612743883,128.4722032315614L53.88187868613591,133.76927064224733L54.07019934379134,133.92139489490194L54.3223796875,133.5747149401732L54.36995446221892,134.89083857001688L54.84882942294974,125.00328387942612L55.053995195725854,114.84382675859351L55.221648588376326,124.81739621454572L55.61301829943783,132.93593273843157L55.82848756717097,135.15845057992905L55.96805985863095,133.64075111803086L56.01619838272983,139.4041215641972L56.06738966290509,137.78588177142933L56.43689724392361,140.148445257658L56.711365188905425,139.5453998448672L56.81936396949405,133.68072386517835L56.85870942150298,135.7975666896913L57.042449172247025,127.35949574993481L57.221728566261575,128.35435259026647L57.387768713831015,123.63778252913846L57.447838160342265,132.2065302630592L57.50040867642196,137.87306595302226L57.67536244626323,141.5308313681741L58.086264832382604,144.13604761480292L58.27629092055225,144.67492445135508L58.31007333622685,146.56268000120173L58.40452794932209,146.5721558308428L58.58262666067295,145.12442542840574L58.62629773685516,144.87908708940682L58.885796185722555,145.60368155869085L59.07871193266369,134.52038324995127L59.124067165798614,135.62841169201093L59.211856062954695,136.05917471597908L59.355296597015546,140.41289384069083L59.51661046833664,144.13957287089517L59.572786853091934,144.47250263564533L59.62323001302083,143.88981396078566L59.661983350901124,144.4920001716873L59.78839085338128,144.5799286577053L59.963567995618384,144.30351729028067L60.19116673900463,142.21638594043318L60.30470373677249,144.36946043463377L60.368095404472555,144.84936163559064L60.648261118344905,144.5496025950869L61.08715951140873,145.70955981165605L61.45870580873843,144.93182602594993L61.63874395978009,145.75898702654226L61.724061578207674,145.49472370501283L61.961687260251324,146.37904942030346L63.13063755477017,147.96128502873103L63.199677353050596,148.22304216626645L63.248280349909066,148.1163373432755L63.434863666708004,147.4528420518126L63.54047271722057,148.00064863371034L63.6883771536045,148.5943437122955L63.79214604104663,148.9767470399547L64.20295978732639,147.6634353467609L64.4711449404762,149.03609936672666L64.6543634889633,148.28445034773776L65.01185505332342,149.70033879522038L65.08859233527613,149.47673051275018L65.35518551690642,148.4932901401648L65.45319990596064,149.4197466680803L65.5831459108383,149.61876949696102L65.63273812830688,147.9658826733138L65.72891589988426,148.0483572520811L66.11520122974537,144.5998644432679L66.17152298383763,144.8787046589733L66.307404312376,144.98331899496577L66.60349328703704,144.57607740987842L66.72891156890708,144.38632988530955L67.16500894303903,146.70093897936616L67.35443582589285,147.66594961238957L67.49333445457177,148.77153871243283L67.54403289723875,149.1046729444098L67.95957646536046,147.6999108270733L68.01669952360284,146.43002676174615L68.1884693504051,145.34503781552561L68.2408058573082,144.43290797333313L68.29017115678737,143.60334234071482L68.32402802992725,141.2310223369598L68.49907043960813,142.58050421437687L68.54068861710483,141.70249978026604L68.70132528005125,139.05587439012362L68.79166700458829,143.11800090279615L69.17503431092923,145.6276023865323L69.35617159598213,141.68717232443763L69.44471570457176,141.99934829952326L69.53729469866072,141.4700355221848L69.57828885168651,143.6266245963109L70.0054087828621,145.80284375130526L70.13437974950396,138.66235740500306L70.49622530278604,140.40770991069806L70.61758742559523,140.92552251626824L70.79233909660218,144.59312877229132L70.8379496124752,143.1171842900773L71.05409254298942,141.72847348369294L71.40545732163525,134.9347075103266L71.94885499441965,128.0909109177159L72.00948464471726,122.22050899951452L72.27867674644511,113.29641312784788L72.47070254939649,125.45371507264386L72.5402103660301,131.0603624175865L72.72269852223874,136.12637702245985L72.88814301008598,129.600822303086L73.03615026868385,120.15006489080857L73.25162662760417,129.92355439388476L73.29830436714616,133.9503474951814L73.39704205729167,136.97807893721554L73.80146664393187,132.5972828834305L74.05335270337302,93.91941405998776L74.24899855737434,95.46137641418461L74.34861555472884,110.12417901001399L74.36854533626818,122.78714366228677L74.86322655319941,131.54182632303414L75.08391493468915,131.59470972302506L75.83114169146826,100.30928845194919L76.01493817170964,105.52342083014778L77.17703128823578,117.29818494587516L77.26605050636574,120.71221248713857L77.43790188182044,100.93279327190123L77.4957482411541,113.4810648070979L77.53525679046793,87.32216361021999L78.46580846354166,96.85902071412791L78.7311216858879,94.04526061849587L79.1372339750744,104.50506595992404L79.1935911851025,114.53133105906284L79.45583037781086,95.38704473246005L79.53062467447917,93.70021677395381L79.76728950066138,109.91207247468411L79.8622085865162,121.38260925517211L79.99722124462632,131.1537902298926L80.22090210710151,133.00535339504088L81.30728970940807,138.47359117870164L81.45567280092594,110.04971673332436L81.54640454075728,85.249789566859L82.03451577277612,96.87657811344694L82.20376822813327,104.57351213128821L82.70785590484456,120.15364215145064L82.87885633783897,113.53751006888848L83.08220322110616,110.00214900967364L83.95100129071595,117.35244043816152L84.2976894314236,118.89337859246358L84.6512382957176,125.3417595312587L84.89094878678901,127.8710950898717L84.93843137607473,107.31718850552316L84.96371500392692,102.7160287841884L85.00953470982142,108.87582840878152L85.28407711226852,112.63652380544336L85.77024890459656,126.35180733063207L85.86268962053572,135.431325024307L85.9907316416584,136.6723031670454L86.05252424665179,137.80826748671453L86.19255746527777,137.65892607929393L86.44886487991897,138.97130872489979L86.5977408089451,140.6410694299429L86.81667766720403,123.97706748380823L86.9637205243469,98.74008301684455L87.13392319878473,101.25393092020512L87.18567113715278,115.50219969980945L88.17509739169974,124.56806479264733L88.8093828104332,117.86207499261977L88.98247868923612,115.07987620579658L89.87719150235615,125.7225724405619L90.05874007626487,112.26857946773396L90.10721188616071,120.6268343008001L90.19717777777778,116.12139943242954L90.27256064298115,106.34017423815118L91.48049828455687,110.69500414122743L91.54715189835483,111.53831405595685L91.62374735656415,111.81773406080366L91.83936553922784,104.90398793435752L92.12160542534723,99.72158438929945L92.43013943349041,100.75243278658743L92.65694750950728,72.11577102871452L92.89962566240905,63.87676241296695L93.06900930472884,62.889449771940285L93.28560961681548,89.91370148230534L94.82190113467261,99.47012608023948L94.91079625702712,117.63565203654711L95.68927742125497,111.89450244599045L96.2005874720982,97.01953295958427L96.29328347077546,102.83570641752384L96.47420447461971,113.04379224088672L96.6544695436508,111.10142558876687L96.69522259631283,88.15291995524885L97.27695168134095,94.16954042866153L97.61421563430059,104.07212961829833L98.42847892898479,91.08158925111633L98.49593739252646,94.88934738049522L98.60870854208002,110.89579955845072L99.11133543423446,115.04399668545818L99.73225751074736,120.81761766870048L100.14537589285715,90.25887972774395L100.19114241484787,68.81799274091644L100.28316829633762,89.31306034906633L100.77704466352513,89.04346198440437L101.19840655071926,105.47488614788271L101.30326393539187,114.36867062626202L101.8269658358135,111.1578797208089L102.23824405485284,113.26288819314748L102.39719656084657,97.8988467317932L102.66354155092593,95.99420525045953L103.1721888609871,105.83377522167861L103.47199361772486,109.46517246467364L103.60720837466931,120.05634437422887L103.84160047536375,124.02956324982588L104.25701285652282,99.2050634621868L104.3444117383846,77.54479589484855L104.76814208209325,77.53062429693044L104.84534029121197,83.9746260579959L105.1121107525215,80.00253014777255L105.37997680224868,73.26195620770622L105.54418387793486,84.26657452069301L105.70774210999504,92.62454195645859L105.82551254650298,92.3016658100858L105.99651652509094,112.89013133770536L106.17931314794147,116.67230764648195L106.74067988901291,102.80761467925586L107.1208419787533,110.82626425538749L107.22764589430389,96.65229171145306L107.34520004960316,97.11385399863516L107.49103740492724,103.62315615897639L107.6111372964203,84.64966944788512L107.93119448371363,107.82450974592852L107.97819487227183,104.66654857108058L108.37163875558035,112.77392161485041L108.51010482184192,117.82550323951402L108.54125286148314,107.87727075835886L108.59744697420635,106.86322876749789L108.63434596664186,88.00029084055247L108.72741779823909,82.34883387370422L108.86505419560186,90.60608541418627L109.28708974557705,101.8201107935083L109.39635784866898,88.59751545376403L109.74593919374172,86.47281843324636L109.78206879236937,97.22412942545644L109.8416808573082,92.24737510428831L110.27583170056218,104.58429670352793L110.45685198102679,97.13574039781705L110.56335452112269,103.40659746286691L110.63548607700892,88.02247109177836L110.71903798983135,78.164834259158L110.96911579654432,46.45493999816193L111.00582687251985,28.90479223935502L111.09714008969907,54.8950515319312L111.17868874214616,82.57602706513462L111.2071031291336,79.61842300206753L111.49957205274471,104.49382459879726L112.21325749421297,114.24769506573054L112.6537939515129,120.79505134823573L112.98826043113425,124.39111260385043L113.40486413173777,129.6518273767544L113.47916913649141,95.60253942188547L113.88319307105655,84.28495939631674L114.32923938078704,102.67531231198184L114.78479851810516,109.01246626158725L114.98439416335978,116.18813161380818L115.31661982783564,116.34593408569653L115.41910166480655,114.89361984827947L115.5936228722305,91.6911135733224L116.14951167121362,101.21605986827228L116.16256654679233,90.15754844513782L116.31859039248512,109.57454574682056L116.53693159102183,114.16932666215904L116.77001891327713,116.30812891976558L117.40530773499505,118.03738966874327L117.48396318307705,110.21646904847927L117.54517785631613,124.74973108152184L117.88998683242394,122.7068542232298L117.9618595599785,125.37389309032629L118.03994416749339,124.45454534127289L118.12037950355489,124.49260382178743L118.22522270585317,124.79133758251193L118.8346535135582,128.1839230878612L119.75533425409226,133.834848559091L120.06544605138062,127.00029849800073L120.39254478753307,117.40075711356589L120.70900319733796,125.76435979577806L120.9272699384094,99.5408483198598L121.01466527467758,71.02688486251085L121.08734994316303,48.007727869750184L121.36875306919643,62.210291888107975L121.51585620143022,9.750185367106168L121.63426484478339,53.49075961056055L121.76093472118882,76.95156561296112L121.88844135768022,98.63325370875417L122.04420637504133,102.83107944090602L122.43264388020833,99.04405228744977L122.5868240172371,106.5862635102841L123.20949407138724,99.10372428821938L123.25447347160218,111.97543780014465L123.30305164930556,125.91416839512434L124.09616547825728,113.10130421159934L124.31777571407903,115.87198075127965L124.60807828000992,114.56180310317866L124.7887830026455,105.4139494634295L124.82343763434193,106.63207144627285L124.97010111297122,87.345334507749L125.04121862909227,89.4203025533103L125.14290270750661,70.00499947196121L125.54788749793319,89.97138354865157L125.63270164207175,97.99809518003408L125.78023379112929,108.33815939605044L125.9043437489666,106.92401075707733L126.04348702360285,113.57787545771592L126.14689780609292,113.18385826421357L126.33052764343584,115.50490480215424L126.54070688554067,108.81722200739623L127.26349741133433,118.47820119899663L127.59958422722389,115.97374738512511L127.81983295510912,105.49457770280885L127.86938971664186,103.58622854327112L127.92157021742725,104.96002521239222L128.00483139157572,97.18529428920814L128.0554660135582,107.55044799286787L128.15951854848709,109.31320926112785L128.28128486896495,119.42073924448981L128.51888218625993,103.09605790668633L128.69058110119047,87.53007903075044L128.9176976438492,91.3378646200719L129.019420723793,103.03499638994481L129.36234698970733,111.93638906188576L129.45078473048943,113.56792928153023L129.48285817005623,117.97792022493046L129.72524203869048,114.58558701036719L129.91842725074406,114.97433047582051L130.197298822958,124.66477549885781L130.28331137772818,119.50757539615894L130.3040601913856,120.05317947333305L130.76110847800925,110.37323335859939L130.81518232576883,120.74246379451974L130.97643237640543,126.57435248331042L131.14348656374008,135.57864991538005L131.30508053695436,132.2617572109028L131.34593641183037,127.8577478284299L131.48330688967428,126.96329197085034L131.53238854166668,128.29124406998963L131.61759270109954,121.73700408720215L131.84872640128967,120.76554295061136L131.88256554646165,118.40153337000521L132.23262200107473,123.81729342415694L132.27594560908565,120.38461155411979L132.45657587425595,122.42638403039368L132.55895134341932,126.5864553190665L132.63037023499504,126.46587774104584L132.81527294043485,121.30504659481426L133.29355933263062,123.7863308566987L133.3997924076141,122.4634569920881L133.47676724433697,122.19597477403549L133.524639848917,119.88058796591248L133.71017721560847,114.65171634883119L133.82881632254464,125.3594593220198L134.23690705295138,129.6663143595893L134.42193385416667,130.04080909631972L134.5486037305721,133.61102303055287L135.0901470579117,129.48409500233933L135.2740605427414,116.11653762494299L135.35792446779928,109.87273171344361L135.59511758742562,113.34856561430634L135.63896594328702,119.09277435246402L135.73430340918486,115.75119055739849L135.87081585338126,124.05061978517757L135.890426531498,121.94660225885632L135.99645750764714,119.98010815797171L136.08369329220403,122.92007793264366L136.14049370143024,124.26420595303686L136.32122324322089,120.30202848599248L136.4412451316551,113.21348322623292L136.57885316426916,122.96927985184652L136.84039387504131,127.45574922314505L137.3855111607143,125.61098235977258L137.58451469184027,127.99886236396758L137.74899477823246,130.07891276005785L138.19143167369378,115.40211337909763L138.47185621589782,116.79359704327253L138.52050530547288,115.56602206128281L138.61437489562664,110.4102121294004L138.79499097842262,114.92503618475429L138.9170728567295,117.63699244771955L138.97234156952712,110.99939219111724L139.0196929718502,109.55682046486828L139.47573430989584,106.81401220311326L139.50659870205027,105.68265053696301L139.57675536230985,108.30618043238472L139.70366988467262,123.48512001766727L140.24571668630128,118.46293144249631L140.29151157304068,87.60061448980669L140.3215675698578,96.95321253061087L140.3868242197834,111.09887532906038L140.76023195374506,114.8756822281232L141.18346236875828,111.95295943953906L141.98683714554397,116.64465534001157L142.64723940662202,115.9603230210181L142.83493958540015,105.76215091811952L142.87677758969906,104.73535327322092L142.96610527447092,105.16087327046101L143.32574546854332,97.83611807085391L143.46446681754298,110.96824724281943L143.65950637504133,105.31043011166214L144.10509884879298,100.65192247688796L144.51133168816136,104.68264833496433L144.53187840298446,107.08807343694903L145.06464993179566,108.54502232037382L145.43786265811013,114.06672817079303L145.71334464285712,100.10674557247593L145.75284255539023,110.29178589886148L145.8540125227348,114.10131171410524L145.9362738394924,116.3626922148925L146.17922145750663,117.71233443653573L147.07307978257276,111.41943536265914L147.43681159164186,111.1680588138183L147.46583936631944,112.12554537920695L147.92560357762898,108.98992936521772L148.03266986710483,114.9317041031309L148.18703792059358,121.28836536261932L148.21406952608302,123.29953597786466L148.2843821924603,123.19684467900726L148.73388545593582,119.24620951198895L148.76554760664683,114.6152010090903L148.9155687624008,117.66292786660107L149.00978582072588,123.60832448054319L149.1995105334408,125.3412621453457L149.4425964296048,127.91697508143153L149.54684751777447,122.91421846347296L149.63239559978504,115.66434901412674L149.71214309069114,112.91818161894696L150.17862974743716,111.28118677310465L150.36134127604166,110.4285436775249L150.54091140873015,116.77001298324305L150.6198079571759,117.74786913787591L150.76221317791007,116.68306199326071L150.9173896267361,117.39540077428458L151.2100181020585,112.27577311784616L151.26316654989253,114.69766812999816L151.4405915984623,113.27526930277016L151.5827238084904,112.93661615931265L151.71049281890708,112.7195094072539L151.81643870081018,121.09265978494697L152.388899604208,109.34433134228775L152.41002425078537,110.553874036065L152.4791101417824,112.31595952379607L152.5133853949653,113.06892741702946L152.67625223627644,103.25183916986983L152.85683640873015,105.44773529255282L153.16848344804066,104.92955112450967L153.21738782035382,105.78442920485645L153.35036885333994,108.75598130523575L153.7135865513393,87.76609158956704L154.01572430865576,96.23189869039129L154.1619126777447,112.19354832551966L154.29444342034554,106.95562673207779L154.33469654431215,104.60247185408065L154.61164285920964,76.95903488523483L154.71719872581843,95.67123507380884L155.06584757977845,103.20459629982874L155.1962332382606,99.7279191943223L155.32853351727846,88.067624844311L155.36992477678572,94.14653858141347L155.55858935701886,84.67284573680304L156.465201182209,86.15329051901259L156.64859701037534,97.61279284990583L156.78596394262567,104.08889502540985L157.00336201326886,115.2246307256182L157.23211662016368,113.11877516411907L157.85314506448415,106.65759562893946L158.05457023602844,105.16879449172333L158.17569834966105,104.21109301731731L158.92964046068948,101.48002902709663L159.40699790736605,98.91131726670872L159.4700952907986,106.40172542713901L159.63392298797123,113.55346409506001L159.90838384176587,117.94798384637257L160.22693060619216,119.59215024380299L160.27660791790674,120.02949643244321L160.32890542328045,121.84472717489037L160.35260771639383,121.54504583120064L160.3940202494626,126.35356312141708L160.44534271660055,124.2970788122019L160.88705276537698,120.45524862038907L161.98153495783728,118.98317539053772L162.02057548879796,117.20035997130927L162.0722986080109,119.15122288494486L162.3907673693783,112.94561163957235L162.91550812872023,117.46162399517385L163.0161498026207,114.4775021578771L163.571815229208,116.2040777747738L163.643957421875,112.93593071462001L163.7847458519345,114.64710361025021L163.85256596602184,99.31523275797538L163.9083097883598,94.41614241656423L163.99090793650794,92.82643432285649L164.88779065290177,107.50915276067633L165.11656653335814,112.05843697704444L165.24733157035385,115.78391862794786L165.42163295097552,116.84478390937649L165.82595826099538,121.78400283704833L165.87369613301917,120.28144714065256L166.1547695188492,119.45748010541756L166.26917873263886,126.45629521185802L166.30417728691302,128.2089671357707L166.60080164620538,120.11832186938565L166.72206803798778,108.76305548957417L166.76842667410713,119.50124860651842L166.99605732783564,119.4649983480538L167.09723084077382,114.63522090863655L167.2280632440476,121.89876640772493L167.36193776661707,127.5597179980887L167.77040078435022,126.29859090714372L168.009331244833,100.0347315039885L168.06836537801752,99.75669742272959L168.19627975777118,110.35218279144118L168.2376993820271,106.08491998887081L168.81092258804563,106.45216119727472L169.37651922226357,102.61078602214867L169.75433058345735,93.63034566557656L170.5595703424686,102.32890129251922L170.78302783254796,89.81868715777046L170.8769470610119,111.24639946987263L170.91796248759923,101.87270487978391L171.0984792937748,112.29474570917868L171.55949155402612,105.85713999142978L171.83403041087962,110.84928077761923L172.06879125330687,112.0547365076478L172.3053638940559,106.11254403121907L172.39129135458,79.51388773500561L172.484100812252,90.96015202962283L172.5608558221726,87.02505738363406L172.6622314339451,90.83357525985366L172.835327312748,95.68759288386556L172.89411325438164,99.14421629839812L173.10222186983302,99.2986346582581L173.38058287657077,96.9958695771899L173.48408229890046,106.95233199900923L173.5953784815228,104.16883849265022L174.01018811177246,111.87080245087117L174.0958212880291,105.60198341850663L174.13590776909723,116.26135078894941L174.19126512173446,103.87271286702476L174.54225406746033,106.06589933926918L175.3525888444527,106.87643420558727L175.44007282056052,110.77115945535964L175.53241425987932,105.19270611559878L175.6319603453621,100.39074536546232L175.72026335358797,98.96461758074904L176.1656962756283,86.95681556677478L176.34396162987764,95.96173032580236L176.44062160218255,95.78221319868497L177.04056440145504,100.57932805344828L177.24248241050762,106.73791534233908L177.7650639033565,106.73572397817398L178.1827029172867,86.06750510547057L178.40678797743055,78.07368553000424L178.8476931764633,90.94367388422485L179.00883331369872,97.74057878426441L179.02516077215608,108.435911070193L179.38943860263723,116.09782222606194L179.44114753947585,105.48748553604456L179.54178566778273,114.49424235640706L179.75371997871198,114.48363562825075L179.96869995453042,115.05024728547441L180.17243330749835,88.8257119676851L180.2068503844246,65.47681568817707L180.30258141121033,84.82259770175843L181.16182056051585,81.58367992930006L181.54758114252644,98.81393061014263L181.70879219163362,87.93793462093393L182.03113274119545,100.39979635246323L182.0986798445767,95.12779100838567L182.49485028935183,110.76731488318248L182.6556181392609,112.57012535153088L183.85014989149306,99.26736922126526L183.98816566736937,104.50436208954744L184.30721236049106,94.62097641893588L184.47932256427745,99.76142036259853L184.5299323671048,109.6063977372671L184.62713481522817,117.175435610742L184.65348212115575,123.57242185639446L184.97292237516533,104.13684590939505L185.06574246961807,98.79944505037473L185.6143947120949,104.2530218045209L185.88408674251818,94.15343056367813L186.3066895874669,106.55518126299621L186.41942173549108,114.54423317504144L186.51045485077714,108.11468770409869L186.6875962518601,110.78301484433598L186.81586164537865,109.00247496630669L187.48706733010914,115.46902715298432L187.5256646618717,110.18665832004639L187.56871880477019,113.72338918888616L187.85123170159557,115.81108417174096L188.2379283203125,115.79243953983854L188.53191830357142,100.97828380499949L188.55784013826883,91.4076717193857L188.59857546296297,100.3210360838567L188.77678054212137,89.66065003252709L189.00597834821428,99.67706095027235L189.3542052765377,100.62336907921294L189.73573241980822,90.8582796009435L189.90878929708168,88.45543992938623L190.10950889550267,97.9789249128865L190.19572354910713,93.73497553382653L190.47194301731977,77.93903680110014L190.6041759300595,80.67748537345209L190.7003749751984,73.10327533214893L190.79489340897817,89.52076088944985L190.88164344721395,78.93521392147974L191.04318069093088,95.27768368567727L191.2823167958416,84.80819409594905L191.8072454716435,84.9721322991375L192.06437546399636,91.41320985826337L192.29538506841106,96.15257579614818L193.21433555927578,96.4489530113034L193.38382556940311,98.77317887284548L193.53726822296628,88.82718084978885L193.762165224041,106.23836904549137L194.09853568741732,85.41957215430752L194.14379164393188,92.24055739299149L194.32725129278273,102.06747787584303L194.40962961412862,101.3302365770548L194.68384227637236,97.8178559755008L194.77733603360613,111.82884206241036L195.03058005539023,105.10255134797876L195.35454094122025,102.85930178035285L195.62616886574074,112.79384119577675L195.8223111028439,120.15872245360194L196.07220453869047,120.47797873663556L196.5658220775463,105.61883177656618L196.74780675946596,106.02875069755618L197.1162648447834,99.51992687813365L197.23827935681214,101.56702494244169L197.34338138744215,102.35653664027635L197.38009600901123,96.25849838037576L197.4606802600033,102.19380323275783L197.77488367228835,100.68407272102242L198.5459049076141,112.88852945505376L198.61978089554398,113.8668129296484L198.66097005621694,111.07794230474896L198.83938432539682,106.82297787145741L198.8922136698082,110.87121152186116L199.06719580439815,110.80175349472455L199.1559845589451,112.1295014416139L199.48863569465112,122.17880783487996L199.514724172247,126.10387411111405L199.66212867993553,124.44781410106438L199.85160165550593,111.33386414302333L200.42313715897816,121.52527364508644L200.66383332506612,118.59641176659052L200.79187534618882,112.92357181894835L201.19639211826222,111.07245461780151L201.24791313864088,117.85596098661703L201.57391628637566,112.04034697093672L201.61045362826553,109.22613878855529L202.2478839885086,116.99142486014091L202.4781490182705,114.19809825417931L202.58903391203705,111.21909883706823L202.69074635520008,111.24561616809692L202.82192977223875,118.27653276739673L202.9585095827133,118.00730562087941L203.4231099836723,113.13244716813769L203.67626891121031,106.32406186390132L203.78199851190476,116.46848402601611L204.2983291232639,115.36832383021286L204.37079751054065,117.2612082250776L204.6335685422867,116.32333312383652L204.95340590277777,119.12434741607112L206.16341771660052,125.49399724947584L206.19999051442625,121.20246190596592L206.2968525855655,119.54591394765805L206.4189025535301,114.61708272326706L206.51210202649636,119.57894332616283L207.5417849506035,119.13241682684446L207.665107786665,94.48126261768702L207.84892554046792,84.43785378041173L207.90902335172785,102.4379244334236L207.93817876777447,114.07432462515763L208.3842392598793,100.40655776502116L208.58102679501488,91.12585539313777L208.6436171585648,112.02251284857745L208.74031967799272,112.95889020779171L209.12983149801588,115.21362986532371L209.3022962611607,115.40602940124712L209.45087081473213,114.06106966456701L209.66616280278606,119.2321087552306L210.0619113219246,119.01321452007741L210.24290323764055,117.23618043050992L210.34711886987432,93.65617999715853L210.4137973028274,91.62541706979071L211.04907194217097,97.61958556067111L211.13896337632275,103.08953142763156L211.27117146990742,104.29181233915395L211.84854302041998,109.24338360581245L212.03599855324074,112.53088428016825L212.25459858010913,96.21387833405667L212.35883548590442,88.19414724038283L212.84260336578208,87.03437368718073L212.9205213303985,83.90832737933954L213.02080844494046,91.0276561742811L213.64429044002148,100.47844559291524L213.913049979332,105.12152234832921L214.36246460296795,106.13971593666402L214.6476083302331,116.32438356326125L214.9582732401207,118.40401723223079L215.11244274036872,113.95277019786684L215.2093579954117,105.03998184456617L216.17914875268684,103.51633239028556L216.23096051173943,106.38767540668238L216.2586728711971,84.84917113428362L216.53879958354003,101.41849119897618L216.61278548487104,107.61212770479936L216.89344758184524,100.70172246158461L217.08710081225198,108.23178061274804L217.37871879340278,114.26967043348138L217.4681634827629,121.42648371315774L217.51496531808036,119.75567637514204L217.79126278935183,93.18889149872555L217.81386594845404,93.46932416093077L218.0067001467427,108.46057725920367L218.55101258267197,112.38552819039414L218.81583296750992,111.6801370094125L219.0892478711971,114.79307095729875L219.27263660817627,118.87217641877447L219.388283234127,120.85550111119649L219.80967348606976,115.61416044113679L220.00963078187004,116.43071472616792L220.17698989025297,121.15136806982517L220.31895191178901,124.78102593512124L220.5710365244709,111.17521460587056L220.7700790571263,109.78475560435596L220.88181843894677,113.41692453521854L221.00269481543486,117.55218768743964L221.27924402385085,120.03544739888183L221.44543308635087,113.35446771958914L221.4984999855324,111.71501120164672L221.5901464885086,111.88384093717097L221.98420021391368,114.65400578867029L222.03569641513724,115.17462174683068L222.5758853257275,108.28059702114068L222.6547960565476,105.17562400647083L222.68891175801917,102.63630999739254L223.01224507378473,112.27043663885371L223.16363128306878,120.18787907388224L223.1986830212467,121.56715308881743L223.28696830150463,114.3574966854718L223.34398853753308,112.75984536646465L223.5073021236359,100.95850841893063L223.59378978794643,102.72765010337997L224.63330464306384,100.72941721341391L224.7741958953373,95.09370645203991L225.40804520605985,83.32313358462615L225.50743173983133,75.81075115391488L225.73466883267193,92.4550667682986L225.77087997995207,106.2939713437874L225.8517762431796,108.65897412401056L226.25837427868717,116.84036994647794L226.48900095899472,117.71783801244722L226.80200950624175,117.91895423665422L228.25226010458002,120.66607555619642L228.56078347594246,117.50497823583194L229.08407763310186,110.69872481376787L229.32687279059192,115.15785889945212L229.73917568617725,115.70107299096861L229.83304173073742,121.34695821019389L230.2835554883846,120.15412253697622L230.3269287347057,111.3969430360661L230.3512089595734,103.24232575798435L230.45017711330192,101.1528385618122L230.53976717199902,105.16164645306213L230.624347306961,109.5058389475807L230.67112077752975,105.96283351580281L230.77309204902446,115.07145882569141L230.85725734953704,112.59777134228938L231.71931879133598,118.86890768803676L232.00295209573412,111.46273221359608L232.24843835875495,98.52365430138245L232.3719597480572,101.47315971736963L232.5137090339782,98.3320739312706L232.77876697358633,100.13532866804768L233.2729021691055,96.67627146872654L233.75137293216767,103.1342981426998L233.92641534184855,83.55270069700671L233.96134652984458,76.13481350721263L234.36069382647156,99.3584542511021L234.67426257750495,98.29398779508081L235.35117312231318,95.66444828282543L235.41784800967264,101.58631478006961L235.75080052083334,94.10738079076602L235.95244906477348,106.12633955037424L236.0997755694031,102.82213034233835L236.36243668774802,109.5328028554213L236.5043880725033,118.52893293421914L236.9020866681134,98.21404642780112L237.07468261822092,106.63274274471956L237.35857475095074,102.98300328863134L237.66498849413028,107.73426896283995L237.94427490079363,114.58167229954991L238.13937473338294,120.2852103577945L238.4035994584987,126.74876877803652L238.72719869378307,112.71687395077426L238.91747651909725,103.37995828318404L239.37268109705687,109.50018678125352L239.55167684358466,113.16138856174402L240.1559275390625,117.13072990030281L240.56820206989912,109.69593305899866L240.70474287884423,98.17730437935629L240.78164680369542,98.89698388347911L240.85314369833003,98.70075669327699L241.00749402385085,107.76971751049136L241.07867536065643,104.57052330909616L241.11388665054562,99.86732083383339L241.7123083901703,110.05892665033173L241.97078570808532,115.39956952033158L242.0116486741485,116.46393327210065L242.10600401062334,118.12991030022229L242.36579319816468,108.45058740309292L242.43769074487435,100.34056365169654L242.55231978546627,110.20224777233153L242.81344566178902,121.14341748083243L243.00072036933696,120.20262240017063L243.4607824105076,119.57317725226866L243.89051189856153,111.14817850745787L244.20098889198908,110.90084790792218L244.3844379040592,107.02973807216387L244.51433781622023,103.53490730089445L244.87252077132936,100.92176633624267L245.01524154989252,112.47412330721473L245.59997729828044,90.67442183011929L245.8372696945271,94.91765122968783L245.88334113756613,105.31339384875385L246.79684205109126,102.81120863296825L246.82688386553409,103.06067945195807L247.0152931630291,103.32408985164899L247.3340172071346,102.82315794226886L247.41737765790344,93.35664218390298L247.76319712818287,84.04636089845279L247.9363568276703,101.59165349301281L247.97057535135582,103.99813809065868L248.5701245897404,112.94490357668776L248.60230085152116,106.39377249496314L248.6558074043072,105.79768704612795L248.69442600963126,101.77916618393856L248.97315575810185,109.17711683856196L249.11838681692294,115.13051295900263L249.1737193504051,105.45050532833058L249.28645504402283,109.69706352300842L249.3817109612682,112.32769698109433L249.82989526393024,120.11092591087102L249.96500365306716,116.911202519771L250.04887466931217,114.37724593636757L250.14252797825728,113.65499590795386L250.70328487723214,93.38193041572964L251.56911883060516,108.6417367763727L251.82769542514055,104.31700330427903L251.86905831989915,107.41345375780094L252.27392256014386,117.13461529936497L252.52824444237766,129.3295438996082L252.76392004794974,120.47683464352795L252.9003580346809,122.05057103723306L253.18816095713458,111.0917433950588L253.2601400524967,103.94289982486512L253.46679497457836,105.97350738047129L253.82951274388228,64.03570371645941L253.88271083002644,67.39890548400146L253.91356458540014,73.200645201818L254.372882051918,83.17166921130662L255.1262994150959,85.37860882851618L255.36880028831845,95.91019480041652L255.61538568535053,99.3638137564318L255.84421120411707,82.65148459809281L255.91205613735946,96.39358065893997L256.00415293072086,93.53723673043656L256.1213702546296,104.9681240247764L256.70401764839613,107.4603021696363L256.8993621269428,105.33369856960125L256.94653270399306,111.14411713467646L257.1883918247768,112.09057499595932L257.2847291480655,114.86029100443385" style="fill: none;" fill="none"></path></g></g></g></g><g opacity="0.2"><g><g><g><path stroke="rgb(204, 51, 17)" stroke-width="2px" d="M19.967811576140875,152.4541071719224L20.568541497189152,152.11428575350772L20.901373458167992,151.8754286944334L21.709502875950726,152.46000001905486L21.797231498015872,152.2175510201071L21.951496729290675,152.28714285884053L22.039087073206016,152.15357147423285L22.34183112702546,151.85076933487187L22.48464763661541,152.63089291518554L22.95561592365245,152.10904764277595L23.224042177166005,151.86285720672458L23.322226754712304,152.07560438795815L23.383994540550592,150.59785719694835L23.61038423652447,152.79744361377587L24.02477194113757,152.02982146492494L24.35687705543155,151.41657153344048L24.786283894469246,152.07731098335768L24.936836889260913,151.8817143834063L24.98078806733631,152.48946430959873L25.31670824032738,151.64914290354187L25.572175349289022,152.11952386423945L25.956783613384587,152.22952386031727L26.594352251777448,151.91314293803381L27.136285594411376,152.096326548074L27.374226834284062,152.35120884309123L27.529803935185186,152.13523819643473L27.98149837549603,152.15693878409053L28.018652650669644,152.39714290979984L28.494988966393848,150.96400006142045L28.746836024305555,149.97321430327636L28.829781640625,146.8567348936839L28.89802722594246,150.79759427745427L29.087500201512896,150.9219643380493L29.461301496362434,151.27200013824873L29.884429089161706,150.8369388311569L29.93267398106812,150.20500020922296L30.172916311177246,149.35530646837185L30.720628971354166,149.86714305489193L31.012906432911706,149.71846180302757L31.251439786913032,150.04628595896065L31.393525904224536,150.9224176593125L31.99050104166667,150.48000025429897L32.30159142278439,148.16057158367974L32.56103314215443,151.85458656333918L32.72404889839616,151.32267860163535L32.91324886326058,151.72457150050573L33.09979317853009,150.6120001617819L33.20069013516865,151.80000009746956L34.13412792142031,151.63836746809207L34.37378877418155,148.54714288243227L34.41809096602183,148.73571442972337L34.70949975715113,152.02628577859807L34.954890289145176,152.64857145658294L35.040058992642194,151.4953846730558L35.41025441881614,152.18439567368478L35.46428571945271,151.76117647904903L35.825290967055224,146.76514336307133L35.882701218377974,148.87714319995473L36.02246142629795,151.03000012492495L36.45271566220238,149.47058837062548L36.88818192067625,151.6186813611005L37.677126131572415,151.80000009746956L37.868939198908734,152.3485714573014L38.16521609002976,151.01742874697916L38.353011999834656,152.20071436105562L38.450859745990414,151.4794286426955L39.11153501777447,150.8492858534945L39.91492043134094,150.82571446496462L40.5871720661789,151.06816340903086L40.623507309234455,150.34219783464712L40.72872279885913,147.73846165410112L41.01413599123677,146.82642888543862L41.432193385209985,149.69742879404555L41.55256274181548,150.8127731856491L41.6107884796627,149.73160724155605L41.75743777591766,148.6885716526636L42.063372863963295,149.6196430362761L42.49168056898975,151.7842857652743L42.66819440000827,150.1971429333623L42.71245759031911,149.7257145041866L43.190740436921295,150.10285737924278L44.04422154224537,148.33500038566334L44.14404063843419,151.51714299605894L44.839086894427915,148.88571481353472L45.094649734416336,146.15333396143149L45.16315414806547,145.53942896425724L45.32657410197586,147.94371454577362L45.80564407035384,145.69500004074405L46.091351546999014,139.54959259501527L46.186926567666994,151.84714298429233L46.342372481605494,143.02285801087106L46.69960521763392,144.90142922848463L46.93558219866071,136.6105727638517L47.41253190207506,125.00400120658534L47.807798220486106,142.67785791839873L48.13869428736773,140.87464384202445L48.355096046213625,141.02785720889057L48.72379523189485,140.142858193389L48.81522545366237,144.94071472968375L48.869143295304234,132.22000112490997L48.97261435288525,146.07551066470998L49.057304401248345,136.89107259469372L49.10413814690807,135.71250053388732L49.35077318225033,139.99071435736758L49.38972152777777,112.10571738226075L49.899985628513555,145.15285766550474L50.214373411665015,148.07571423373054L50.286441146866736,146.3583677661206L50.60128276599703,146.99142860514777L50.90119743613592,116.54893136450224L50.995903786375656,116.60000190138817L51.60830225591105,148.31142899713348L51.96207449260086,143.17285751657826L51.99751624607308,114.21143218874931L52.09379329427083,132.09428646734784L52.19083973627646,114.36857419354577L52.21646728670635,124.59857174328397L52.31741742724867,133.8668573434864L52.91171209594081,123.96214469202928L53.050266802042,124.9757174721786L53.270582896205354,132.42428678487028L53.44419643167163,116.18828696863993L53.66888424272487,136.90959181104387L53.83517612743883,128.49571559045995L53.88187868613591,144.14400030459677L54.07019934379134,134.21934239566326L54.3223796875,132.8957145554679L54.36995446221892,137.46857183320182L54.84882942294974,105.6377181836537L55.053995195725854,94.94571843317578L55.221648588376326,144.35142869928055L55.61301829943783,148.83673504261034L55.82848756717097,139.51142931090934L55.96805985863095,130.66821548555578L56.01619838272983,150.69214297059392L56.06738966290509,134.61642986961775L56.43689724392361,144.7757145709225L56.711365188905425,138.36428723164968L56.81936396949405,122.1942874789238L56.85870942150298,139.94357245841198L57.042449172247025,110.83285976733481L57.221728566261575,130.3028591828687L57.387768713831015,114.40000329698836L57.447838160342265,148.98910718570863L57.50040867642196,148.97142875407422L57.67536244626323,148.69485712211048L58.086264832382604,149.23857174281562L58.27629092055225,145.73035778211695L58.31007333622685,150.26000004261732L58.40452794932209,146.59071500013982L58.58262666067295,142.28892978812968L58.62629773685516,144.39857235444444L58.885796185722555,147.02285770859038L59.07871193266369,112.812858160053L59.124067165798614,137.79857390693257L59.211856062954695,136.9028585084847L59.355296597015546,148.94000052873577L59.51661046833664,151.43857144484562L59.572786853091934,145.1245721748897L59.62323001302083,142.7485716449363L59.661983350901124,145.67142996937037L59.78839085338128,144.7521436214447L59.963567995618384,143.76214354698146L60.19116673900463,138.12857246824674L60.30470373677249,148.58642882268344L60.368095404472555,145.7892864729677L60.648261118344905,143.9625005690115L61.08715951140873,147.981428679611L61.45870580873843,143.4085722799812L61.63874395978009,147.3790479211935L61.724061578207674,144.9771428800055L61.961687260251324,148.11107197510344L63.13063755477017,151.0602198594383L63.199677353050596,148.73571442972337L63.248280349909066,147.9073474236897L63.434863666708004,146.1533335223794L63.54047271722057,149.0735715840544L63.6883771536045,149.7571429490511L63.79214604104663,149.7257145041866L64.20295978732639,145.0912094861269L64.4711449404762,151.72457150050573L64.6543634889633,146.81228570107902L65.01185505332342,152.47346942313015L65.08859233527613,149.03877582933222L65.35518551690642,146.56714361160994L65.45319990596064,151.2342857848853L65.5831459108383,150.00857160559724L65.63273812830688,144.72857179386276L65.72891589988426,148.20989030280285L66.11520122974537,137.84571580588818L66.17152298383763,145.42483549565077L66.307404312376,145.18821452877353L66.60349328703704,143.77846223435233L66.72891156890708,144.01469420109476L67.16500894303903,151.2342857848853L67.35443582589285,149.5560000238142L67.49333445457177,150.9369232811566L67.54403289723875,149.7571429490511L67.95957646536046,144.9485720055444L68.01669952360284,143.94285737935985L68.1884693504051,143.22000029363804L68.2408058573082,142.64642881495612L68.29017115678737,141.9785717821547L68.32402802992725,136.58464410475324L68.49907043960813,145.22357227014643L68.54068861710483,139.98285795961107L68.70132528005125,133.87224714670862L68.79166700458829,151.0740001672613L69.17503431092923,150.542857363554L69.35617159598213,133.96952527974332L69.44471570457176,142.61076988386256L69.53729469866072,140.4333341653858L69.57828885168651,147.85047656989525L70.0054087828621,150.06514280635332L70.13437974950396,124.67714450189047L70.49622530278604,143.8261222147516L70.61758742559523,141.93969986800636L70.79233909660218,151.77642859917665L70.8379496124752,140.22642912077052L71.05409254298942,139.00857243686914L71.40545732163525,121.62857415420669L71.94885499441965,114.68678859727724L72.00948464471726,110.72285790528571L72.27867674644511,95.81785849162512L72.47070254939649,149.2647620769484L72.5402103660301,142.04142911093575L72.72269852223874,146.0485713077443L72.88814301008598,116.82000211306982L73.03615026868385,101.64000155670304L73.25162662760417,149.06571430819375L73.29830436714616,141.83714345097542L73.39704205729167,142.90813282664334L73.80146664393187,124.01714386684554L74.05335270337302,18.16571831703186L74.24899855737434,98.48143285938673L74.34861555472884,138.84244918291057L74.36854533626818,147.58857147235955L74.86322655319941,148.6885716526636L75.08391493468915,131.69828608632088L75.83114169146826,39.03429176126207L76.01493817170964,115.73571560638293L77.17703128823578,140.3600010541933L77.26605050636574,127.39885814487934L77.43790188182044,62.19322072608132L77.4957482411541,138.05785698550088L77.53525679046793,36.08786599976676L78.46580846354166,115.53771717207773L78.7311216858879,88.53428670338224L79.1372339750744,124.99143026769161L79.1935911851025,134.16857217039382L79.45583037781086,57.891430684498395L79.53062467447917,90.39642947060723L79.76728950066138,141.6642868944577L79.8622085865162,143.84857182524036L79.99722124462632,150.29142870700787L80.22090210710151,136.63178775991713L81.30728970940807,149.18357168989522L81.45567280092594,54.3792880858694L81.54640454075728,36.67715115206582L82.03451577277612,119.64857224907195L82.20376822813327,119.64857224907195L82.70785590484456,150.668571362538L82.87885633783897,100.5792868775981L83.08220322110616,103.0778619647026L83.95100129071595,131.74857335431236L84.2976894314236,121.91142906035697L84.6512382957176,137.971428707242L84.89094878678901,132.8250008289303L84.93843137607473,67.06072057996478L84.96371500392692,93.70428992169245L85.00953470982142,120.94028802854675L85.28407711226852,120.00214615038465L85.77024890459656,153.21428571428572L85.86268962053572,153.21428571428572L85.9907316416584,139.10285799098867L86.05252424665179,140.0331443494984L86.19255746527777,137.36642900322164L86.44886487991897,141.541714971619L86.5977408089451,143.9114291540214L86.81667766720403,91.33928852421899L86.9637205243469,49.3114329661642L87.13392319878473,106.17750284927233L87.18567113715278,143.4085722799812L88.17509739169974,142.32428577329432L88.8093828104332,104.72785828369005L88.98247868923612,109.63071763515472L89.87719150235615,146.56714317255788L90.05874007626487,85.91785950320109L90.10721188616071,136.99714406260424L90.19717777777778,107.29714534112387L90.27256064298115,87.18286335468292L91.48049828455687,119.22428637742996L91.54715189835483,113.19000388894761L91.62374735656415,112.36500046082907L91.83936553922784,91.3628638642175L92.12160542534723,89.57143306732178L92.43013943349041,102.77143171855383L92.65694750950728,16.028581431933816L92.89962566240905,47.740005893366686L93.06900930472884,60.955719096320024L93.28560961681548,142.8428571990558L94.82190113467261,118.18714703832353L94.91079625702712,153.21428571428572L95.68927742125497,100.65000236034393L96.2005874720982,67.88571698325022L96.29328347077546,114.22714674047063L96.47420447461971,133.0371437647513L96.6544695436508,107.29714534112387L96.69522259631283,43.20643850735255L97.27695168134095,105.95357224345207L97.61421563430059,123.46714158143317L98.42847892898479,65.63857823610307L98.49593739252646,102.34714584691186L98.60870854208002,142.2457147708961L99.11133543423446,123.1685721235616L99.73225751074736,132.12571557079042L100.14537589285715,30.407150387763977L100.19114241484787,26.824302843638833L100.28316829633762,129.45428743958473L100.77704466352513,88.51543205124993L101.19840655071926,137.65714294144087L101.30326393539187,131.78785797740733L101.8269658358135,104.86928924918175L102.23824405485284,117.38571543778693L102.39719656084657,67.80714422464372L102.66354155092593,92.26381276335036L103.1721888609871,125.10535901146277L103.47199361772486,116.5775540471077L103.60720837466931,140.80000059945243L103.84160047536375,131.81142980498927L104.25701285652282,50.58429760592326L104.3444117383846,35.12143160615648L104.76814208209325,77.50286809035711L104.84534029121197,96.59571826457977L105.1121107525215,72.22286300999778L105.37997680224868,60.06000369787218L105.54418387793486,105.81999855382104L105.70774210999504,108.99428882769178L105.82551254650298,91.66928708553314L105.99651652509094,153.21428571428572L106.17931314794147,124.08000207373075L106.74067988901291,75.65250596829824L107.1208419787533,126.5314299932548L107.22764589430389,68.89143424374717L107.34520004960316,98.0178606084415L107.49103740492724,116.37214441384589L107.6111372964203,47.48858009065901L107.93119448371363,153.21428571428572L107.97819487227183,98.48142934697016L108.37163875558035,128.65285935146468L108.51010482184192,127.71942938012737L108.54125286148314,88.39286276272367L108.59744697420635,104.8771465250424L108.63434596664186,51.055720107896L108.72741779823909,71.28000395638603L108.86505419560186,106.77857215915407L109.28708974557705,123.78367529383729L109.39635784866898,62.70000623805184L109.74593919374172,82.31142959424429L109.78206879236937,118.28143083623479L109.8416808573082,82.50000421489989L110.27583170056218,128.74714314937592L110.45685198102679,82.54714787006378L110.56335452112269,115.68857195121903L110.63548607700892,57.891430684498395L110.71903798983135,58.85786507810866L110.96911579654432,-15.651420950889587L111.00582687251985,-5.468574081148409L111.09714008969907,105.79905050141473L111.17868874214616,136.79142884910107L111.2071031291336,73.82571918623789L111.49957205274471,153.21428571428572L112.21325749421297,133.35142953055248L112.6537939515129,133.6185716411897L112.98826043113425,131.43428583230292L113.40486413173777,139.9553574940988L113.47916913649141,28.914289048739846L113.88319307105655,62.11857484919686L114.32923938078704,138.69428754917215L114.78479851810516,121.42428849424635L114.98439416335978,130.2422454101699L115.31661982783564,116.65500283241272L115.41910166480655,112.04914640103067L115.5936228722305,46.24715157917567L116.14951167121362,119.87142805542265L116.16256654679233,68.49857045071467L116.31859039248512,147.60428602408086L116.53693159102183,123.1685721235616L116.77001891327713,120.4971439923559L117.40530773499505,121.42428498182977L117.48396318307705,94.89857126559531L117.54517785631613,153.21428571428572L117.88998683242394,118.70571670787676L117.9618595599785,130.59750175901823L118.03994416749339,122.65392933573042L118.12037950355489,124.56714439604964L118.22522270585317,125.37643151623863L118.8346535135582,134.82857280543874L119.75533425409226,144.90263749978374L120.06544605138062,113.61428624817304L120.39254478753307,98.59928848487992L120.70900319733796,142.1451437473297L120.9272699384094,48.18000631672997L121.01466527467758,15.18000968864987L121.08734994316303,2.9228700910295786L121.36875306919643,90.02714804240637L121.51585620143022,-92.9971238545009L121.63426484478339,139.1601683359061L121.76093472118882,122.90142825671606L121.88844135768022,141.0985718135323L122.04420637504133,111.05285646659989L122.43264388020833,91.62685709340234L122.5868240172371,121.35828667453359L123.20949407138724,84.44857350417547L123.25447347160218,137.18571692705154L123.30305164930556,153.21428571428572L124.09616547825728,88.0062861953463L124.31777571407903,121.29857208047594L124.60807828000992,111.99571552021165L124.7887830026455,87.4971473642758L124.82343763434193,109.01786065527372L124.97010111297122,49.57071955714908L125.04121862909227,93.48429322242737L125.14290270750661,31.97857746056149L125.54788749793319,129.0771417106901L125.63270164207175,113.71905109712057L125.78023379112929,128.5900011445795L125.9043437489666,104.15428768311227L126.04348702360285,126.61000099565302L126.14689780609292,112.41214411599297L126.33052764343584,120.05085985575403L126.54070688554067,95.7188610306808L127.26349741133433,137.4000006807702L127.59958422722389,111.06857453073775L127.81983295510912,84.97028678655624L127.86938971664186,99.8485742722239L127.92157021742725,107.65071573002L128.00483139157572,81.95786271776473L128.0554660135582,127.85142950713634L128.15951854848709,112.76571801730566L128.28128486896495,139.21714412314552L128.51888218625993,71.12286546400617L128.69058110119047,57.042865966047565L128.9176976438492,98.7957168689796L129.019420723793,125.94476334750652L129.36234698970733,129.37047766787666L129.45078473048943,116.76343113183975L129.48285817005623,126.6152397649629L129.72524203869048,107.94143142444749L129.91842725074406,115.73571560638293L130.197298822958,143.64428616528L130.28331137772818,109.4067870293345L130.3040601913856,121.12178864223617L130.76110847800925,91.41428564276015L130.81518232576883,141.05142991457666L130.97643237640543,137.99657234123777L131.14348656374008,153.21428571428572L131.30508053695436,125.7653578902994L131.34593641183037,119.23214365329062L131.48330688967428,125.21142872316497L131.53238854166668,130.89214433516776L131.61759270109954,108.90000151736398L131.84872640128967,118.86285871267319L131.88256554646165,113.77143176538605L132.23262200107473,134.42449211009912L132.27594560908565,113.66142990333695L132.45657587425595,126.42535852534431L132.55895134341932,134.73428725131922L132.63037023499504,126.22971692255567L132.81527294043485,111.19714653917723L133.29355933263062,128.64612429269724L133.3997924076141,119.87250285489219L133.47676724433697,121.67208948305677L133.524639848917,115.34571794526919L133.71017721560847,104.41055359584946L133.82881632254464,146.33142928725908L134.23690705295138,138.1016339893852L134.42193385416667,130.7742869534663L134.5486037305721,140.60357221535276L135.0901470579117,121.4011767932347L135.2740605427414,89.93510867868152L135.35792446779928,97.64373907021115L135.59511758742562,120.15626396451677L135.63896594328702,130.34326602305686L135.73430340918486,109.20643176351274L135.87081585338126,140.30571489994014L135.890426531498,117.8257158611502L135.99645750764714,116.12857237458229L136.08369329220403,128.6782435859953L136.14049370143024,126.89678805215019L136.32122324322089,112.54178741148542L136.4412451316551,99.33000109025411L136.57885316426916,142.0767868523087L136.84039387504131,136.2428578734398L137.3855111607143,121.99785909482412L137.58451469184027,132.67571609999453L137.74899477823246,134.1528576186725L138.19143167369378,86.65642938443594L138.47185621589782,119.5189289535795L138.52050530547288,113.1617183983326L138.61437489562664,100.31214652316912L138.79499097842262,123.76767974879061L138.9170728567295,122.94857542429651L138.97234156952712,97.99912186605592L139.0196929718502,106.73142850399017L139.47573430989584,101.44200312239785L139.50659870205027,103.46678833876337L139.57675536230985,113.44457330448289L139.70366988467262,153.21428571428572L140.24571668630128,108.62657393727983L140.29151157304068,27.154301404953003L140.3215675698578,115.27102289455279L140.3868242197834,138.80428589880466L140.76023195374506,122.27286023753031L141.18346236875828,106.22857338615827L141.98683714554397,125.8337165415287L142.64723940662202,114.62000350866998L142.83493958540015,85.78821620770864L142.87677758969906,102.72428806338992L142.96610527447092,105.99428817629814L143.32574546854332,83.48999989884241L143.46446681754298,136.6885712423495L143.65950637504133,94.22914330448424L144.10509884879298,91.52786314487457L144.51133168816136,112.57714690906663L144.53187840298446,111.79929064852853L145.06464993179566,111.39857309205193L145.43786265811013,124.8814301618508L145.71334464285712,72.76500450713294L145.75284255539023,130.2400009759835L145.8540125227348,121.56257233449392L145.9362738394924,120.79178656850542L146.17922145750663,120.35571653928076L147.07307978257276,99.09428983926773L147.43681159164186,110.67571776253838L147.46583936631944,114.00085930313384L147.92560357762898,102.8485749236175L148.03266986710483,126.56914456614427L148.18703792059358,133.7383942199605L148.21406952608302,127.2385742834636L148.2843821924603,122.99571556704386L148.73388545593582,111.50857495410104L148.76554760664683,105.5450009235314L148.9155687624008,123.63214437450682L149.00978582072588,135.25285867708072L149.1995105334408,128.73535899179325L149.4425964296048,132.9617146189724L149.54684751777447,113.11591999871392L149.63239559978504,101.4649005659989L149.71214309069114,107.53959340708597L150.17862974743716,108.07500160166197L150.36134127604166,108.75857406428884L150.54091140873015,129.19028718556677L150.6198079571759,119.66307852949416L150.76221317791007,114.59755214197297L150.9173896267361,118.79057317972183L151.2100181020585,102.24857338837217L151.26316654989253,119.44114297628403L151.4405915984623,110.48938757606916L151.5827238084904,112.2733369256769L151.71049281890708,112.29428849049978L151.81643870081018,137.49214366078377L152.388899604208,86.33429161139898L152.41002425078537,112.9228600221021L152.4791101417824,115.76714470982552L152.5133853949653,114.54367518424988L152.67625223627644,84.0242876325335L152.85683640873015,109.7485732606479L153.16848344804066,103.91464603798731L153.21738782035382,107.45877621429308L153.35036885333994,114.57600346633367L153.7135865513393,46.65571587426322L154.01572430865576,112.812858160053L154.1619126777447,143.45571417893683L154.29444342034554,96.69673887746676L154.33469654431215,99.99363005161285L154.61164285920964,22.81715537820543L154.71719872581843,132.32057390468464L155.06584757977845,117.9592860383647L155.1962332382606,92.91856936046057L155.32853351727846,65.23000691618239L155.36992477678572,106.05257672922953L155.55858935701886,66.11786152635302L156.465201182209,89.052859885352L156.64859701037534,120.05714356899261L156.78596394262567,116.7728584579059L157.00336201326886,137.0348586354937L157.23211662016368,108.99428882769178L157.85314506448415,94.00285937956403L158.05457023602844,102.25285853658404L158.17569834966105,102.33535817691259L158.92964046068948,96.13102204033308L159.40699790736605,93.88029009103775L159.4700952907986,121.07228815555573L159.63392298797123,127.56071556891715L159.90838384176587,126.55500182083676L160.22693060619216,122.8123814719064L160.27660791790674,120.88607387883323L160.32890542328045,125.4000015876123L160.35260771639383,120.95809598054205L160.3940202494626,135.7714283466339L160.44534271660055,120.26929001723016L160.88705276537698,112.93071729796274L161.98153495783728,116.10000237822533L162.02057548879796,113.70857355850085L162.0722986080109,122.9721437394619L162.3907673693783,100.7914263010025L162.91550812872023,126.30659494016852L163.0161498026207,108.632861162935L163.571815229208,119.58571404218674L163.643957421875,106.53500363230705L163.7847458519345,117.99857241766794L163.85256596602184,69.28653895854951L163.9083097883598,84.82088263545718L163.99090793650794,89.7128640328135L164.88779065290177,136.26642970102174L165.11656653335814,120.96857351916178L165.24733157035385,123.08057203888893L165.42163295097552,118.92257330673083L165.82595826099538,131.45785765988487L165.87369613301917,117.33857178262303L166.1547695188492,117.8436748470579L166.26917873263886,140.16403367476804L166.30417728691302,131.64171510509084L166.60080164620538,104.27214682102203L166.72206803798778,86.52285920722146L166.76842667410713,140.53285761071103L166.99605732783564,119.39399932112013L167.09723084077382,105.17571598291397L167.2280632440476,136.12500049173832L167.36193776661707,138.64714389400822L167.77040078435022,123.82857275860651L168.009331244833,48.59486486230579L168.06836537801752,99.21214546476092L168.19627975777118,131.10428727098875L168.2376993820271,97.727144914014L168.81092258804563,107.17143243977003L169.37651922226357,95.08714588625092L169.75433058345735,76.04143585477557L170.5595703424686,119.36571734292167L170.78302783254796,65.31643343823298L170.8769470610119,153.21428571428572L170.91796248759923,83.51357523884093L171.0984792937748,132.70714520343714L171.55949155402612,93.24857494660787L171.83403041087962,120.62678728784834L172.06879125330687,114.41571784870966L172.3053638940559,94.47428539395332L172.39129135458,27.418294634137844L172.484100812252,113.37857499718666L172.5608558221726,79.31786017758506L172.6622314339451,98.2928617511477L172.835327312748,105.19457414746284L172.89411325438164,105.9142893765654L173.10222186983302,99.60107535123825L173.38058287657077,92.48572021722794L173.48408229890046,126.45285899085658L173.5953784815228,98.7171441103731L174.01018811177246,126.9557141086885L174.0958212880291,93.32400057997023L174.13590776909723,137.13857327188765L174.19126512173446,79.60857587201255L174.54225406746033,110.36143024052893L175.3525888444527,108.46393148813928L175.44007282056052,118.39928997414454L175.53241425987932,94.26685963358199L175.6319603453621,90.98572164773941L175.72026335358797,96.1714323929378L176.1656962756283,63.43857611928669L176.34396162987764,113.59857520886831L176.44062160218255,95.4306145651L177.04056440145504,109.9748606979847L177.24248241050762,118.80000050578798L177.7650639033565,106.73143201640676L178.1827029172867,45.587147431714186L178.40678797743055,62.41715133190157L178.8476931764633,116.15057415195875L179.00883331369872,111.05285997901643L179.02516077215608,129.38357371304716L179.38943860263723,131.10428727098875L179.44114753947585,84.70629355737142L179.54178566778273,132.1346950637443L179.75371997871198,114.46286150387357L179.96869995453042,116.16000147802491L180.17243330749835,37.46286468846458L180.2068503844246,19.746137176241202L180.30258141121033,122.71285714847701L181.16182056051585,75.24000074182239L181.54758114252644,132.56075294954437L181.70879219163362,66.63642768348967L182.03113274119545,124.80734802782536L182.0986798445767,84.80214740548816L182.49485028935183,141.39857170305083L182.6556181392609,116.1010736652783L183.85014989149306,73.2128586939403L183.98816566736937,114.76143096174513L184.30721236049106,75.2635760818209L184.47932256427745,109.8293904534408L184.5299323671048,128.88857235865936L184.62713481522817,132.00000091322832L184.65348212115575,136.10143042036466L184.97292237516533,66.07071787118913L185.06574246961807,88.34571910755976L185.6143947120949,114.93428751826286L185.88408674251818,74.37257434640613L186.3066895874669,130.84500068000386L186.41942173549108,130.19142952348506L186.51045485077714,95.5219092965126L186.6875962518601,116.00914669888361L186.81586164537865,105.51514538271088L187.48706733010914,128.1342861694949L187.5256646618717,99.84071699636324L187.56871880477019,120.65035911543029L187.85123170159557,119.90000156419619L188.2379283203125,115.75592253889357L188.53191830357142,71.9635764190129L188.55784013826883,72.66286343336107L188.59857546296297,117.77857220598631L188.77678054212137,68.78143238169807L189.00597834821428,119.29500186017583L189.3542052765377,102.4767891424043L189.73573241980822,71.73257180622647L189.90878929708168,83.7492864898273L190.10950889550267,116.63143100483079L190.19572354910713,85.42286166122983L190.47194301731977,47.00142898729869L190.6041759300595,86.04095565421242L190.7003749751984,58.2685799258096L190.79489340897817,121.6757178093706L190.88164344721395,58.202574593680254L191.04318069093088,127.28571618241924L191.2823167958416,64.30286241429194L191.8072454716435,85.29321836573739L192.06437546399636,104.02857478175844L192.29538506841106,105.43500257389887L193.21433555927578,97.0294314622879L193.38382556940311,103.32536088568826L193.53726822296628,69.34714921883176L193.762165224041,140.33957196133477L194.09853568741732,44.64429540293557L194.14379164393188,105.60000185455596L194.32725129278273,121.31428663219725L194.40962961412862,99.88629060132165L194.68384227637236,90.93857799257552L194.77733603360613,139.27047753440482L195.03058005539023,91.92857367651804L195.35454094122025,98.46571830766543L195.62616886574074,132.25143022835255L195.8223111028439,134.58343071596966L196.07220453869047,121.10326766967773L196.5658220775463,76.51600548199247L196.74780675946596,106.83160964931761L197.1162648447834,86.77187549216409L197.23827935681214,105.57643002697401L197.34338138744215,103.90285836798806L197.38009600901123,84.31500332696099L197.4606802600033,113.81857190813338L197.77488367228835,97.727144914014L198.5459049076141,136.79193288087845L198.61978089554398,115.78285926154683L198.66097005621694,105.61571640627726L198.83938432539682,98.48929013524737L198.8922136698082,118.80000050578798L199.06719580439815,110.6657144001552L199.1559845589451,114.73000185830254L199.48863569465112,141.86117716133595L199.514724172247,133.79142995391572L199.66212867993553,121.20428828256472L199.85160165550593,85.64914558615004L200.42313715897816,141.48596326155322L200.66383332506612,112.86000181521689L200.79187534618882,101.81286162563734L201.19639211826222,107.44689370904649L201.24791313864088,131.14200008766994L201.57391628637566,100.65000236034393L201.61045362826553,103.71428725974901L202.2478839885086,132.20035793525832L202.4781490182705,108.72714496084623L202.58903391203705,105.38449051124711L202.69074635520008,111.29755247916495L202.82192977223875,132.0471445683922L202.9585095827133,117.48000274811471L203.4231099836723,103.58464747667313L203.67626891121031,92.98929538045611L203.78199851190476,136.3371451837676L204.2983291232639,113.213572204113L204.37079751054065,120.96857351916178L204.6335685422867,114.48642981903895L204.95340590277777,124.61035765707493L206.16341771660052,137.969465266381L206.19999051442625,112.79714712074826L206.2968525855655,116.3014324435166L206.4189025535301,104.96357304709299L206.51210202649636,129.29714367858003L207.5417849506035,118.25785900865282L207.665107786665,46.20000792401177L207.84892554046792,64.76703528847014L207.90902335172785,137.69250068281377L207.93817876777447,136.86514393559526L208.3842392598793,73.63714456558229L208.58102679501488,72.94885843992235L208.6436171585648,152.9502857346753L208.74031967799272,114.79286006518774L209.12983149801588,119.62971759693964L209.3022962611607,115.78285926154683L209.45087081473213,111.42685858266695L209.66616280278606,129.36000188546524L210.0619113219246,118.5844926748957L210.24290323764055,113.75571721366475L210.34711886987432,47.47286553893772L210.4137973028274,87.64800565583367L211.04907194217097,109.35964337417059L211.13896337632275,113.80285735641206L211.27117146990742,106.64657554456167L211.84854302041998,118.9414314712797L212.03599855324074,118.96971696189473L212.25459858010913,64.25571875912804L212.35883548590442,72.48686326401575L212.84260336578208,84.76286453860148L212.9205213303985,77.78571597167425L213.02080844494046,104.97143032295365L213.64429044002148,118.98857161402702L213.913049979332,114.21535907047137L214.36246460296795,108.13392941440856L214.6476083302331,136.27186867807592L214.9582732401207,122.47714589749063L215.11244274036872,105.23464730807714L215.2093579954117,87.58357388632639L216.17914875268684,100.53214322243419L216.23096051173943,112.01143007193292L216.2586728711971,42.664289985384265L216.53879958354003,133.87082813041553L216.61278548487104,119.74285955939973L216.89344758184524,87.1671417781285L217.08710081225198,122.98000101532256L217.37871879340278,126.09535996403014L217.4681634827629,135.44367421950614L217.51496531808036,116.48326673677991L217.79126278935183,41.15572111947196L217.81386594845404,94.01857393128533L218.0067001467427,137.82214397830623L218.55101258267197,120.07285812071393L218.81583296750992,110.29857203364372L219.0892478711971,120.89000076055527L219.27263660817627,126.86143031077727L219.388283234127,124.74000095256739L219.80967348606976,105.34857605184828L220.00963078187004,118.03000152111053L220.17698989025297,130.3971447369882L220.31895191178901,131.89000080738748L220.5710365244709,84.52714626278197L220.7700790571263,107.06143057772093L220.88181843894677,120.53081752998489L221.00269481543486,125.65143090273654L221.27924402385085,124.89910991064141L221.44543308635087,100.2692353299686L221.4984999855324,108.5040046487536L221.5901464885086,112.21450746059418L221.98420021391368,120.07959493568967L222.03569641513724,116.19428968855314L222.5758853257275,94.77809888975962L222.6547960565476,99.09428632685118L222.68891175801917,97.66286066600256L223.01224507378473,131.1396432561534L223.16363128306878,135.694822541305L223.1986830212467,124.26857142576151L223.28696830150463,100.23680870022093L223.34398853753308,109.63071763515472L223.5073021236359,77.84464729683741L223.59378978794643,106.19265541434288L224.63330464306384,96.81571847626142L224.7741958953373,84.05571673597609L225.40804520605985,60.269526370934095L225.50743173983133,61.097150061811725L225.73466883267193,125.05428847457682L225.77087997995207,133.39857142950808L225.8517762431796,113.29102098941803L226.25837427868717,132.86428720823358L226.48900095899472,119.43642931325095L226.80200950624175,118.31285642726081L228.25226010458002,126.04653210512231L228.56078347594246,111.31371662020683L229.08407763310186,97.36813379185541L229.32687279059192,123.89142920928343L229.73917568617725,116.76500118204527L229.83304173073742,132.40487541471208L230.2835554883846,117.81785858528956L230.3269287347057,94.24530744552612L230.3512089595734,87.27085641452246L230.45017711330192,97.06041097640991L230.53976717199902,113.0132169382913L230.624347306961,118.01428696938925L230.67112077752975,99.02357435652189L230.77309204902446,132.91142910718918L230.85725734953704,107.75285680379187L231.71931879133598,131.15142916994438L232.00295209573412,96.95714592933655L232.24843835875495,73.18143661533084L232.3719597480572,107.25000168595994L232.5137090339782,92.18000650405884L232.77876697358633,103.66714711700166L233.2729021691055,89.90143162863596L233.75137293216767,115.78285926154683L233.92641534184855,45.20057788916997L233.96134652984458,61.60628889288222L234.36069382647156,144.8438097909093L234.67426257750495,96.209145209619L235.35117312231318,90.51428509610041L235.41784800967264,113.1847633634295L235.75080052083334,79.45929114307677L235.95244906477348,129.66643037540572L236.0997755694031,96.35057266269412L236.36243668774802,122.67619103193283L236.5043880725033,136.14857231932027L236.9020866681134,58.425718418189476L237.07468261822092,123.12143198081426L237.35857475095074,95.8346970166479L237.66498849413028,117.04000232475146L237.94427490079363,127.99285871641978L238.13937473338294,131.45604525293624L238.4035994584987,139.40816426383597L238.72719869378307,85.23428704057422L238.91747651909725,85.09286309991565L239.37268109705687,121.48714318871498L239.55167684358466,120.33214471169882L240.1559275390625,124.90500198943275L240.56820206989912,95.13428954141482L240.70474287884423,75.6171499831336L240.78164680369542,100.30653368149486L240.85314369833003,98.31643006631307L241.00749402385085,125.53200171462129L241.07867536065643,98.30464590873038L241.11388665054562,90.65572308642525L241.7123083901703,130.02000076430187L241.97078570808532,125.8596452006272L242.0116486741485,118.5485747030803L242.10600401062334,121.39285939080375L242.36579319816468,89.4928603087153L242.43769074487435,84.45643429245268L242.55231978546627,129.51714389026165L242.81344566178902,142.57257235369514L243.00072036933696,118.36000008242472L243.4607824105076,118.34035864898138L243.89051189856153,94.64714546288764L244.20098889198908,110.41643117155348L244.3844379040592,99.44786022816386L244.51433781622023,96.69000206249102L244.87252077132936,95.80372101494245L245.01524154989252,135.10033725627832L245.59997729828044,47.97796509095601L245.8372696945271,103.2283549649375L245.88334113756613,125.6742861973388L246.79684205109126,97.91047900915146L246.82688386553409,103.54928797909193L247.0152931630291,103.84000016110285L247.3340172071346,101.84204278247698L247.41737765790344,74.81571487018041L247.76319712818287,65.81143128020425L247.9363568276703,135.95551058650017L247.97057535135582,108.71143040912493L248.5701245897404,130.46785846352577L248.60230085152116,93.56285895620074L248.6558074043072,104.63020607829094L248.69442600963126,93.90857206923623L248.97315575810185,123.66659415619715L249.11838681692294,126.79071482803141L249.1737193504051,86.49143712861199L249.28645504402283,118.01428696938925L249.3817109612682,117.48000274811471L249.82989526393024,135.35500150706088L249.96500365306716,110.64428865909576L250.04887466931217,109.41428955112184L250.14252797825728,112.2404115327767L250.70328487723214,53.67551220314845L251.56911883060516,138.52928651230675L251.82769542514055,95.84666733230864L251.86905831989915,113.47809932061605L252.27392256014386,136.17428672100817L252.52824444237766,153.21428571428572L252.76392004794974,103.13809639641218L252.9003580346809,125.13285947697504L253.18816095713458,89.62800404855184L253.2601400524967,89.94131863117218L253.46679497457836,109.95061448642187L253.82951274388228,-18.102834820747375L253.88271083002644,73.9860048038619L253.91356458540014,84.5638158917427L254.372882051918,102.70071623580797L255.1262994150959,89.70107636281423L255.36880028831845,116.53714720691954L255.61538568535053,106.12800236259187L255.84421120411707,49.91905293294362L255.91205613735946,123.30857353551048L256.00415293072086,87.94285897697722L256.1213702546296,127.35642990895681L256.70401764839613,112.34143214566369L256.8993621269428,101.16857554231372L256.94653270399306,122.52428604023798L257.1883918247768,113.94428832190378L257.2847291480655,120.2850010565349" style="fill: none;" fill="none"></path></g></g></g></g></g></g><g transform="translate(61, 165)" clip-path="url(#clip_1)"><clipPath id="clip_1"><rect width="268" height="35"></rect></clipPath><g><g visibility="inherit"><g><g transform="translate(0,0)" style="visibility: inherit;"><text transform="translate(3,14)" style="text-anchor: start; font-family: Roboto, sans-serif; font-size: 12px; font-weight: 200;" fill="rgb(255, 255, 255)" stroke="none" stroke-width="1px">03 PM</text></g><g transform="translate(38.292410714285715,0)" style="visibility: inherit;"><text transform="translate(3,14)" style="text-anchor: start; font-family: Roboto, sans-serif; font-size: 12px; font-weight: 200;" fill="rgb(255, 255, 255)" stroke="none" stroke-width="1px">06 PM</text></g><g transform="translate(114.87723214285714,0)" style="visibility: inherit;"><text transform="translate(3,14)" style="text-anchor: start; font-family: Roboto, sans-serif; font-size: 12px; font-weight: 200;" fill="rgb(255, 255, 255)" stroke="none" stroke-width="1px">12 AM</text></g><g transform="translate(191.46205357142858,0)" style="visibility: inherit;"><text transform="translate(3,14)" style="text-anchor: start; font-family: Roboto, sans-serif; font-size: 12px; font-weight: 200;" fill="rgb(255, 255, 255)" stroke="none" stroke-width="1px">06 AM</text></g><g transform="translate(268.046875,0)" style="visibility: hidden;"><text transform="translate(3,14)" style="text-anchor: start; font-family: Roboto, sans-serif; font-size: 12px; font-weight: 200;" fill="rgb(255, 255, 255)" stroke="none" stroke-width="1px">12 PM</text></g></g><g><line x1="0" y1="0" x2="0" y2="17" fill="rgb(0, 0, 0)" stroke="rgb(204, 204, 204)" stroke-width="1px"></line><line x1="38.292410714285715" y1="0" x2="38.292410714285715" y2="17" fill="rgb(0, 0, 0)" stroke="rgb(204, 204, 204)" stroke-width="1px"></line><line x1="114.87723214285714" y1="0" x2="114.87723214285714" y2="17" fill="rgb(0, 0, 0)" stroke="rgb(204, 204, 204)" stroke-width="1px"></line><line x1="191.46205357142858" y1="0" x2="191.46205357142858" y2="17" fill="rgb(0, 0, 0)" stroke="rgb(204, 204, 204)" stroke-width="1px"></line><line x1="268.046875" y1="0" x2="268.046875" y2="17" fill="rgb(0, 0, 0)" stroke="rgb(204, 204, 204)" stroke-width="1px"></line></g><line x1="0" y1="0" x2="268.046875" y2="0" style="visibility: inherit;" fill="rgb(0, 0, 0)" stroke="rgb(204, 204, 204)" stroke-width="1px"></line></g><g visibility="inherit"><g><g transform="translate(57.43861607142857,0)" style="visibility: inherit;"><text transform="translate(0,31)" style="text-anchor: middle; font-family: Roboto, sans-serif; font-size: 12px; font-weight: 200;" fill="rgb(255, 255, 255)" stroke="none" stroke-width="1px">May 30, 2024</text></g><g transform="translate(191.46205357142858,0)" style="visibility: inherit;"><text transform="translate(0,31)" style="text-anchor: middle; font-family: Roboto, sans-serif; font-size: 12px; font-weight: 200;" fill="rgb(255, 255, 255)" stroke="none" stroke-width="1px">May 31, 2024</text></g></g><g><line x1="0" y1="17" x2="0" y2="34" fill="rgb(0, 0, 0)" stroke="rgb(204, 204, 204)" stroke-width="1px"></line><line x1="114.87723214285714" y1="17" x2="114.87723214285714" y2="34" fill="rgb(0, 0, 0)" stroke="rgb(204, 204, 204)" stroke-width="1px"></line><line x1="268.046875" y1="17" x2="268.046875" y2="34" fill="rgb(0, 0, 0)" stroke="rgb(204, 204, 204)" stroke-width="1px"></line></g><line x1="0" y1="17" x2="268.046875" y2="17" style="visibility: inherit;" fill="rgb(0, 0, 0)" stroke="rgb(204, 204, 204)" stroke-width="1px"></line></g></g></g></g></g></svg>