<svg viewBox="0 0 330.0000305175781 200.00001525878906" xmlns="http://www.w3.org/2000/svg"><g><g><g><g><g><line x1="41.171875" y1="165" x2="36.171875" y2="165" style="visibility: inherit;" fill="rgb(0, 0, 0)" stroke="rgb(204, 204, 204)" stroke-width="1px"></line><line x1="41.171875" y1="152.30769230769232" x2="36.171875" y2="152.30769230769232" style="visibility: inherit;" fill="rgb(0, 0, 0)" stroke="rgb(204, 204, 204)" stroke-width="1px"></line><line x1="41.171875" y1="139.6153846153846" x2="36.171875" y2="139.6153846153846" style="visibility: inherit;" fill="rgb(0, 0, 0)" stroke="rgb(204, 204, 204)" stroke-width="1px"></line><line x1="41.171875" y1="126.9230769230769" x2="36.171875" y2="126.9230769230769" style="visibility: inherit;" fill="rgb(0, 0, 0)" stroke="rgb(204, 204, 204)" stroke-width="1px"></line><line x1="41.171875" y1="114.23076923076923" x2="36.171875" y2="114.23076923076923" style="visibility: inherit;" fill="rgb(0, 0, 0)" stroke="rgb(204, 204, 204)" stroke-width="1px"></line><line x1="41.171875" y1="101.53846153846155" x2="36.171875" y2="101.53846153846155" style="visibility: inherit;" fill="rgb(0, 0, 0)" stroke="rgb(204, 204, 204)" stroke-width="1px"></line><line x1="41.171875" y1="88.84615384615384" x2="36.171875" y2="88.84615384615384" style="visibility: inherit;" fill="rgb(0, 0, 0)" stroke="rgb(204, 204, 204)" stroke-width="1px"></line><line x1="41.171875" y1="76.15384615384616" x2="36.171875" y2="76.15384615384616" style="visibility: inherit;" fill="rgb(0, 0, 0)" stroke="rgb(204, 204, 204)" stroke-width="1px"></line><line x1="41.171875" y1="63.46153846153845" x2="36.171875" y2="63.46153846153845" style="visibility: inherit;" fill="rgb(0, 0, 0)" stroke="rgb(204, 204, 204)" stroke-width="1px"></line><line x1="41.171875" y1="50.769230769230774" x2="36.171875" y2="50.769230769230774" style="visibility: inherit;" fill="rgb(0, 0, 0)" stroke="rgb(204, 204, 204)" stroke-width="1px"></line><line x1="41.171875" y1="38.07692307692307" x2="36.171875" y2="38.07692307692307" style="visibility: inherit;" fill="rgb(0, 0, 0)" stroke="rgb(204, 204, 204)" stroke-width="1px"></line><line x1="41.171875" y1="25.384615384615387" x2="36.171875" y2="25.384615384615387" style="visibility: inherit;" fill="rgb(0, 0, 0)" stroke="rgb(204, 204, 204)" stroke-width="1px"></line><line x1="41.171875" y1="12.692307692307685" x2="36.171875" y2="12.692307692307685" style="visibility: inherit;" fill="rgb(0, 0, 0)" stroke="rgb(204, 204, 204)" stroke-width="1px"></line><line x1="41.171875" y1="0" x2="36.171875" y2="0" style="visibility: inherit;" fill="rgb(0, 0, 0)" stroke="rgb(204, 204, 204)" stroke-width="1px"></line></g><g transform="translate(31.171875, 0)"><text x="0" y="165" dx="0em" dy="0.3em" style="text-anchor: end; visibility: hidden; font-family: Roboto, sans-serif; font-size: 12px; font-weight: 200;" fill="rgb(255, 255, 255)" stroke="none" stroke-width="1px">-18</text><text x="0" y="152.30769230769232" dx="0em" dy="0.3em" style="text-anchor: end; visibility: inherit; font-family: Roboto, sans-serif; font-size: 12px; font-weight: 200;" fill="rgb(255, 255, 255)" stroke="none" stroke-width="1px">-16</text><text x="0" y="139.6153846153846" dx="0em" dy="0.3em" style="text-anchor: end; visibility: hidden; font-family: Roboto, sans-serif; font-size: 12px; font-weight: 200;" fill="rgb(255, 255, 255)" stroke="none" stroke-width="1px">-14</text><text x="0" y="126.9230769230769" dx="0em" dy="0.3em" style="text-anchor: end; visibility: inherit; font-family: Roboto, sans-serif; font-size: 12px; font-weight: 200;" fill="rgb(255, 255, 255)" stroke="none" stroke-width="1px">-12</text><text x="0" y="114.23076923076923" dx="0em" dy="0.3em" style="text-anchor: end; visibility: hidden; font-family: Roboto, sans-serif; font-size: 12px; font-weight: 200;" fill="rgb(255, 255, 255)" stroke="none" stroke-width="1px">-10</text><text x="0" y="101.53846153846155" dx="0em" dy="0.3em" style="text-anchor: end; visibility: inherit; font-family: Roboto, sans-serif; font-size: 12px; font-weight: 200;" fill="rgb(255, 255, 255)" stroke="none" stroke-width="1px">-8</text><text x="0" y="88.84615384615384" dx="0em" dy="0.3em" style="text-anchor: end; visibility: hidden; font-family: Roboto, sans-serif; font-size: 12px; font-weight: 200;" fill="rgb(255, 255, 255)" stroke="none" stroke-width="1px">-6</text><text x="0" y="76.15384615384616" dx="0em" dy="0.3em" style="text-anchor: end; visibility: inherit; font-family: Roboto, sans-serif; font-size: 12px; font-weight: 200;" fill="rgb(255, 255, 255)" stroke="none" stroke-width="1px">-4</text><text x="0" y="63.46153846153845" dx="0em" dy="0.3em" style="text-anchor: end; visibility: hidden; font-family: Roboto, sans-serif; font-size: 12px; font-weight: 200;" fill="rgb(255, 255, 255)" stroke="none" stroke-width="1px">-2</text><text x="0" y="50.769230769230774" dx="0em" dy="0.3em" style="text-anchor: end; visibility: inherit; font-family: Roboto, sans-serif; font-size: 12px; font-weight: 200;" fill="rgb(255, 255, 255)" stroke="none" stroke-width="1px">0</text><text x="0" y="38.07692307692307" dx="0em" dy="0.3em" style="text-anchor: end; visibility: hidden; font-family: Roboto, sans-serif; font-size: 12px; font-weight: 200;" fill="rgb(255, 255, 255)" stroke="none" stroke-width="1px">2</text><text x="0" y="25.384615384615387" dx="0em" dy="0.3em" style="text-anchor: end; visibility: inherit; font-family: Roboto, sans-serif; font-size: 12px; font-weight: 200;" fill="rgb(255, 255, 255)" stroke="none" stroke-width="1px">4</text><text x="0" y="12.692307692307685" dx="0em" dy="0.3em" style="text-anchor: end; visibility: hidden; font-family: Roboto, sans-serif; font-size: 12px; font-weight: 200;" fill="rgb(255, 255, 255)" stroke="none" stroke-width="1px">6</text><text x="0" y="0" dx="0em" dy="0.3em" style="text-anchor: end; visibility: hidden; font-family: Roboto, sans-serif; font-size: 12px; font-weight: 200;" fill="rgb(255, 255, 255)" stroke="none" stroke-width="1px">8</text></g><line x1="41.171875" y1="0" x2="41.171875" y2="165" fill="rgb(0, 0, 0)" stroke="rgb(204, 204, 204)" stroke-width="1px"></line></g></g><g transform="translate(41, 0)" clip-path="url(#clip_0)"><clipPath id="clip_0"><rect width="288" height="165"></rect></clipPath><g><g><g><line x1="0" y1="0" x2="0" y2="165" fill="rgb(0, 0, 0)" stroke="rgb(189, 189, 189)" stroke-width="1px" opacity="0.25"></line><line x1="41.261160714285715" y1="0" x2="41.261160714285715" y2="165" fill="rgb(0, 0, 0)" stroke="rgb(189, 189, 189)" stroke-width="1px" opacity="0.25"></line><line x1="82.52232142857143" y1="0" x2="82.52232142857143" y2="165" fill="rgb(0, 0, 0)" stroke="rgb(189, 189, 189)" stroke-width="1px" opacity="0.25"></line><line x1="123.78348214285714" y1="0" x2="123.78348214285714" y2="165" fill="rgb(0, 0, 0)" stroke="rgb(189, 189, 189)" stroke-width="1px" opacity="0.25"></line><line x1="165.04464285714286" y1="0" x2="165.04464285714286" y2="165" fill="rgb(0, 0, 0)" stroke="rgb(189, 189, 189)" stroke-width="1px" opacity="0.25"></line><line x1="206.30580357142858" y1="0" x2="206.30580357142858" y2="165" fill="rgb(0, 0, 0)" stroke="rgb(189, 189, 189)" stroke-width="1px" opacity="0.25"></line><line x1="247.56696428571428" y1="0" x2="247.56696428571428" y2="165" fill="rgb(0, 0, 0)" stroke="rgb(189, 189, 189)" stroke-width="1px" opacity="0.25"></line><line x1="288.828125" y1="0" x2="288.828125" y2="165" fill="rgb(0, 0, 0)" stroke="rgb(189, 189, 189)" stroke-width="1px" opacity="0.25"></line></g><g><line x1="0" y1="165" x2="288.828125" y2="165" fill="rgb(0, 0, 0)" stroke="rgb(189, 189, 189)" stroke-width="1px" opacity="0.25"></line><line x1="0" y1="152.30769230769232" x2="288.828125" y2="152.30769230769232" fill="rgb(0, 0, 0)" stroke="rgb(189, 189, 189)" stroke-width="1px" opacity="0.25"></line><line x1="0" y1="139.6153846153846" x2="288.828125" y2="139.6153846153846" fill="rgb(0, 0, 0)" stroke="rgb(189, 189, 189)" stroke-width="1px" opacity="0.25"></line><line x1="0" y1="126.9230769230769" x2="288.828125" y2="126.9230769230769" fill="rgb(0, 0, 0)" stroke="rgb(189, 189, 189)" stroke-width="1px" opacity="0.25"></line><line x1="0" y1="114.23076923076923" x2="288.828125" y2="114.23076923076923" fill="rgb(0, 0, 0)" stroke="rgb(189, 189, 189)" stroke-width="1px" opacity="0.25"></line><line x1="0" y1="101.53846153846155" x2="288.828125" y2="101.53846153846155" fill="rgb(0, 0, 0)" stroke="rgb(189, 189, 189)" stroke-width="1px" opacity="0.25"></line><line x1="0" y1="88.84615384615384" x2="288.828125" y2="88.84615384615384" fill="rgb(0, 0, 0)" stroke="rgb(189, 189, 189)" stroke-width="1px" opacity="0.25"></line><line x1="0" y1="76.15384615384616" x2="288.828125" y2="76.15384615384616" fill="rgb(0, 0, 0)" stroke="rgb(189, 189, 189)" stroke-width="1px" opacity="0.25"></line><line x1="0" y1="63.46153846153845" x2="288.828125" y2="63.46153846153845" fill="rgb(0, 0, 0)" stroke="rgb(189, 189, 189)" stroke-width="1px" opacity="0.25"></line><line x1="0" y1="50.769230769230774" x2="288.828125" y2="50.769230769230774" fill="rgb(0, 0, 0)" stroke="rgb(189, 189, 189)" stroke-width="1px" opacity="0.25"></line><line x1="0" y1="38.07692307692307" x2="288.828125" y2="38.07692307692307" fill="rgb(0, 0, 0)" stroke="rgb(189, 189, 189)" stroke-width="1px" opacity="0.25"></line><line x1="0" y1="25.384615384615387" x2="288.828125" y2="25.384615384615387" fill="rgb(0, 0, 0)" stroke="rgb(189, 189, 189)" stroke-width="1px" opacity="0.25"></line><line x1="0" y1="12.692307692307685" x2="288.828125" y2="12.692307692307685" fill="rgb(0, 0, 0)" stroke="rgb(189, 189, 189)" stroke-width="1px" opacity="0.25"></line><line x1="0" y1="0" x2="288.828125" y2="0" fill="rgb(0, 0, 0)" stroke="rgb(189, 189, 189)" stroke-width="1px" opacity="0.25"></line></g></g></g><g><g><line x1="0" y1="50.769230769230774" x2="288.828125" y2="50.769230769230774" fill="rgb(0, 0, 0)" stroke="rgb(153, 153, 153)" stroke-width="1.5px"></line></g></g><g><g><line x1="-6559988.158482143" y1="0" x2="-6559988.158482143" y2="165" fill="rgb(0, 0, 0)" stroke="rgb(153, 153, 153)" stroke-width="1.5px"></line></g></g><g><g><g><g><g><path stroke="rgb(204, 51, 17)" stroke-width="2px" d="M21.51589204695767,53.14903846153845L22.163191787574405,51.344470293223615L22.521827683738426,50.57970515024047L23.392613916790676,50.871384005998394L23.48714400008267,51.05299689370973L23.653369170593585,49.92460088934052L23.74775025524967,50.747802519860045L24.073965576430226,49.58665086151927L24.227854423983135,50.25097579955562L24.735336136946096,50.81797967448611L25.024573053075397,50.76046574777284L25.1303697255291,51.29036430322288L25.19692627004795,52.59448853294087L25.440867600859786,52.20212272790751L25.88738212838955,51.71680779044173L26.245234826595567,50.95539396226885L26.707932898272155,50.676003168155596L26.870154208002646,51.750224195065414L26.917516671833663,51.72151109605577L27.279480204199736,51.89995818704485L27.554753273809524,52.22005300148034L27.96917960792824,51.24998962129629L28.6561779338211,51.73680724385754L29.240126510830024,52.17585987703011L29.49651495845734,51.7136038876823L29.664153705770502,51.51299603529434L30.150867301173943,51.51575528272097L30.19090208850033,52.075961407011086L30.704168004918984,51.784148601193465L30.975540366650133,49.94345962563979L31.06491662533069,49.10814847393538L31.13845318287037,50.11963977069965L31.342619518849208,50.30134249926908L31.745397216021825,51.629630228455724L32.201329221436836,53.61325181403569L32.25331064298115,53.40229360584049L32.51218240120701,51.59487079339524L33.10235453662368,52.641950904969505L33.41729562768684,52.92947350788969L33.674322095114086,50.8718709275583L33.827420103753305,51.40642857624082L34.47068159928902,52.021287708654945L34.80589032531415,53.513720445509385L35.085446150586975,52.16557256886733L35.26110026041667,52.28380579386685L35.46496859912368,52.183719438544465L35.6659753999256,53.19122065867583L35.7746947379299,54.163710721248364L36.780500478463956,53.05829592204768L37.038741857845565,54.11985390033995L37.08647872850529,54.35778374353647L37.40047998201885,53.05973922875611L37.66489525359623,54.94191533239967L37.75666695188492,55.570551896664966L38.15556304356812,54.607309358588424L38.21378330543155,53.60680586327634L38.602772898065474,53.8619471539609L38.664637895792,54.2715482460232L38.81523349144345,51.17642680288583L39.27884465732474,51.64252372287125L39.74807192563658,50.8351246637209L40.59818173259755,51.78021889929047L40.80486194299768,51.40075289954677L41.12411253306878,49.728183672148774L41.32646796254961,48.96315613841942L41.43190168960813,50.847396170100666L42.14379806960979,53.243110225332906L43.00946486235119,53.313044178014366L43.73383892299107,52.59492780716617L43.77299117993552,52.971802236038805L43.886363859953704,56.03210112759104L44.19390086495536,53.86200290790483L44.64437340753141,52.39553949883859L44.7740748098545,51.88057091435126L44.83681851748512,51.96343170552869L44.99482966063161,52.74138045371093L45.32448341187169,51.676145622323574L45.786000955894515,52.197292412990535L45.97619962487599,52.474032895640846L46.02389064980159,50.91883176187885L46.53925400855655,52.817471061712304L47.45890415323247,54.51662632771586L47.56646588645007,54.00259519131725L48.31539797867064,55.166882032421974L48.59077420118221,53.95827718950834L48.6645896536045,55.877545051832215L48.840679297908395,55.874141992892014L49.356886982266865,57.59183611139513L49.664748727885254,57.18332371185358L49.767729708167984,54.10502229346264L49.93523091827877,56.72230466454516L50.32015934296462,53.938251662085754L50.57443124586641,57.53361287854478L51.08835810495205,54.49427084947869L51.51426879546958,57.97715887763414L51.87081489025297,63.79784227027459L52.103993934978504,66.26224709437732L52.50128160548942,62.39427358042027L52.59980026765046,59.52206516843644L52.65789827422288,58.68973107768122L52.769391279141864,56.40997856387062L52.86064721292163,55.99696924525408L52.9111119047619,55.68323116081451L53.176868164062505,47.48562603336873L53.218836113177915,47.87709333123967L53.76865636160714,49.06541777348418L54.10742577298281,52.55421665196304L54.185076985160386,51.507673160211866L54.52432777674438,51.53285408480617L54.84749435660549,48.00491141314245L54.94954314029432,48.01489911449085L55.60941989397322,52.15020724679579L55.9906195322834,52.22891075762264L56.02880520833333,62.77113532085345L56.13254646370701,58.71449158240498L56.23712058325066,60.942973910368785L56.26473499710648,59.20351791849873L56.373511642278444,56.35307201671497L57.0138810360863,44.96424218565492L57.16317766927084,48.140684299014765L57.40057452153604,51.569670925349904L57.5876480396412,48.18578340257687L57.82975554108796,51.569373924943896L58.00893977244544,61.82544099117464L58.059263106605485,60.28080341734733L58.26218396680721,61.92659387506126L58.533915453455684,65.79203409374065L58.58517862516534,63.74592674734437L59.10118000372024,50.22639372767017L59.3222519541584,54.33711009044949L59.502903249007936,51.51583902423097L59.924615234375,56.789740785345906L60.15678949342758,57.13175461850879L60.30718260375331,58.865387719466824L60.35905323144014,59.346386670287046L60.41421329055059,61.30294449373157L60.812368209532075,55.644024210528286L61.10811139942956,53.18782208502243L61.22449079551092,38.3244499632582L61.266882817666996,44.059741931318094L61.464867620494374,44.32017220785138L61.65804626219411,47.24255304261251L61.83695923962467,48.84412201513273L61.90168577525628,49.79821899803835L61.958332000248014,52.14701117205918L62.14684965897818,53.98699602630671L62.58960865678737,53.69904735345913L62.79436716683201,53.708124856377005L62.83076867972884,52.02952262570316L62.93254620949074,53.59539100664978L63.124452632068454,56.52195537258622L63.17150945767195,57.51818637291757L63.45112641059028,56.27436123087001L63.658994789599866,64.91983662751935L63.70787016265708,58.18798490592286L63.80246137359458,58.07126288580131L63.95702644572586,59.42203873384305L64.13084672619047,55.571607632291915L64.19137837714946,53.79339226552439L64.24573231543485,49.51254149403382L64.28749013826885,40.849937807356824L64.42369781436011,47.630798006031014L64.6124523427166,55.10642551401277L64.85770027695105,52.39263566313775L64.98003961846892,51.49571982783404L65.04834594184028,56.41575558084907L65.35023246011079,68.6127506527435L65.82315795097553,64.72664093211621L66.22350964471727,56.35738861904333L66.4175058686756,58.769840704330925L66.50943802703372,56.87496253131536L66.76549027261078,55.30071420324847L68.02506361297122,54.21430879365593L68.09945595754795,55.22604630984512L68.15182706783234,54.47480526305877L68.35287589389054,54.22303508356531L68.4666726469494,53.95712120687546L68.62604388020833,51.91264823547398L68.7378578052662,50.87509416979614L69.1805212911293,51.8776243419314L69.46949841476521,53.218987339928965L69.66692160734954,52.350472030294185L70.05212892691799,51.791988482913666L70.13481552889385,51.62120578795367L70.42207725797785,61.50282577940442L70.52769054749504,59.023046242891006L70.66771106047453,56.69057061903302L70.72114808407738,58.156948423771034L70.82478236607143,59.800739829628505L71.24101196573248,58.02050382715106L71.30170407676091,57.99395155195322L71.44812006965113,60.53654711395461L71.76716435391866,56.02449030865106L71.90230611669148,52.65650000907018L72.37220960958167,52.01860300600446L72.57632627934855,53.24996718295161L72.72599349888392,53.26050224905578L72.78062251157408,55.508205875849264L73.22838251488095,52.46527831408704L73.28993423342426,52.36824506680173L73.4750211030506,53.01954020742495L73.53141517650464,52.89971866081909L73.58460768952546,49.54469577064553L73.62108943245701,48.24687851936492L73.80970260313327,47.91024565018928L73.85454737206516,49.98283068029412L74.02763794126157,50.38150139403763L74.12498371672453,49.910237891247924L74.53807288359788,50.048711518244865L74.73325345568783,57.77639051706152L74.82866224888393,60.691138379226416L74.92841874586641,64.08484577969918L74.97259111069776,58.060359937663584L75.43282879464286,55.595958278733285L75.5717910352596,52.702215739743366L75.9616937220982,49.64769265410361L76.09246485821758,48.77255730905505L76.28076474971064,47.562835935730575L76.32991137669477,61.860869995826455L76.5628115265377,63.25074398687778L76.94141706039186,75.3142581085503L77.52694349475033,63.638376807718736L77.59227366588128,57.707216278208904L77.88233580522487,36.813931922611374L78.08924906477347,42.770346947360906L78.1641457124256,43.67216973540777L78.36078188657409,50.36097636483995L78.53905302372685,53.15790823160442L78.69853505084325,66.83614834269828L78.93071695085152,61.40553020286626L78.98101354166667,51.04884883528371L79.08740620866402,53.34630982167232L79.52318519345238,53.750817215138674L79.79459958043982,32.20051991068269L80.00541354786706,22.195334688379255L80.11275369336971,26.528685917831137L80.13422859933036,39.21819586049454L80.66726166811343,30.129750733385485L80.90505967055225,39.040170147125146L81.71021773520172,55.1830444377432L81.90826748615244,56.22055927622831L83.16045202236278,55.49512622899848L83.25637275958994,60.994120061132705L83.44154750020668,63.737800545159494L83.50387859623017,58.44194098472719L83.54645018084491,67.2247875995835L84.54914605241402,66.1791498123625L84.83502858899637,86.41372900886044L85.27262612123842,73.69664859005762L85.33335261656745,72.6507354378061L85.61592279885913,73.72496304638922L85.69651577897652,79.77586453016364L85.95152885458002,70.16982034985737L86.05380686693948,65.75742107160558L86.19928684275793,60.691412749402886L86.44030932849704,64.13757968364528L87.61092284226191,58.698872771540906L87.77080984002977,60.05189737131388L87.86857586805556,68.21593159176932L88.39452959139386,71.8865049379525L88.57690774222883,75.51390643530256L89.12007271825398,67.15020606017029L89.30433054418816,63.139818296049995L89.5234425894924,65.68656674962472L90.45959719845403,66.03560716097648L90.83316352203207,68.72198192420137L91.2141224702381,64.26527607739325L91.47241351583169,62.57855618590947L91.52358117559524,65.23049852810085L91.5508250031002,67.41108013743063L91.60019703827712,62.33336740675252L91.89602045820934,63.46565381000493L92.41988820064483,52.336861042333226L92.51949187851355,50.3509760382543L92.65746461536872,44.64707814768887L92.72404408275463,44.973767897215986L92.87493767567791,46.69368133036456L93.1511161985367,47.64530590577287L93.31153424272486,50.13119255223895L93.54744492910879,57.5596261471907L93.70588778625165,56.32925037872438L93.88928600467096,56.04605832415371L93.94504205832506,52.840784452667L95.01117696449239,51.20881132433746L95.69464134837963,63.79960316621517L95.88115707671957,63.819185004736546L96.8452355582424,59.408300473135604L97.04085930576224,70.95760739271176L97.0930890583664,68.42393609397519L97.19002986317791,58.740647821858985L97.27125704261739,72.21903599945094L98.57284035734953,79.3791116925336L98.64466152033731,86.83551052468957L98.72719912367725,88.9106448740637L98.95953002232143,88.46370742222466L99.26365534060847,37.35149902702894L99.59610950210813,51.2586258256655L99.84049782882771,65.69808574672483L100.10199425533233,80.94497635411456L100.28450994336971,77.56924840533803L100.5179029348545,66.73564043942427L102.1732968822338,72.99406586125302L102.26908390273644,95.51207160014948L103.10792330005788,81.26329298485405L103.6588744099289,71.50885184837317L103.75875698268023,73.46925026728911L103.9537045056217,70.08664367694539L104.14794524016204,62.039556375160416L104.1918578125,73.92686741690999L104.81868743282904,54.46768009252797L105.18209892629795,54.5852563591291L106.05949076554234,69.28398331316372L106.13217535652281,71.83079343444687L106.25369329530423,101.99952136925019L106.79528805493551,74.95339085241822L107.46434923735119,64.2752146774769L107.90949603381283,58.617100023618036L107.9588107618221,78.95205564940436L108.0579712642609,69.42626083990568L108.59013708457341,70.78281104263287L109.04416649202216,66.16322091022296L109.15714948330026,58.82920929043538L109.72145698371362,56.451568472841075L110.16462095217427,80.58611080578927L110.335892973917,83.8030006208237L110.62288726955192,75.80741961930781L111.17097302104001,70.7833756996105L111.49402116608796,61.010937117269265L111.63971890914353,56.7256747280535L111.89228305844907,45.50262449322887L112.33990170407573,53.43545562235365L112.43407648292823,70.81825198202925L112.89065796957671,69.28492096675309L112.97384123367229,64.72545754293326L113.26129398664848,57.648180832598364L113.54992726727843,65.16492708058014L113.72686505766369,59.77637373114553L113.90310370060351,54.12192346484127L114.03000851314484,54.125992343543956L114.21426633907905,71.65290652229979L114.41123489479993,65.48225406355323L115.01612351087137,59.657472558844994L115.42575514529597,53.27101111379777L115.54084321986608,59.99325548389052L115.66751116278108,66.5277487419383L115.82465505745701,69.41071352969672L115.95406610346394,66.56877635147697L116.2989329974785,87.71155850436251L116.34958107225529,71.97923763415244L116.77352803716104,69.90248546927691L116.92272915839946,73.691462901089L116.9562958767361,83.9471622703244L117.01683898912864,77.18260931167238L117.05660252252811,83.58992128413837L117.15689006593088,84.0183238257304L117.30519337487598,79.42362470566232L117.75995249359292,69.41313497012375L117.8776919797867,47.75586908183509L118.25437199280753,49.707031393952896L118.2933064825149,43.32389095299334L118.35753635602678,50.38159531169983L118.82535004753638,42.436261800137885L119.02040454385747,43.46644899011802L119.135164057333,58.987543895879206L119.21288785858962,55.837210347186236L119.30291741898148,63.83807969015252L119.57238336226851,76.29423727365311L119.61193676938657,93.96619980523037L119.71033317625661,89.67096707883228L119.79820416666666,76.02032820150991L119.82881765562995,69.63045726939956L120.14396123201885,68.32185166497922L120.91298139674272,57.594991538643555L121.38767194837136,51.47779233980422L121.74806908482144,54.32452473596831L122.19697141100363,57.41283537521101L122.27703716517857,55.48504299535928L122.71238443597056,55.34283436207821L123.19301201016864,48.84543852852959L123.68388992642195,53.48795425229104L123.89895990616732,52.07457253540393L124.25694250062003,53.85837524268628L124.36736959222057,49.95435862507865L124.55542115265378,54.40109557413446L125.15440713045635,59.71359145626664L125.16847412987765,66.42011706127953L125.33659425739914,61.13011749456705L125.5718631035053,61.936155702851124L125.82302131696429,57.37780922966443L126.5075630756035,70.13108149129167L126.59231655609292,55.815870218894936L126.65827328559028,69.12510608490845L127.02981857638889,59.06411001955499L127.1072634827629,57.07361038592726L127.19140186631944,50.68340380704932L127.2780732266865,47.32760368438903L127.39104475653109,49.56380271025351L128.0477199497768,48.6301834508518L129.03978343150627,48.799243445006795L129.37393770564648,47.24144923560096L129.7263958891369,64.53635432850763L130.06738881861773,59.88306656547206L130.30257743468914,51.15609250083462L130.39674457258596,53.06079555480739L130.47507200934194,50.07260677388348L130.77828805390212,47.871059727541876L130.9367958591683,62.27662574583235L131.0643845372437,59.73913236978721L131.20087492869544,60.99730562879915L131.33826695291833,61.83021632626503L131.50610436507935,65.24103128353943L131.92466063574736,64.56766234554257L132.09079411479001,62.40617808785957L132.76173879278275,84.72482961050216L132.81020537471065,73.44131621708553L132.86254592117228,65.77815133571062L133.71715243055556,75.50820979311573L133.9559437572338,68.2352370311463L134.26875302166005,61.6867969287678L134.46346749545305,63.443672271455114L134.50080884589948,67.52993000851842L134.65884291191304,63.97806815106752L134.73547023602842,64.95920711846146L134.84504154059192,62.609724722387774L135.28142416087962,66.1224304421927L135.37281381138393,60.649337104398086L135.53178389446924,57.67822913399538L135.66551590091765,56.74724767715866L135.81544673342427,57.72195590827438L135.9268747902199,49.19690899292971L136.12474115823412,53.73921763085433L136.35121526434358,59.529349416128966L137.13003877521493,55.6163613239194L137.49218569051754,51.05125019534363L137.7295099537037,48.644475368704036L137.7829087725281,52.51733695146066L137.83913092447918,51.06504518276377L137.92885102616566,55.48929391262611L137.98341509073248,57.22209452597284L138.09553083354,51.14198867383883L138.22673750413358,52.57599654857293L138.4827591858879,57.86091404545657L138.66776200500166,70.47892509809225L138.91249035424934,71.28736855267624L139.02209986359128,64.26109918946119L139.39161266017692,58.57858371599605L139.48690301855984,63.17093291097906L139.52146688161375,63.61826811172252L139.7826423879795,61.49150754478323L139.99080494378308,59.79144289850183L140.29129698764055,57.993542758131525L140.38397795965608,60.490802106229424L140.40633157552085,58.26089443847815L140.8988140924686,54.43258612186169L140.957084020544,52.55058604618669L141.13083553240742,50.795164298506414L141.31084116650132,46.78039684252699L141.48496326471562,49.689110000075665L141.52898663091105,52.68539086778148L141.6770072244957,49.479172402213614L141.72989409928903,50.62392010899086L141.82170400235614,53.01674800289613L142.07076095300098,54.419704667016745L142.10721977306548,54.15080845915338L142.48441555059523,56.52318348003175L142.53109796937005,55.25430846350826L142.7257322131283,58.35911136812948L142.83604469039352,57.385945736357606L142.91300439608133,56.01487487452304L143.1122384951637,55.433998960771795L143.6276056743965,52.599847073395395L143.74207483155587,51.70010370454295L143.82501740554727,54.37777659730128L143.87660149739585,56.658416083163424L144.0765232824901,54.17557739943032L144.20436029162533,52.507239620726324L144.6440896505043,51.51113949533479L144.84345746631118,56.764959300888655L144.97995167824072,55.81090305718829L145.56348000268682,53.580409612269776L145.76165200892856,57.416522822200925L145.85201777137073,55.15059812406092L146.10760009817295,56.10245595120465L146.15484794766866,54.190492098814914L146.2575767764137,54.398754792531086L146.4046689938823,53.171975672655584L146.42580387731482,54.504847895298006L146.5400552672371,53.59341721083241L146.6340543041088,57.59748801538082L146.69525835916832,54.9813005584087L146.88999957630622,51.45380489970597L147.01932657180058,55.48539196143373L147.1676031374008,53.89132947846912L147.44941686507937,51.36888008201646L148.03680005166996,51.021768550667225L148.25123201161543,48.57876969694358L148.42846397879464,50.246166881892584L148.9052023065476,50.26795048876004L149.20736771970073,54.13579224565196L149.25978849619707,57.162798224789825L149.36093564711476,49.69032371365401L149.55555460896164,51.21661900691263L149.68709748160546,49.88736778605374L149.74665109023644,49.47250539463517L149.7976773923198,50.77652052297158L150.28907489355984,52.43171251911048L150.32233215319116,47.43221774656532L150.3979279482887,51.00285420182179L150.5346781322338,49.43096952456427L151.11875278501157,49.383945842496L151.16809425636575,55.57760602663097L151.20048044704862,53.5727716201966L151.27080016224372,59.28868871738012L151.6731576068535,60.6141698994029L152.129200406126,57.45131662506273L152.99485955791172,57.49718791717477L153.70646176111936,56.08771614174955L153.9087140376984,56.09551449542128L153.95379185577875,56.98317313482635L154.0500487950562,55.91745269999068L154.43757132419807,55.56388163338916L154.58704751984126,54.02893361204643L154.79720818555722,58.18120285641157L155.27734673859126,50.86214730976427L155.71507416708002,52.903455041975L155.7372138361855,47.29920955772421L156.31129029844575,49.12844671493964L156.71343761677414,47.425976895096525L157.01027728381283,77.7631742005103L157.05283740699403,68.61634125306152L157.1618509217923,63.9801554647683L157.250489828249,65.26153249622887L157.51227279059194,58.30071703602827L158.47543053695435,61.206416449930174L158.86736189752813,61.34545375231373L158.89864014963624,58.78930794131891L159.39404915261244,53.01639804650419L159.50941612206512,53.26826585713832L159.6757482659557,52.64817347950071L159.70487940951554,54.97662263559333L159.78064330563825,56.17743021994764L160.26499584573412,59.143676774784495L160.29911271288032,64.14450907400247L160.46076477141204,60.34295497306625L160.56228632915838,53.93930001174518L160.76672009858632,57.57115842443905L161.02864823908732,52.70188198746182L161.1409855696098,50.59286512399455L161.23316605902778,58.56348159871159L161.31909624669314,57.72420599381742L161.82174887566137,57.40259445280083L162.01862573991403,58.815425942237226L162.21211766079696,54.05840502614828L162.29713093377975,54.533040161629565L162.45057660590277,52.506445577326836L162.6177836392196,49.302881898528575L162.9330953166336,49.03207985479098L162.99036809999174,52.51756083073238L163.1815486317791,55.6817235967471L163.33470012710814,56.34076090580933L163.4723748666915,54.49739508294983L163.5865345651455,52.44276752016066L164.20337745639054,60.70793412507592L164.2261398633846,59.43073234852387L164.30058187417328,55.302087748103425L164.33751061301257,52.40833618088873L164.51300808325067,59.31577241155441L164.70759266079696,51.71426199928129L165.0434012018436,53.82641343615993L165.0960970527447,55.69888670010134L165.23938789475858,55.62253705949535L165.63076528604498,63.09636788305253L165.95632348503636,66.57071468750274L166.1138494274967,59.64766118981439L166.25665506882441,51.959987687929434L166.30002895378638,55.404981940990616L166.5984464781746,62.87504402929934L166.7121859240658,58.238963925937504L167.08786497189152,62.225127445453374L167.22835540364582,58.00811853929126L167.3709165343915,69.0923200267904L167.4155167927414,58.70246620143946L167.61880823929397,47.07509575954635L168.59570824446098,55.41308121880463L168.7933224609375,54.22012184616802L168.9413392340443,55.94432262616012L169.17559183304397,55.0531415913032L169.42208142257772,50.69870469253008L170.0912572193287,54.98766046881531L170.30829856564154,51.098513339592444L170.43881372974536,52.05070687008633L171.25121159990906,53.23771697331814L171.76557781394675,59.28830373045475L171.83356703765708,58.716019129702595L172.010096036913,56.99139370078678L172.30583540633268,50.78577554318607L172.64907859726355,50.64309401436414L172.70260731233464,49.50790877658062L172.7589593605324,52.18670004340876L172.78449925491898,53.500243473263176L172.82912243613592,52.99643721286564L172.88442385292657,54.68322130740602L173.36037898272156,57.433218282938086L174.5397146474041,57.351218468826836L174.58178192894343,57.0378446344095L174.63751505973048,51.55626498991999L174.9806742001488,52.64417132881884L175.5460972800926,51.45696541328942L175.65453772321428,47.82196916755768L176.25328683139054,52.63281172516223L176.33102209408068,52.878653355375015L176.48272562830687,52.030104527804276L176.55580372850528,52.78588543645108L176.61586928116733,36.36635763512311L176.7048711330192,37.953250569799145L177.67128774698247,41.027223808473835L177.91780025938328,48.001013654673194L178.0587033027447,49.970561025074254L178.2465179935516,51.76414778976201L178.68219000496032,51.80495682751483L178.7336289186508,49.85771455196262L179.03649347924934,56.196198528627065L179.1597726583168,54.693878951683764L179.1974845951141,53.8800886388282L179.51710577153605,72.54674621567794L179.6477699342758,65.73392200149529L179.69772650256283,60.67585636498989L179.94300500062005,58.61081332933374L180.05201851541833,57.0225623775831L180.19299796833664,55.445186293960035L180.3372515707672,55.12940525582269L180.77738207981977,53.61419629652939L181.0348402612434,56.00978030918999L181.09844739686673,52.481290736925935L181.23627877604167,53.25302065442563L181.2809095982143,48.84379052839907L181.89857389219577,55.964195276341016L182.50802415881284,69.8341933858566L182.9151228164269,64.3217381277758L183.78279153955853,60.43253871238923L184.02357333519345,51.03764631502921L184.1247701523231,49.248081869754685L184.16896926049932,53.021128663410984L184.36347742848878,58.694987175178085L184.860231239666,59.40603948869331L185.15605848007607,59.954405220067216L185.40901995907737,59.748998109217304L185.6639298817791,61.81636307805763L185.75652298280423,59.38590587854911L185.85652781084656,56.44715775760524L185.93923351521164,57.324025800523L186.04846861772486,62.61600507994622L186.2349843460648,56.87932173976786L186.2983240482391,52.800671045253665L186.52257081576553,59.885593822783946L186.8225127108135,60.92625105612042L186.93403627955524,57.70853613696452L187.05395725859788,61.689299531498094L187.50093024346893,66.5871104592777L187.59320242435516,62.56816466803246L187.63639674685845,58.58012501023749L187.69604586743552,57.48201184092084L188.07424643063823,48.57989367994861L188.94740518043156,51.50757503961936L189.04167165075233,53.71361056412741L189.14117217571925,53.8344965897293L189.248435911665,58.04703700838055L189.3435849123677,52.862988540460556L189.82355154389882,58.27541232541362L190.0156375289352,53.609052969992916L190.119791395916,60.81355349399173L190.76624681092923,58.382278063590554L190.98381920366236,54.28397315173968L191.5469156125992,48.893506429378284L191.99693351831183,43.796919034502L192.23839153852512,39.315300478574315L192.71347941984953,45.24901790206859L192.8871124968998,46.01975610796432L192.90470579737104,47.12658057523081L193.29722551153276,49.43029634080279L193.3529433604084,57.192329851908795L193.4613838035301,60.38700945569837L193.6897490461723,50.200986102567825L193.92139607928243,55.63886487026962L194.14092455667162,55.85707652045734L194.17800611462468,56.9338517771902L194.28115901641038,53.661879833541654L195.20701743758266,56.97416444980457L195.62268542700068,55.383026541427185L195.7963949136078,50.630945352360484L196.14372219535383,51.15215989624054L196.21650993923612,48.76404490858892L196.64339485160383,49.22721973659211L196.8166267784805,54.03756132324804L198.10376868696264,52.891109636291255L198.25248460751487,51.071384582293256L198.59626648582173,47.89847439218802L198.78171630084324,55.87374693916517L198.83625362206516,59.970563111695405L198.94099202215608,56.860512779942376L198.96938199301422,56.28685741449969L199.31358794436179,63.126738356377004L199.41360423383762,68.80059895066258L200.00479261636076,61.97544853465625L200.29539344308037,57.62507056844122L200.75076001777447,59.59779671630808L200.87223211082178,59.26308954867347L200.97032287946428,62.19453331176995L201.16119777302416,63.2522095630576L201.29940737950562,64.67894581995273L202.0226505787037,60.16922511869384L202.06424030051255,56.52913608774523L202.1106285424934,51.51858479628697L202.41504803757442,48.92839682720627L202.83172463314318,51.67169728652746L203.14851101500497,55.144866314428896L203.176438708044,60.815901329682646L203.2203321779927,59.75059768747782L203.41235321490575,63.801117825396545L203.65932036416996,64.93537338831192L204.03454477513228,61.55390815074152L204.44565111400462,54.54755804480421L204.6321248170883,49.53303557376411L204.84840588831017,55.31336954983182L204.94130080708499,64.14123304784194L205.23893895399306,76.62190838895371L205.38142367518188,74.29506096848141L205.485080880043,92.83779809165685L205.58692717840609,79.65379928021741L205.68040280981316,82.92692346233677L205.85446378038196,72.32646334417026L206.11213972904264,64.99876307863806L206.67776529431217,59.1374876586721L206.9548263475529,62.02987463147829L207.2037495814732,71.57168355263136L208.19394484953705,60.544748507341566L208.37657515190972,59.49008495826455L208.54191397156083,51.436478365927286L208.7842468812004,87.91507480739425L209.14669561425262,88.51720914609882L209.19546019345236,85.71376659545686L209.3931431785301,79.9711475491979L209.48190816075564,81.64168623238238L209.77738009672618,79.9369466540508L209.8781222769924,69.70350332591312L210.15099990699403,66.10165713138475L210.5000769675926,62.17512305582062L210.79276377521495,132.91349620218054L211.00411260954036,107.1065189385799L211.2733798879795,91.74165843101188L211.8052668134094,37.12402258385979L212.00136047970403,42.97012153172673L212.39838453724374,44.04822435918022L212.52985864128638,45.75621844456575L212.64310906601355,44.14131046260792L212.6826701140873,40.13402095091952L212.76950193452382,40.92277580432128L213.1080650400959,49.61509386721256L213.93886233155587,50.007917552899585L214.0184658079117,53.6333203480133L214.06284829902447,50.37354027167494L214.25509474413028,49.01164672074043L214.31201986400464,50.84938114999561L214.50056808655754,50.49203824885849L214.59624049272486,47.23037728855974L214.954677724041,49.688274523553815L214.98279262049437,55.201637939155766L215.1416251663773,55.84848431572113L215.34579150235615,64.65575322091591L215.9616334284061,59.851948887775016L216.22099038731812,55.019657993101404L216.35895930369543,53.895325604269466L216.79483762090774,52.29710571248482L216.85035298445766,50.7914957727869L217.20163064029433,52.92897020158492L217.24100066447585,58.02136638718633L217.9278499917328,57.89167793621675L218.17596710482803,56.24247677901286L218.29544872891864,52.602363929347504L218.40504677682705,50.811104600767244L218.54640063657408,50.79695124570791L218.69356926359956,51.75511973781887L219.1941893983548,57.59970379180193L219.46697533688823,67.76460759269088L219.58090198619377,62.02017022636137L220.13726289269178,60.70855586086602L220.21534963934357,57.929415108173465L220.49849289331183,56.009486926752345L220.84312673817792,53.090705289255176L222.14694885292658,52.30604690148694L222.18635708188657,51.60384902362307L222.2907287161045,53.46674805363847L222.42223720444775,53.20535122541898L222.52266610553076,49.223072353031874L223.6321787171379,53.93743296071254L223.76506257750498,67.6679389669308L223.9631314308449,19.13062430559608L224.0278923507771,29.429364346201503L224.0593043196098,39.833141386201724L224.53994717571925,49.978266807233574L224.75199133701224,49.14908860327298L224.81943423239088,146.77716740808276L224.92363394510582,113.57423340740799L225.34334400008265,98.03588370637601L225.5291796833664,82.71869904491908L225.68927298693785,75.88253757706451L225.9212562220982,70.38728706096084L226.34768649760252,63.121709182312706L226.542706609623,58.99075845956435L226.65500573536707,58.26593422276491L226.72685364169973,54.5522126412328L227.4113801184276,52.70170780501063L227.5082368727265,54.30232491634903L227.65069867104827,56.53739339700552L228.27283292410712,54.970208042247926L228.47482158771496,54.48481113642463L228.7103693287037,60.51679683402843L228.82268755683697,56.13383234373025L229.34396119481647,57.3000635052752L229.42792001591437,60.944583391190655L229.5359822317295,58.9376021584642L230.20780179914848,45.49201816086283L230.4973978401951,46.877818531185135L230.9816548683449,45.48119239178301L231.28890533750825,48.652965322778165L231.62365560619213,50.61604015818968L231.78977762380123,56.523025274556154L231.89420656518683,60.02496955937764L232.93918366505457,55.19811880084936L232.9950123077877,52.783523646775976L233.02487316261576,48.73761696878378L233.32671765562995,49.44480412887561L233.40643956679892,50.931498278288174L233.7088609519676,58.23142808770099L233.91752781084654,57.68432133105261L234.23175447255292,56.32900165917419L234.32813366712136,54.475171380369865L234.37856397466106,56.17567684520423L234.67628235160385,60.32770066966782L234.7006378978588,56.48718574976655L234.9084222263558,54.55451696634546L235.494934343998,55.39241961491513L235.78028965463787,56.209301663699684L236.07490198309358,59.70245556690302L236.27250473813658,54.28462964284024L236.39711726397155,52.70060080342781L236.85117723524306,48.374985695593345L237.0666369037285,48.97345859022377L237.24697109891702,51.6253868320184L237.39993921130952,50.601987123095135L237.67156372457836,60.04675160477287L237.8860377097801,60.04636783497411L238.00644388950894,60.130524202407734L238.13669162016367,60.39192421149665L238.4346812510334,56.968497278813345L238.6137546885334,51.713725276937865L238.6709357804233,54.43111984240593L238.76969131221065,53.06839733104153L239.19429157882772,149.95937786432626L239.24978019903273,117.59702434539128L239.83184910094243,101.59428485159432L239.91687765583663,86.03409491594557L239.9536382936508,81.08496269198002L240.302039129671,72.21705124522222L240.4651620721726,66.43047061665031L240.50293131613756,60.58883214669724L240.59806121445106,55.73691426353031L240.6595021391369,54.36843325820843L240.8354771691055,50.628310396713594L240.9286700851521,51.076627553096415L242.04877688182043,56.29804757788901L242.2005912099041,62.73346074940257L242.8835818545387,58.371900384736335L242.9906736689815,54.17514425625832L243.23552809399803,50.683131010900986L243.27454663421793,98.9378377211293L243.3617146567047,85.77727211007245L243.79983559441135,73.42203214551076L244.04834239624668,66.30571081735403L244.3856180007854,61.022348552242086L245.94830423280425,60.368092945648634L246.28074693287036,63.34280460449946L246.84461125785384,59.784088698524776L247.1062299396495,57.8095667184234L247.550498026207,53.48670619507593L247.65164135664685,53.32606585647003L248.13708273292823,52.413378595429755L248.18381863839286,55.5029308878344L248.20998127066798,58.55913486311046L248.31662226872518,58.05582588368391L248.41315810288523,28.35027681480223L248.50429560185185,37.353879481941725L248.55469534556877,40.81920008336342L248.6645722883598,42.40615518604063L248.75526279141866,44.42978669101888L249.68415849247685,52.2925189599238L249.98978143807872,54.342972130946855L250.25429986255787,64.61051198054216L250.3873976696842,66.7995910914964L250.54013273292824,61.56036532872062L250.82574401558367,54.876928787062354L251.35818491030093,51.03922281994117L251.87375457485948,53.45180019606058L252.06236774553574,64.21680892291879L252.10000709325396,75.26910901274768L252.53031515376983,67.86111748890774L252.86819439380787,61.058664020697L253.59758474185682,60.64017784504237L253.66942882771164,56.84057306700139L254.02819462012235,66.64516198895387L254.24547665653935,67.17784723668746L254.4042251519097,64.08527183057365L254.68725379154264,61.76996675033601L254.84020662202383,58.49673397856245L255.26873816034228,47.398074193561534L255.45471520130621,49.53137519114423L255.76061704179065,41.331651058052216L256.0907865575397,50.61678538582752L256.3917255973049,49.87594893697563L256.6019512111442,51.66881823781992L256.8866608610285,51.45774853737468L257.23534441240906,47.35630763115972L257.44037799685844,45.43566190384952L257.9308738653274,47.86989613043497L258.12374686879957,56.19735427844232L258.77484034391534,57.44458453887485L259.219081687128,50.43041871544085L259.36620828889716,44.663633357090866L259.44907445333166,45.8873433189087L259.5261143890542,43.47800894076806L259.6924312510334,42.45158342653325L259.76913498470566,42.75286924923046L259.80707232969576,38.919720985492006L260.451888759714,45.069855292395715L260.73040541501325,48.89821577679957L260.77443642216434,60.546481037348904L260.8761069785466,64.76843238753803L261.15603721064815,56.3804782293674L261.23350886036707,51.5072601700756L261.35702490906084,53.47802435519156L261.6383954613095,81.76225102660209L261.8401892805473,69.19280402339253L262.3359192036624,64.15203574180215L262.79896493882273,67.15674000964863L263.1335127221809,58.237813949256456L263.3311804253472,55.94852477066077L263.4711550925926,52.933746200959504L263.8571074053406,48.12629688150717L264.01089309999173,48.599996059551586L264.6409624855324,27.568556778820938L264.8966517857143,38.853340529137355L264.9462950748181,44.97630346225657L265.93061826843586,46.751654196472515L265.96299299768515,45.40882566316309L266.16600554935513,56.51564292995252L266.50943976417824,61.501337958295466L266.5992630187665,74.17845995095631L266.97189332527284,67.45447053049134L267.15847782221397,62.281448070601535L267.1953492538856,57.07736411169181L267.84138059585814,56.01771504193997L267.87605143229166,57.319371513505L267.9337062634342,55.688128505230175L267.9753189081101,51.532021477581175L268.27565813285383,56.37454646187212L268.4321487258185,55.10757683426596L268.4917711030506,58.158871626718074L268.6132470165757,59.48399197147435L268.71588797433037,61.55547173995802L269.1988192966683,57.42044778796549L269.3444024253886,56.373536440747245L269.43477582878637,52.69729324807467L269.5356899305555,46.25655971718719L270.13992142443783,47.55814989353133L271.07288211392193,47.917198144828596L271.35150574260086,47.113228154156786L271.396075437128,47.302101712650966L271.83232816116896,47.91512131699145L272.1063633959573,45.41606436258L272.36031437872026,52.76868659929994L272.5073301866319,52.31966848440602L272.81744601417824,62.6829536627449L272.89500553488756,31.103888414146013L273.1176820860202,48.24950684004931L273.5085169694527,43.77985720244812L273.5658432395007,43.268823283095564L273.5990890376984,41.7256012718407L274.09401666046625,44.46703310614023L274.9058452794312,55.54504385812121L275.1671468615658,56.79081911931089L275.4328496341766,51.64715976108462L275.6794156332672,42.60635091751961L275.7525204768105,43.749790319058086L275.8517573888062,43.44711716503238L275.9780623863261,46.601956630757265L276.6058815104167,58.39601355194763L276.81637073722715,63.91204274891428L276.86719837446265,65.4242923488764L277.12780845010747,62.80978949322531L277.23161465360454,62.24286567929089" style="fill: none;" fill="none"></path></g></g></g></g><g opacity="0.2"><g><g><g><path stroke="rgb(204, 51, 17)" stroke-width="2px" d="M21.51589204695767,53.14903846153845L22.163191787574405,50.149846165799175L22.521827683738426,49.7382768902641L23.392613916790676,51.27692306557526L23.48714400008267,51.340384638080224L23.653369170593585,47.99553841352463L23.74775025524967,52.22440379743392L24.073965576430226,47.43915995726218L24.227854423983135,51.50411538923015L24.735336136946096,51.901384583459446L25.024573053075397,50.64964106198974L25.1303697255291,52.317106589101826L25.19692627004795,55.13062511499112L25.440867600859786,51.43724696853985L25.88738212838955,50.769230769230774L26.245234826595567,49.467169166757515L26.707932898272155,50.129538507988826L26.870154208002646,53.85227683645028L26.917516671833663,51.665307730436325L27.279480204199736,52.249323109594684L27.554753273809524,52.8468204404299L27.96917960792824,49.35037167026446L28.6561779338211,52.690169255320846L29.240126510830024,53.03571433975146L29.49651495845734,50.808284044391115L29.664153705770502,51.120102585365L30.150867301173943,51.52115937035817L30.19090208850033,53.17315387611205L30.704168004918984,51.212615419465756L30.975540366650133,46.33834623373471L31.06491662533069,47.47213176809825L31.13845318287037,52.10072073512353L31.342619518849208,50.65722114908007L31.745397216021825,54.23118466368089L32.201329221436836,57.498329992477714L32.25331064298115,52.98911532530417L32.51218240120701,48.0548900938951L33.10235453662368,54.69274046329352L33.41729562768684,53.49260940574683L33.674322095114086,46.84189232496115L33.827420103753305,52.45340236104451L34.47068159928902,53.225538381017174L34.80589032531415,56.436769091165985L35.085446150586975,49.52511731248635L35.26110026041667,52.515375006657386L35.46496859912368,51.98769231828359L35.6659753999256,55.16449226782873L35.7746947379299,56.068410185667176L36.780500478463956,50.89325274090067L37.038741857845565,56.198999996368705L37.08647872850529,54.82378834715257L37.40047998201885,50.51741535847003L37.66489525359623,58.628307580947876L37.75666695188492,56.8017868239146L38.15556304356812,52.7207219027556L38.21378330543155,51.647239846105755L38.602772898065474,54.36166175282918L38.664637895792,55.07378470439178L38.81523349144345,45.1143842133192L39.27884465732474,52.55541177323232L39.74807192563658,49.253769110028564L40.59818173259755,53.63126145532499L40.80486194299768,50.65753842668178L41.12411253306878,46.45232323270577L41.32646796254961,47.46478860194867L41.43190168960813,54.53783078835561L42.14379806960979,57.93530757610614L43.00946486235119,53.45001541078091L43.73383892299107,51.18843953053539L43.77299117993552,53.709940910339355L43.886363859953704,62.025940968440125L44.19390086495536,49.611692193609024L44.64437340753141,49.52335376865588L44.7740748098545,50.871963805089194L44.83681851748512,52.125721184106965L44.99482966063161,54.265055220860695L45.32448341187169,49.58979811232823L45.786000955894515,53.21800003258082L45.97619962487599,53.01605123739976L46.02389064980159,47.87284610936274L46.53925400855655,56.53610779688909L47.45890415323247,57.844557647521675L47.56646588645007,52.99582414902173L48.31539797867064,57.44723081588745L48.59077420118221,51.59112805930468L48.6645896536045,59.636584474490235L48.840679297908395,55.86747683011569L49.356886982266865,60.956077254735504L49.664748727885254,56.38321954470414L49.767729708167984,48.07592306572658L49.93523091827877,61.848461261162385L50.32015934296462,48.48546146200254L50.57443124586641,64.5754150243906L51.08835810495205,48.54147669787591L51.51426879546958,64.7986732996427L51.87081489025297,75.19811566059406L52.103993934978504,71.0889808031229L52.50128160548942,54.818538473202636L52.59980026765046,53.896615556799446L52.65789827422288,57.05953827271094L52.769391279141864,51.944901155164615L52.86064721292163,55.188057502874955L52.9111119047619,55.06875006052164L53.176868164062505,31.42996155298673L53.218836113177915,48.643813305176224L53.76865636160714,51.392846118945336L54.10742577298281,59.387307946498574L54.185076985160386,49.457934131989106L54.52432777674438,51.58217293711809L54.84749435660549,41.095153872783364L54.94954314029432,48.03446082541575L55.60941989397322,60.249538559180046L55.9906195322834,52.38305787054392L56.02880520833333,83.41892425830548L56.13254646370701,50.769230769230774L56.23712058325066,65.30763456454645L56.26473499710648,55.796654407794655L56.373511642278444,50.770246019730195L57.0138810360863,22.6583092029278L57.16317766927084,54.36199991748884L57.40057452153604,58.285615146160126L57.5876480396412,41.55816937868411L57.82975554108796,58.1964062498166L58.00893977244544,81.91276761201712L58.059263106605485,57.255507340798005L58.26218396680721,65.15000595496252L58.533915453455684,73.36280753979315L58.58517862516534,59.73846206298242L59.10118000372024,23.747308345941402L59.3222519541584,62.38827645778656L59.502903249007936,45.99015427323488L59.924615234375,67.11909867250003L60.15678949342758,57.801616031389976L60.30718260375331,62.26084663317754L60.35905323144014,60.28846153846155L60.41421329055059,65.13501928402826L60.812368209532075,44.56057679194671L61.10811139942956,48.377154016724006L61.22449079551092,9.213348351992096L61.266882817666996,55.29276939538809L61.464867620494374,44.830245708043755L61.65804626219411,52.96626935211512L61.83695923962467,51.98092278379661L61.90168577525628,51.66689415390675L61.958332000248014,56.74730827028935L62.14684965897818,57.5907533443891L62.58960865678737,53.13507687587005L62.79436716683201,53.72590387096773L62.83076867972884,48.74184606740107L62.93254620949074,56.6622693148943L63.124452632068454,62.25386546208308L63.17150945767195,59.469384367649376L63.45112641059028,53.838230331356705L63.658994789599866,81.85269080675565L63.70787016265708,45.003115557707275L63.80246137359458,57.842653485444885L63.95702644572586,62.06764113444549L64.13084672619047,48.03023074108821L64.19137837714946,50.310615422920534L64.24573231543485,41.12815329661737L64.28749013826885,23.883536503865173L64.42369781436011,60.91165437148168L64.6124523427166,69.748039153906L64.85770027695105,47.077461458169495L64.98003961846892,49.739038517268796L65.04834594184028,66.05203862373645L65.35023246011079,92.50153981722318L65.82315795097553,57.11538461538461L66.22350964471727,39.96553941414907L66.4175058686756,63.494820824036225L66.50943802703372,53.16369226345648L66.76549027261078,52.21742309916478L68.02506361297122,52.08649701510484L68.09945595754795,57.20761505457071L68.15182706783234,53.0034396625482L68.35287589389054,53.72992307520829L68.4666726469494,53.43630763773734L68.62604388020833,47.90838460509593L68.7378578052662,48.842961650628304L69.1805212911293,53.84115976782945L69.46949841476521,55.84615392180589L69.66692160734954,50.649415417932545L70.05212892691799,50.69815384277788L70.13481552889385,51.28671423746989L70.42207725797785,80.85676789283752L70.52769054749504,54.1661999317316L70.66771106047453,52.122230787689865L70.72114808407738,61.02896649103898L70.82478236607143,63.0202366067813L71.24101196573248,54.53376940809764L71.30170407676091,57.9419467999385L71.44812006965113,65.51642362888043L71.76716435391866,47.18726662489084L71.90230611669148,46.060021966695786L72.37220960958167,50.769230769230774L72.57632627934855,55.661692286913215L72.72599349888392,53.28113601757929L72.78062251157408,59.91051297921401L73.22838251488095,46.50546161028055L73.28993423342426,52.178197700816845L73.4750211030506,54.2951537668705L73.53141517650464,52.66503859024781L73.58460768952546,42.97361543545355L73.62108943245701,45.70499976093953L73.80970260313327,47.25092328511752L73.85454737206516,54.04215402328052L74.02763794126157,51.16232983338145L74.12498371672453,48.987230675724845L74.53807288359788,50.31992317822117L74.73325345568783,72.9116671360456L74.82866224888393,66.39990490216476L74.92841874586641,70.73169281849493L74.97259111069776,46.260923170126404L75.43282879464286,50.769230769230774L75.5717910352596,47.03458982018324L75.9616937220982,43.665165190513314L76.09246485821758,47.058534828516144L76.28076474971064,45.19349999152698L76.32991137669477,89.86471185317407L76.5628115265377,65.97292322378891L76.94141706039186,98.94161416934088L77.52694349475033,40.77023059129715L77.59227366588128,46.09056459023402L77.88233580522487,-4.107234477996826L78.08924906477347,54.43646158163364L78.1641457124256,45.43846170489604L78.36078188657409,63.46153846153845L78.53905302372685,58.63592271621411L78.69853505084325,93.62607424075787L78.93071695085152,50.769230769230774L78.98101354166667,30.764461068006657L79.08740620866402,57.84607068850443L79.52318519345238,54.54307725796332L79.79459958043982,-10.007458833547734L80.00541354786706,2.5993801997258044L80.11275369336971,35.01590045598837L80.13422859933036,64.07161474227905L80.66726166811343,12.329304951887872L80.90505967055225,56.49193834799987L81.71021773520172,86.80015325546265L81.90826748615244,58.252614965805634L83.16045202236278,54.07430765720514L83.25637275958994,71.76433875010565L83.44154750020668,69.11151794286874L83.50387859623017,48.06957699358463L83.54645018084491,84.42669428311862L84.54914605241402,64.13118467881128L84.83502858899637,126.04476873691266L85.27262612123842,48.78923072837867L85.33335261656745,70.60223097984607L85.61592279885913,75.82892362888043L85.69651577897652,91.62703844217154L85.95152885458002,51.35561547600307L86.05380686693948,57.11538461538461L86.19928684275793,50.769230769230774L86.44030932849704,70.88717290988336L87.61092284226191,48.04673083126545L87.77080984002977,62.70190413181598L87.86857586805556,84.20584476911105L88.39452959139386,79.07561604793256L88.57690774222883,82.61846203070422L89.12007271825398,50.769230769230774L89.30433054418816,55.28515350360137L89.5234425894924,70.67457703443674L90.45959719845403,66.71923068853525L90.83316352203207,73.98346149004422L91.2141224702381,55.536461667372635L91.47241351583169,59.27498054045898L91.52358117559524,70.42453944683075L91.5508250031002,71.68192340777472L91.60019703827712,52.388261407613754L91.89602045820934,65.68332717968866L92.41988820064483,30.540231420443604L92.51949187851355,46.46146162198141L92.65746461536872,33.47553849220276L92.72404408275463,45.613615868183274L92.87493767567791,50.06226917872061L93.1511161985367,49.5091386540578L93.31153424272486,55.000000126086746L93.54744492910879,72.10880673848666L93.70588778625165,53.91946115172826L93.88928600467096,55.49140406342653L93.94504205832506,46.56299953277295L95.01117696449239,48.012461587786674L95.69464134837963,88.45967476184552L95.88115707671957,63.85753759971033L96.8452355582424,50.769230769230774L97.04085930576224,93.57784757247339L97.0930890583664,63.46153846153845L97.19002986317791,39.77515422380887L97.27125704261739,98.61753592124353L98.57284035734953,93.40269189614514L98.64466152033731,101.43946326695956L98.72719912367725,92.97496126248285L98.95953002232143,87.58834472069373L99.26365534060847,-62.75584404285138L99.59610950210813,78.49684458512527L99.84049782882771,93.97892145010141L100.10199425533233,110.80722955557016L100.28450994336971,70.9576155589177L100.5179029348545,45.51715383162866L102.1732968822338,85.25169198329633L102.26908390273644,139.6153846153846L103.10792330005788,53.35592185075467L103.6588744099289,52.40399968165618L103.75875698268023,77.30884717060968L103.9537045056217,63.46153846153845L104.14794524016204,46.278693079948425L104.1918578125,97.20911567027753L104.81868743282904,16.35530728560227L105.18209892629795,54.815538869454315L106.05949076554234,98.07261421130255L106.13217535652281,76.81892450039203L106.25369329530423,161.08738495753363L106.79528805493551,21.981383745486912L107.46434923735119,43.36115364844983L107.90949603381283,47.535230494462525L107.9588107618221,118.77969063245334L108.0579712642609,50.769230769230774L108.59013708457341,73.43972297815176L109.04416649202216,57.11538461538461L109.15714948330026,44.46496168008218L109.72145698371362,51.79476900169482L110.16462095217427,127.85553987209613L110.335892973917,90.10353629405682L110.62288726955192,60.14743552758143L111.17097302104001,60.94338435393113L111.49402116608796,41.870835515169006L111.63971890914353,48.33264602491488L111.89228305844907,23.521384092477657L112.33990170407573,68.97253907643832L112.43407648292823,104.86384721902701L112.89065796957671,66.28176968831283L112.97384123367229,55.795384209889626L113.26129398664848,43.78676905081823L113.54992726727843,79.88707505739652L113.72686505766369,49.22246154970847L113.90310370060351,43.04723093142877L114.03000851314484,54.13396156751193L114.21426633907905,105.98076802033643L114.41123489479993,53.39653830115611L115.01612351087137,48.249172688676765L115.42575514529597,40.762616212551414L115.54084321986608,73.1593080667349L115.66751116278108,79.32607577397272L115.82465505745701,75.05723036252536L115.95406610346394,61.002615369283234L116.2989329974785,129.12138627125665L116.34958107225529,41.1662304859895L116.77352803716104,65.83500045996445L116.92272915839946,81.11247787108789L116.9562958767361,104.03376872722919L117.01683898912864,63.93369197845459L117.05660252252811,96.13915360890903L117.15689006593088,84.85738442494318L117.30519337487598,70.42453944683075L117.75995249359292,49.80679116856593L117.8776919797867,5.338383821340702L118.25437199280753,53.52853864431381L118.2933064825149,30.82200050354004L118.35753635602678,64.20467307934393L118.82535004753638,26.874691431338963L119.02040454385747,45.48415289475367L119.135164057333,89.38684811958899L119.21288785858962,49.66703043820766L119.30291741898148,79.50842142105103L119.57238336226851,100.69061691944415L119.61193676938657,128.57815008897046L119.71033317625661,81.25841067387506L119.79820416666666,49.284461524624085L119.82881765562995,57.11538461538461L120.14396123201885,65.75884305513821L120.91298139674272,36.585579101855934L121.38767194837136,39.49676905687039L121.74806908482144,59.90007753555591L122.19697141100363,63.46153846153845L122.27703716517857,51.70930762417041L122.71238443597056,55.06430739393602L123.19301201016864,36.11976976578052L123.68388992642195,62.58069214912561L123.89895990616732,49.30635153960723L124.25694250062003,57.352095338014465L124.36736959222057,42.308030220178466L124.55542115265378,63.11038510157511L125.15440713045635,70.11853901239542L125.16847412987765,79.55538318707391L125.33659425739914,50.769230769230774L125.5718631035053,63.514845921443055L125.82302131696429,48.44992353365972L126.5075630756035,95.10938396820654L126.59231655609292,27.778385419111995L126.65827328559028,95.19230769230768L127.02981857638889,39.35884553652543L127.1072634827629,53.17505784905873L127.19140186631944,38.16767376202804L127.2780732266865,40.755001077285186L127.39104475653109,53.94357713369223L128.0477199497768,46.80161555226033L129.03978343150627,49.13036094835172L129.37393770564648,44.1903848372973L129.7263958891369,98.40980749863843L130.06738881861773,50.769230769230774L130.30257743468914,34.063616670095L130.39674457258596,56.79130863684875L130.47507200934194,44.22000034497335L130.77828805390212,43.559153974056244L130.9367958591683,90.49107753313504L131.0643845372437,54.76924889362775L131.20087492869544,63.46153846153845L131.33826695291833,63.46153846153845L131.50610436507935,71.9213848389112L131.92466063574736,63.24881549064929L132.09079411479001,58.172738506243775L132.76173879278275,128.43769146845892L132.81020537471065,51.34165389033464L132.86254592117228,50.769230769230774L133.71715243055556,94.56530653513394L133.9559437572338,53.990538899715126L134.26875302166005,48.861153888014655L134.46346749545305,66.88465297222137L134.50080884589948,75.53319220359509L134.65884291191304,57.02146297464003L134.73547023602842,66.88084616110876L134.84504154059192,58.008075769131004L135.28142416087962,73.00234519518338L135.37281381138393,49.92984660256368L135.53178389446924,51.85907683693446L135.66551590091765,54.92384612560272L135.81544673342427,59.63099984022287L135.9268747902199,32.499923614355225L136.12474115823412,62.63569194536942L136.35121526434358,70.86978504290948L137.13003877521493,47.95246156935508L137.49218569051754,42.11011538138757L137.7295099537037,43.9306146135697L137.7829087725281,60.10264573188928L137.83913092447918,48.220615742298264L137.92885102616566,64.15453846638019L137.98341509073248,60.61592294619634L138.09553083354,39.23361567350534L138.22673750413358,55.38461552216456L138.4827591858879,68.21184713106888L138.66776200500166,95.19230769230768L138.91249035424934,72.87076963828162L139.02209986359128,50.49958937156659L139.39161266017692,47.4489232324637L139.48690301855984,72.16541565381564L139.52146688161375,64.49440983625558L139.7826423879795,57.32607708527491L139.99080494378308,56.46173048477906L140.29129698764055,54.472211713974296L140.38397795965608,65.38188402469342L140.40633157552085,53.89344214246824L140.8988140924686,46.934538472157264L140.957084020544,48.864538560693084L141.13083553240742,47.357030579677L141.31084116650132,38.91715407371521L141.48496326471562,55.38605707196089L141.52898663091105,58.553846295063316L141.6770072244957,43.199537419355835L141.72989409928903,52.865999937057495L141.82170400235614,57.70329257616629L142.07076095300098,57.16750736419971L142.10721977306548,53.624153756178345L142.48441555059523,61.16966946766927L142.53109796937005,52.76911538380843L142.7257322131283,64.44011587363022L142.83604469039352,55.479923108449356L142.91300439608133,53.329523068207955L143.1122384951637,54.29630708235961L143.6276056743965,47.04893420522029L143.74207483155587,49.93788444365447L143.82501740554727,59.622212854715485L143.87660149739585,61.12523069748511L144.0765232824901,49.312739504071374L144.20436029162533,49.239666811548744L144.6440896505043,49.56019782962707L144.84345746631118,67.05498507389655L144.97995167824072,53.942307692307686L145.56348000268682,49.21181002488504L145.76165200892856,64.92985697892996L145.85201777137073,50.71260359693463L146.10760009817295,57.966745541645935L146.15484794766866,50.44575816306931L146.2575767764137,54.80665391454329L146.4046689938823,50.769230769230774L146.42580387731482,57.11538461538461L146.5400552672371,51.808307408713375L146.6340543041088,65.43978053789871L146.69525835916832,49.857288438540245L146.88999957630622,44.544922869939064L147.01932657180058,63.38157727168157L147.1676031374008,50.769230769230774L147.44941686507937,46.42846144162692L148.03680005166996,50.341922888675555L148.25123201161543,43.79396129112977L148.42846397879464,53.51189746306493L148.9052023065476,50.310615422920534L149.20736771970073,61.7112692961326L149.25978849619707,63.09143123718408L149.36093564711476,35.054885469950165L149.55555460896164,54.205990261756455L149.68709748160546,47.28392308721175L149.74665109023644,48.65996426114668L149.7976773923198,53.3305383187074L150.28907489355984,55.67353826302749L150.32233215319116,37.640307866610016L150.3979279482887,57.996230927797455L150.5346781322338,46.35230781940314L151.11875278501157,49.29184620483563L151.16809425636575,67.7083842570965L151.20048044704862,49.6461432857009L151.27080016224372,70.48376894914188L151.6731576068535,63.210230676027436L152.129200406126,51.256615833307684L152.99485955791172,57.587030507051026L153.70646176111936,53.32715307863859L153.9087140376984,56.11078819403281L153.95379185577875,58.72172348774396L154.0500487950562,53.830154096850976L154.43757132419807,54.87138445560748L154.58704751984126,51.02261529805568L154.79720818555722,66.3137538616474L155.27734673859126,36.52719236337222L155.71507416708002,56.90151929855347L155.7372138361855,36.3228471004046L156.31129029844575,52.71115380984086L156.71343761677414,44.09155375682391L157.01027728381283,137.18099850874682L157.05283740699403,50.7015382613127L157.1618509217923,54.89981525219403L157.250489828249,67.77121177086462L157.51227279059194,44.66740391575374L158.47543053695435,66.89746086414044L158.86736189752813,61.61776941556197L158.89864014963624,53.78289218132312L159.39404915261244,41.70969286790262L159.50941612206512,53.76156908388322L159.6757482659557,51.433673023891L159.70487940951554,59.53707630817706L159.78064330563825,58.52930779640491L160.26499584573412,64.95330760112176L160.29911271288032,73.9390386067904L160.46076477141204,52.89730759194265L160.56228632915838,41.3972302354299L160.76672009858632,64.68444324456729L161.02864823908732,43.1650151197727L161.1409855696098,46.46218712513263L161.23316605902778,74.17457067049466L161.31909624669314,56.08041767890637L161.82174887566137,56.7726925588571L162.01862573991403,61.58256927361856L162.21211766079696,44.74139956327585L162.29713093377975,55.46265098911065L162.45057660590277,48.53719819623691L162.6177836392196,43.02844652762781L162.9330953166336,48.50169242001496L162.99036809999174,59.344153748108795L163.1815486317791,61.878989132551055L163.33470012710814,57.631538120599885L163.4723748666915,50.88701586776341L163.5865345651455,48.4186153113842L164.20337745639054,76.8959231560047L164.2261398633846,56.92923064415271L164.30058187417328,47.21580749520888L164.33751061301257,46.740692578829254L164.51300808325067,72.84453804676349L164.70759266079696,36.8260966355984L165.0434012018436,57.963230747442985L165.0960970527447,59.36627516379724L165.23938789475858,55.473000189432724L165.63076528604498,77.73446257297809L165.95632348503636,73.37550044059753L166.1138494274967,46.088307889608245L166.25665506882441,36.903065030391396L166.30002895378638,62.152278377459595L166.5984464781746,77.50575735018805L166.7121859240658,49.158830705743576L167.08786497189152,70.03234711977152L167.22835540364582,49.74876973491448L167.3709165343915,90.8016140644367L167.4155167927414,38.35310752575214L167.61880823929397,24.30196193548349L168.59570824446098,71.74369179285489L168.7933224609375,51.88361561928804L168.9413392340443,59.32130758578961L169.17559183304397,53.307692345518326L169.42208142257772,42.170192186649025L170.0912572193287,63.38792296556326L170.30829856564154,43.481308015493255L170.43881372974536,53.9156539623554L171.25121159990906,55.56257108083139L171.76557781394675,71.13886122520154L171.83356703765708,57.59515402408746L172.010096036913,53.61357703231849L172.30583540633268,38.63157666646518L172.64907859726355,50.363640842529435L172.70260731233464,47.28455780790403L172.7589593605324,57.433326725776375L172.78449925491898,56.072923208658516L172.82912243613592,52.00969240699823L172.88442385292657,57.98692269967153L173.36037898272156,62.81930703383225L174.5397146474041,57.19061528260892L174.58178192894343,56.42407694688211L174.63751505973048,40.820153378523315L174.9806742001488,54.77492279731311L175.5460972800926,49.13172779174951L175.65453772321428,40.70253865076945L176.25328683139054,62.05523117230489L176.33102209408068,53.36015382638345L176.48272562830687,50.368153865520775L176.55580372850528,54.26614271906706L176.61586928116733,4.207400817137507L176.7048711330192,41.061307145999024L177.67128774698247,47.04784595049344L177.91780025938328,61.659738146341766L178.0587033027447,53.82807688071177L178.2465179935516,55.27703074308542L178.68219000496032,51.88488458784727L178.7336289186508,46.0438850063544L179.03649347924934,68.61062572552606L179.1597726583168,51.75146605246343L179.1974845951141,52.28621530418212L179.51710577153605,109.10688620347241L179.6477699342758,52.39046155833282L179.69772650256283,50.769230769230774L179.94300500062005,54.56626158494216L180.05201851541833,53.91184601646203L180.19299796833664,52.355769230769226L180.3372515707672,54.51092286751821L180.77738207981977,50.64653851235141L181.0348402612434,60.7017229612057L181.09844739686673,45.57046204805374L181.23627877604167,54.764515344913185L181.2809095982143,40.20796110996832L181.89857389219577,69.9100767649137L182.50802415881284,96.99969264177176L182.9151228164269,53.52515416076551L183.78279153955853,52.81523098166173L184.02357333519345,32.63699907522935L184.1247701523231,45.74307695031166L184.16896926049932,60.41094220601596L184.36347742848878,69.80769230769232L184.860231239666,60.79869224474981L185.15605848007607,61.02842330932617L185.40901995907737,59.34669187435736L185.6639298817791,65.86546251407037L185.75652298280423,54.62566130436383L185.85652781084656,50.69138481066778L185.93923351521164,59.04144190824948L186.04846861772486,72.98076923076923L186.2349843460648,45.64356916225873L186.2983240482391,44.81230785067265L186.52257081576553,73.76198103794684L186.8225127108135,62.964461377033814L186.93403627955524,51.406384431398834L187.05395725859788,69.48594262966742L187.50093024346893,76.1798644065857L187.59320242435516,54.696738295830215L187.63639674685845,50.769230769230774L187.69604586743552,55.331269479714905L188.07424643063823,31.144384145736694L188.94740518043156,57.241672850572144L189.04167165075233,58.03430736064911L189.14117217571925,54.07126152744661L189.248435911665,66.29763392301706L189.3435849123677,42.70961550565866L189.82355154389882,68.87607666162344L190.0156375289352,44.4696154158849L190.119791395916,74.9241432776818L190.76624681092923,53.62043091884027L190.98381920366236,46.257115602493286L191.5469156125992,38.335846754220825L191.99693351831183,33.81484549779159L192.23839153852512,30.537692537674534L192.71347941984953,56.87067747116089L192.8871124968998,47.529308452056L192.90470579737104,49.294384709344456L193.29722551153276,53.942307692307686L193.3529433604084,72.3948925275069L193.4613838035301,66.64404465601996L193.6897490461723,30.250845689039974L193.92139607928243,66.28938482357904L194.14092455667162,56.284461468458176L194.17800611462468,59.04280213209299L194.28115901641038,47.25346141136609L195.20701743758266,63.46153846153845L195.62268542700068,52.266655845137734L195.7963949136078,41.32361473945471L196.14372219535383,52.173000215910946L196.21650993923612,44.08673093869135L196.64339485160383,50.13438463640901L196.8166267784805,63.45899957876939L198.10376868696264,50.645692426926246L198.25248460751487,47.50730770138594L198.59626648582173,41.684076327544L198.78171630084324,71.49395530040448L198.83625362206516,67.99450484605936L198.94099202215608,50.769230769230774L198.96938199301422,55.16330755673923L199.31358794436179,76.5231915620657L199.41360423383762,79.91330816195563L200.00479261636076,48.60784624058467L200.29539344308037,49.104507806209426L200.75076001777447,63.46153846153845L200.87223211082178,58.60753882389802L200.97032287946428,67.93600009037897L201.16119777302416,65.32375299013577L201.29940737950562,67.47332274913788L202.0226505787037,51.336576881317L202.06424030051255,49.399730944289615L202.1106285424934,41.70501984082736L202.41504803757442,43.85530678125528L202.83172463314318,57.044670375493865L203.14851101500497,61.94734529807017L203.176438708044,71.92307641872992L203.2203321779927,57.664115405999695L203.41235321490575,71.73438507776993L203.65932036416996,67.15690351449527L204.03454477513228,54.931038365914276L204.44565111400462,40.82506168347138L204.6321248170883,39.71169274586898L204.84840588831017,66.63461538461539L204.94130080708499,81.43130889305701L205.23893895399306,101.06630802154541L205.38142367518188,69.73774442305933L205.485080880043,129.15522997195905L205.58692717840609,53.83188444834489L205.68040280981316,89.33759863560016L205.85446378038196,51.56461542042402L206.11213972904264,50.64687675975549L206.67776529431217,47.657711540277184L206.9548263475529,67.69484556638278L207.2037495814732,90.26007854021512L208.19394484953705,38.94761537130063L208.37657515190972,57.42444214912561L208.54191397156083,35.66284651939685L208.7842468812004,159.36131990872897L209.14669561425262,89.6965373479403L209.19546019345236,80.22300041638889L209.3931431785301,68.72376941717587L209.48190816075564,84.913569688797L209.77738009672618,76.59807801246643L209.8781222769924,49.6604871033476L210.15099990699403,59.04715363795941L210.5000769675926,54.48469241078084L210.79276377521495,271.46025070777307L211.00411260954036,56.56149246371709L211.2733798879795,61.648351756425996L211.8052668134094,-69.84898017002985L212.00136047970403,54.420173317193985L212.39838453724374,46.15977486738791L212.52985864128638,49.10146129819063L212.64310906601355,40.97838417841837L212.6826701140873,32.2854243333523L212.76950193452382,42.46761519175309L213.1080650400959,66.63969315015353L213.93886233155587,50.77729412072446L214.0184658079117,60.73396132542536L214.06284829902447,43.98900059553293L214.25509474413028,46.34426941092198L214.31201986400464,54.44873083096284L214.50056808655754,49.79215363183846L214.59624049272486,40.842153750933136L214.954677724041,54.50226259919313L214.98279262049437,66.0000006052164L215.1416251663773,57.11538461538461L215.34579150235615,81.90549291097201L215.9616334284061,50.44331436546949L216.22099038731812,45.555230264480294L216.35895930369543,51.693230807208096L216.79483762090774,49.16686438597165L216.85035298445766,47.84263843527208L217.20163064029433,57.11538461538461L217.24100066447585,67.99523110573108L217.9278499917328,57.637672745264496L218.17596710482803,53.01238457170817L218.29544872891864,45.472912135032516L218.40504677682705,47.302780116979896L218.54640063657408,50.769230769230774L218.69356926359956,53.63176926970482L219.1941893983548,69.0467885365853L219.46697533688823,87.67338367608878L219.58090198619377,50.769230769230774L220.13726289269178,58.139654352114746L220.21534963934357,52.48624594165728L220.49849289331183,52.24915421639497L220.84312673817792,47.37403829510396L222.14694885292658,50.769230769230774L222.18635708188657,50.22853838709685L222.2907287161045,57.11538461538461L222.42223720444775,52.69338465653934L222.52266610553076,41.42346107042752L223.6321787171379,63.17088480179126L223.76506257750498,94.56023179567777L223.9631314308449,-75.93358369973988L224.0278923507771,49.600269396144604L224.0593043196098,60.209769789989174L224.53994717571925,69.84830535375156L224.75199133701224,47.52507685468748L224.81943423239088,337.9895584399883L224.92363394510582,48.54363486170769L225.34334400008265,67.60278458778674L225.5291796833664,52.71876932336733L225.68927298693785,62.493369258367096L225.9212562220982,59.62439995545608L226.34768649760252,48.89149452058169L226.542706609623,50.89996148187381L226.65500573536707,56.84630805483232L226.72685364169973,47.278592265569245L227.4113801184276,49.077346261877274L227.5082368727265,57.43726138885205L227.65069867104827,60.914953557344575L228.27283292410712,51.900750335592484L228.47482158771496,53.53412252206069L228.7103693287037,72.33092266779678L228.82268755683697,47.54944627101605L229.34396119481647,59.5842203956384L229.42792001591437,68.08266671804282L229.5359822317295,55.00676909318338L230.20780179914848,19.15776784603412L230.4973978401951,49.59201925649092L230.9816548683449,42.745788532954L231.28890533750825,54.86513597460893L231.62365560619213,54.46087903701343L231.78977762380123,68.09232748471774L231.89420656518683,66.88380718231201L232.93918366505457,45.744346013435944L232.9950123077877,48.0543461556618L233.02487316261576,40.81338554620743L233.32671765562995,50.82988667319744L233.40643956679892,53.84330752950448L233.7088609519676,72.5289237499237L233.91752781084654,56.61276904436258L234.23175447255292,53.67449981661943L234.32813366712136,50.84429669229743L234.37856397466106,59.506252637276276L234.67628235160385,68.45977100042197L234.7006378978588,48.96523049244513L234.9084222263558,50.769230769230774L235.494934343998,57.03351888519067L235.78028965463787,57.80923041013571L236.07490198309358,66.54407652524802L236.27250473813658,43.67338478565216L236.39711726397155,49.59815378659047L236.85117723524306,39.90292296959803L237.0666369037285,50.1456155613638L237.24697109891702,56.81940013399492L237.39993921130952,48.59757704230455L237.67156372457836,78.54507730557367L237.8860377097801,60.04561619116709L238.00644388950894,60.29535117057654L238.13669162016367,60.90389701036307L238.4346812510334,50.26344216213777L238.6137546885334,41.42183455137106L238.6709357804233,59.753354168855225L238.76969131221065,50.3993964360024L239.19429157882772,339.72810305081885L239.24978019903273,54.212769820139954L239.83184910094243,70.2516412276488L239.91687765583663,55.558219953225205L239.9536382936508,71.3916918864617L240.302039129671,54.8485382932883L240.4651620721726,55.096990213944366L240.50293131613756,49.14751656353474L240.59806121445106,46.23404551010865L240.6595021391369,51.68815389275551L240.8354771691055,43.30298100526517L240.9286700851521,51.95469251618936L242.04877688182043,66.52461579212775L242.2005912099041,75.33773151727823L242.8835818545387,49.82943600186934L242.9906736689815,45.95546213480142L243.23552809399803,43.84374412206503L243.27454663421793,193.4485354790321L243.3617146567047,60.00125307303208L243.79983559441135,49.22330771787808L244.04834239624668,52.367827032621086L244.3856180007854,50.67446151228908L245.94830423280425,59.086681077113525L246.28074693287036,69.16901501325461L246.84461125785384,52.814059320550705L247.1062299396495,53.942307692307686L247.550498026207,45.02003854283919L247.65164135664685,53.01143892109394L248.13708273292823,50.625807687711834L248.18381863839286,61.55406585106482L248.20998127066798,64.54495448332565L248.31662226872518,57.07005504232186L248.41315810288523,-29.830413965078495L248.50429560185185,54.98815452823271L248.55469534556877,47.606307296798775L248.6645722883598,45.514333523236786L248.75526279141866,48.39323064455618L249.68415849247685,67.6923081966547L249.98978143807872,58.358948459992035L250.25429986255787,84.72030896406909L250.3873976696842,71.08707739756659L250.54013273292824,51.2989231542899L250.82574401558367,41.78688443624057L251.35818491030093,43.522769121023316L251.87375457485948,58.17702570786844L252.06236774553574,85.30093844120319L252.10000709325396,96.91592161472028L252.53031515376983,53.35197432683065L252.86819439380787,47.73551551195291L253.59758474185682,59.820539240653694L253.66942882771164,49.39874359048329L254.02819462012235,85.84823259940515L254.24547665653935,68.22115384615384L254.4042251519097,58.028215857652526L254.68725379154264,57.23525680028476L254.84020662202383,52.085846123787064L255.26873816034228,25.660462425305298L255.45471520130621,53.70961560652807L255.76061704179065,25.271836335842433L256.0907865575397,68.80246267868921L256.3917255973049,48.42496157265626L256.6019512111442,55.180295980893646L256.8866608610285,51.04435166845528L257.23534441240906,39.32330798644286L257.44037799685844,41.67392382254968L257.9308738653274,52.63753831386566L258.12374686879957,72.50734627246857L258.77484034391534,59.887384634751534L259.219081687128,36.69261464705835L259.36620828889716,33.368923572393555L259.44907445333166,48.28407703110804L259.5261143890542,38.75913509955774L259.6924312510334,40.4412470643337L259.76913498470566,43.342961600193604L259.80707232969576,31.41219391272619L260.451888759714,57.11538461538461L260.73040541501325,56.39636560128286L260.77443642216434,83.36053903286273L260.8761069785466,73.03746136335226L261.15603721064815,39.95199996691483L261.23350886036707,41.96267332022006L261.35702490906084,57.337923439649444L261.6383954613095,137.15916835344754L261.8401892805473,44.574537999354874L262.3359192036624,54.27928839738553L262.79896493882273,73.04169333898105L263.1335127221809,40.76938480138779L263.3311804253472,51.464769042168676L263.4711550925926,47.029061546692475L263.8571074053406,38.71052336234313L264.01089309999173,49.52777373962678L264.6409624855324,-13.623197078704834L264.8966517857143,60.95549095135468L264.9462950748181,56.9686154791942L265.93061826843586,50.22882042739254L265.96299299768515,42.77878871330847L266.16600554935513,78.26923177792474L266.50943976417824,71.26621993688437L266.5992630187665,99.00761604309082L266.97189332527284,54.28500012709544L267.15847782221397,52.14967035330258L267.1953492538856,46.88474996731832L267.84138059585814,53.942307692307686L267.87605143229166,59.86876969154065L267.9337062634342,52.49320876712983L267.9753189081101,43.39195386721537L268.27565813285383,65.85901847252478L268.4321487258185,52.62611561096631L268.4917711030506,64.13507622021896L268.6132470165757,62.07934601948812L268.71588797433037,65.61263033976923L269.1988192966683,49.321673065423965L269.3444024253886,54.32307693820733L269.43477582878637,45.49707729082841L269.5356899305555,33.641868600478546L270.13992142443783,50.10741822708112L271.07288211392193,48.620422826363495L271.35150574260086,45.538588704971176L271.396075437128,47.67202566449458L271.83232816116896,49.11576918111398L272.1063633959573,40.521461688555206L272.36031437872026,67.16938458956204L272.5073301866319,51.44023063807533L272.81744601417824,82.98027552091159L272.89500553488756,-30.746233463287354L273.1176820860202,81.83057014758771L273.5085169694527,35.025691344187805L273.5658432395007,42.267922529807464L273.5990890376984,38.70307768766696L274.09401666046625,49.8363463437328L274.9058452794312,77.24221284572894L275.1671468615658,59.23076948294272L275.4328496341766,41.57289202396686L275.6794156332672,24.89920460260831L275.7525204768105,45.98930772680503L275.8517573888062,42.854307614839996L275.9780623863261,52.78096173818295L276.6058815104167,81.49561616090628L276.81637073722715,74.7156265607247L276.86719837446265,68.38615399140579L277.12780845010747,57.689076799612785L277.23161465360454,61.13250010288678" style="fill: none;" fill="none"></path></g></g></g></g></g></g><g transform="translate(41, 165)" clip-path="url(#clip_1)"><clipPath id="clip_1"><rect width="288" height="35"></rect></clipPath><g><g visibility="inherit"><g><g transform="translate(0,0)" style="visibility: inherit;"><text transform="translate(3,14)" style="text-anchor: start; font-family: Roboto, sans-serif; font-size: 12px; font-weight: 200;" fill="rgb(255, 255, 255)" stroke="none" stroke-width="1px">03 PM</text></g><g transform="translate(41.261160714285715,0)" style="visibility: inherit;"><text transform="translate(3,14)" style="text-anchor: start; font-family: Roboto, sans-serif; font-size: 12px; font-weight: 200;" fill="rgb(255, 255, 255)" stroke="none" stroke-width="1px">06 PM</text></g><g transform="translate(123.78348214285714,0)" style="visibility: inherit;"><text transform="translate(3,14)" style="text-anchor: start; font-family: Roboto, sans-serif; font-size: 12px; font-weight: 200;" fill="rgb(255, 255, 255)" stroke="none" stroke-width="1px">12 AM</text></g><g transform="translate(206.30580357142858,0)" style="visibility: inherit;"><text transform="translate(3,14)" style="text-anchor: start; font-family: Roboto, sans-serif; font-size: 12px; font-weight: 200;" fill="rgb(255, 255, 255)" stroke="none" stroke-width="1px">06 AM</text></g><g transform="translate(288.828125,0)" style="visibility: hidden;"><text transform="translate(3,14)" style="text-anchor: start; font-family: Roboto, sans-serif; font-size: 12px; font-weight: 200;" fill="rgb(255, 255, 255)" stroke="none" stroke-width="1px">12 PM</text></g></g><g><line x1="0" y1="0" x2="0" y2="17" fill="rgb(0, 0, 0)" stroke="rgb(204, 204, 204)" stroke-width="1px"></line><line x1="41.261160714285715" y1="0" x2="41.261160714285715" y2="17" fill="rgb(0, 0, 0)" stroke="rgb(204, 204, 204)" stroke-width="1px"></line><line x1="123.78348214285714" y1="0" x2="123.78348214285714" y2="17" fill="rgb(0, 0, 0)" stroke="rgb(204, 204, 204)" stroke-width="1px"></line><line x1="206.30580357142858" y1="0" x2="206.30580357142858" y2="17" fill="rgb(0, 0, 0)" stroke="rgb(204, 204, 204)" stroke-width="1px"></line><line x1="288.828125" y1="0" x2="288.828125" y2="17" fill="rgb(0, 0, 0)" stroke="rgb(204, 204, 204)" stroke-width="1px"></line></g><line x1="0" y1="0" x2="288.828125" y2="0" style="visibility: inherit;" fill="rgb(0, 0, 0)" stroke="rgb(204, 204, 204)" stroke-width="1px"></line></g><g visibility="inherit"><g><g transform="translate(61.89174107142857,0)" style="visibility: inherit;"><text transform="translate(0,31)" style="text-anchor: middle; font-family: Roboto, sans-serif; font-size: 12px; font-weight: 200;" fill="rgb(255, 255, 255)" stroke="none" stroke-width="1px">May 30, 2024</text></g><g transform="translate(206.30580357142858,0)" style="visibility: inherit;"><text transform="translate(0,31)" style="text-anchor: middle; font-family: Roboto, sans-serif; font-size: 12px; font-weight: 200;" fill="rgb(255, 255, 255)" stroke="none" stroke-width="1px">May 31, 2024</text></g></g><g><line x1="0" y1="17" x2="0" y2="34" fill="rgb(0, 0, 0)" stroke="rgb(204, 204, 204)" stroke-width="1px"></line><line x1="123.78348214285714" y1="17" x2="123.78348214285714" y2="34" fill="rgb(0, 0, 0)" stroke="rgb(204, 204, 204)" stroke-width="1px"></line><line x1="288.828125" y1="17" x2="288.828125" y2="34" fill="rgb(0, 0, 0)" stroke="rgb(204, 204, 204)" stroke-width="1px"></line></g><line x1="0" y1="17" x2="288.828125" y2="17" style="visibility: inherit;" fill="rgb(0, 0, 0)" stroke="rgb(204, 204, 204)" stroke-width="1px"></line></g></g></g></g></g></svg>