<svg viewBox="0 0 330.0000305175781 200.00001525878906" xmlns="http://www.w3.org/2000/svg"><g><g><g><g><g><line x1="72.34375" y1="177" x2="67.34375" y2="177" style="visibility: inherit;" fill="rgb(0, 0, 0)" stroke="rgb(204, 204, 204)" stroke-width="1px"></line><line x1="72.34375" y1="163.3846153846154" x2="67.34375" y2="163.3846153846154" style="visibility: inherit;" fill="rgb(0, 0, 0)" stroke="rgb(204, 204, 204)" stroke-width="1px"></line><line x1="72.34375" y1="149.76923076923077" x2="67.34375" y2="149.76923076923077" style="visibility: inherit;" fill="rgb(0, 0, 0)" stroke="rgb(204, 204, 204)" stroke-width="1px"></line><line x1="72.34375" y1="136.15384615384613" x2="67.34375" y2="136.15384615384613" style="visibility: inherit;" fill="rgb(0, 0, 0)" stroke="rgb(204, 204, 204)" stroke-width="1px"></line><line x1="72.34375" y1="122.53846153846153" x2="67.34375" y2="122.53846153846153" style="visibility: inherit;" fill="rgb(0, 0, 0)" stroke="rgb(204, 204, 204)" stroke-width="1px"></line><line x1="72.34375" y1="108.92307692307693" x2="67.34375" y2="108.92307692307693" style="visibility: inherit;" fill="rgb(0, 0, 0)" stroke="rgb(204, 204, 204)" stroke-width="1px"></line><line x1="72.34375" y1="95.3076923076923" x2="67.34375" y2="95.3076923076923" style="visibility: inherit;" fill="rgb(0, 0, 0)" stroke="rgb(204, 204, 204)" stroke-width="1px"></line><line x1="72.34375" y1="81.6923076923077" x2="67.34375" y2="81.6923076923077" style="visibility: inherit;" fill="rgb(0, 0, 0)" stroke="rgb(204, 204, 204)" stroke-width="1px"></line><line x1="72.34375" y1="68.07692307692307" x2="67.34375" y2="68.07692307692307" style="visibility: inherit;" fill="rgb(0, 0, 0)" stroke="rgb(204, 204, 204)" stroke-width="1px"></line><line x1="72.34375" y1="54.46153846153847" x2="67.34375" y2="54.46153846153847" style="visibility: inherit;" fill="rgb(0, 0, 0)" stroke="rgb(204, 204, 204)" stroke-width="1px"></line><line x1="72.34375" y1="40.84615384615384" x2="67.34375" y2="40.84615384615384" style="visibility: inherit;" fill="rgb(0, 0, 0)" stroke="rgb(204, 204, 204)" stroke-width="1px"></line><line x1="72.34375" y1="27.230769230769234" x2="67.34375" y2="27.230769230769234" style="visibility: inherit;" fill="rgb(0, 0, 0)" stroke="rgb(204, 204, 204)" stroke-width="1px"></line><line x1="72.34375" y1="13.615384615384606" x2="67.34375" y2="13.615384615384606" style="visibility: inherit;" fill="rgb(0, 0, 0)" stroke="rgb(204, 204, 204)" stroke-width="1px"></line><line x1="72.34375" y1="0" x2="67.34375" y2="0" style="visibility: inherit;" fill="rgb(0, 0, 0)" stroke="rgb(204, 204, 204)" stroke-width="1px"></line></g><g transform="translate(62.34375, 0)"><text x="0" y="177" dx="0em" dy="0.3em" style="text-anchor: end; visibility: hidden; font-family: Roboto, sans-serif; font-size: 12px; font-weight: 200;" fill="rgb(255, 255, 255)" stroke="none" stroke-width="1px">1.1e+3</text><text x="0" y="163.3846153846154" dx="0em" dy="0.3em" style="text-anchor: end; visibility: inherit; font-family: Roboto, sans-serif; font-size: 12px; font-weight: 200;" fill="rgb(255, 255, 255)" stroke="none" stroke-width="1px">1.2e+3</text><text x="0" y="149.76923076923077" dx="0em" dy="0.3em" style="text-anchor: end; visibility: hidden; font-family: Roboto, sans-serif; font-size: 12px; font-weight: 200;" fill="rgb(255, 255, 255)" stroke="none" stroke-width="1px">1.3e+3</text><text x="0" y="136.15384615384613" dx="0em" dy="0.3em" style="text-anchor: end; visibility: inherit; font-family: Roboto, sans-serif; font-size: 12px; font-weight: 200;" fill="rgb(255, 255, 255)" stroke="none" stroke-width="1px">1.4e+3</text><text x="0" y="122.53846153846153" dx="0em" dy="0.3em" style="text-anchor: end; visibility: hidden; font-family: Roboto, sans-serif; font-size: 12px; font-weight: 200;" fill="rgb(255, 255, 255)" stroke="none" stroke-width="1px">1.5e+3</text><text x="0" y="108.92307692307693" dx="0em" dy="0.3em" style="text-anchor: end; visibility: inherit; font-family: Roboto, sans-serif; font-size: 12px; font-weight: 200;" fill="rgb(255, 255, 255)" stroke="none" stroke-width="1px">1.6e+3</text><text x="0" y="95.3076923076923" dx="0em" dy="0.3em" style="text-anchor: end; visibility: hidden; font-family: Roboto, sans-serif; font-size: 12px; font-weight: 200;" fill="rgb(255, 255, 255)" stroke="none" stroke-width="1px">1.7e+3</text><text x="0" y="81.6923076923077" dx="0em" dy="0.3em" style="text-anchor: end; visibility: inherit; font-family: Roboto, sans-serif; font-size: 12px; font-weight: 200;" fill="rgb(255, 255, 255)" stroke="none" stroke-width="1px">1.8e+3</text><text x="0" y="68.07692307692307" dx="0em" dy="0.3em" style="text-anchor: end; visibility: hidden; font-family: Roboto, sans-serif; font-size: 12px; font-weight: 200;" fill="rgb(255, 255, 255)" stroke="none" stroke-width="1px">1.9e+3</text><text x="0" y="54.46153846153847" dx="0em" dy="0.3em" style="text-anchor: end; visibility: inherit; font-family: Roboto, sans-serif; font-size: 12px; font-weight: 200;" fill="rgb(255, 255, 255)" stroke="none" stroke-width="1px">2e+3</text><text x="0" y="40.84615384615384" dx="0em" dy="0.3em" style="text-anchor: end; visibility: hidden; font-family: Roboto, sans-serif; font-size: 12px; font-weight: 200;" fill="rgb(255, 255, 255)" stroke="none" stroke-width="1px">2.1e+3</text><text x="0" y="27.230769230769234" dx="0em" dy="0.3em" style="text-anchor: end; visibility: inherit; font-family: Roboto, sans-serif; font-size: 12px; font-weight: 200;" fill="rgb(255, 255, 255)" stroke="none" stroke-width="1px">2.2e+3</text><text x="0" y="13.615384615384606" dx="0em" dy="0.3em" style="text-anchor: end; visibility: hidden; font-family: Roboto, sans-serif; font-size: 12px; font-weight: 200;" fill="rgb(255, 255, 255)" stroke="none" stroke-width="1px">2.3e+3</text><text x="0" y="0" dx="0em" dy="0.3em" style="text-anchor: end; visibility: hidden; font-family: Roboto, sans-serif; font-size: 12px; font-weight: 200;" fill="rgb(255, 255, 255)" stroke="none" stroke-width="1px">2.4e+3</text></g><line x1="72.34375" y1="0" x2="72.34375" y2="177" fill="rgb(0, 0, 0)" stroke="rgb(204, 204, 204)" stroke-width="1px"></line></g></g><g transform="translate(72, 0)" clip-path="url(#clip_0)"><clipPath id="clip_0"><rect width="257" height="176"></rect></clipPath><g><g><g><line x1="0" y1="0" x2="0" y2="177" fill="rgb(0, 0, 0)" stroke="rgb(189, 189, 189)" stroke-width="1px" opacity="0.25"></line><line x1="23.423295454545457" y1="0" x2="23.423295454545457" y2="177" fill="rgb(0, 0, 0)" stroke="rgb(189, 189, 189)" stroke-width="1px" opacity="0.25"></line><line x1="46.846590909090914" y1="0" x2="46.846590909090914" y2="177" fill="rgb(0, 0, 0)" stroke="rgb(189, 189, 189)" stroke-width="1px" opacity="0.25"></line><line x1="70.26988636363636" y1="0" x2="70.26988636363636" y2="177" fill="rgb(0, 0, 0)" stroke="rgb(189, 189, 189)" stroke-width="1px" opacity="0.25"></line><line x1="93.69318181818183" y1="0" x2="93.69318181818183" y2="177" fill="rgb(0, 0, 0)" stroke="rgb(189, 189, 189)" stroke-width="1px" opacity="0.25"></line><line x1="117.11647727272727" y1="0" x2="117.11647727272727" y2="177" fill="rgb(0, 0, 0)" stroke="rgb(189, 189, 189)" stroke-width="1px" opacity="0.25"></line><line x1="140.53977272727272" y1="0" x2="140.53977272727272" y2="177" fill="rgb(0, 0, 0)" stroke="rgb(189, 189, 189)" stroke-width="1px" opacity="0.25"></line><line x1="163.9630681818182" y1="0" x2="163.9630681818182" y2="177" fill="rgb(0, 0, 0)" stroke="rgb(189, 189, 189)" stroke-width="1px" opacity="0.25"></line><line x1="187.38636363636365" y1="0" x2="187.38636363636365" y2="177" fill="rgb(0, 0, 0)" stroke="rgb(189, 189, 189)" stroke-width="1px" opacity="0.25"></line><line x1="210.8096590909091" y1="0" x2="210.8096590909091" y2="177" fill="rgb(0, 0, 0)" stroke="rgb(189, 189, 189)" stroke-width="1px" opacity="0.25"></line><line x1="234.23295454545453" y1="0" x2="234.23295454545453" y2="177" fill="rgb(0, 0, 0)" stroke="rgb(189, 189, 189)" stroke-width="1px" opacity="0.25"></line><line x1="257.65625" y1="0" x2="257.65625" y2="177" fill="rgb(0, 0, 0)" stroke="rgb(189, 189, 189)" stroke-width="1px" opacity="0.25"></line></g><g><line x1="0" y1="177" x2="257.65625" y2="177" fill="rgb(0, 0, 0)" stroke="rgb(189, 189, 189)" stroke-width="1px" opacity="0.25"></line><line x1="0" y1="163.3846153846154" x2="257.65625" y2="163.3846153846154" fill="rgb(0, 0, 0)" stroke="rgb(189, 189, 189)" stroke-width="1px" opacity="0.25"></line><line x1="0" y1="149.76923076923077" x2="257.65625" y2="149.76923076923077" fill="rgb(0, 0, 0)" stroke="rgb(189, 189, 189)" stroke-width="1px" opacity="0.25"></line><line x1="0" y1="136.15384615384613" x2="257.65625" y2="136.15384615384613" fill="rgb(0, 0, 0)" stroke="rgb(189, 189, 189)" stroke-width="1px" opacity="0.25"></line><line x1="0" y1="122.53846153846153" x2="257.65625" y2="122.53846153846153" fill="rgb(0, 0, 0)" stroke="rgb(189, 189, 189)" stroke-width="1px" opacity="0.25"></line><line x1="0" y1="108.92307692307693" x2="257.65625" y2="108.92307692307693" fill="rgb(0, 0, 0)" stroke="rgb(189, 189, 189)" stroke-width="1px" opacity="0.25"></line><line x1="0" y1="95.3076923076923" x2="257.65625" y2="95.3076923076923" fill="rgb(0, 0, 0)" stroke="rgb(189, 189, 189)" stroke-width="1px" opacity="0.25"></line><line x1="0" y1="81.6923076923077" x2="257.65625" y2="81.6923076923077" fill="rgb(0, 0, 0)" stroke="rgb(189, 189, 189)" stroke-width="1px" opacity="0.25"></line><line x1="0" y1="68.07692307692307" x2="257.65625" y2="68.07692307692307" fill="rgb(0, 0, 0)" stroke="rgb(189, 189, 189)" stroke-width="1px" opacity="0.25"></line><line x1="0" y1="54.46153846153847" x2="257.65625" y2="54.46153846153847" fill="rgb(0, 0, 0)" stroke="rgb(189, 189, 189)" stroke-width="1px" opacity="0.25"></line><line x1="0" y1="40.84615384615384" x2="257.65625" y2="40.84615384615384" fill="rgb(0, 0, 0)" stroke="rgb(189, 189, 189)" stroke-width="1px" opacity="0.25"></line><line x1="0" y1="27.230769230769234" x2="257.65625" y2="27.230769230769234" fill="rgb(0, 0, 0)" stroke="rgb(189, 189, 189)" stroke-width="1px" opacity="0.25"></line><line x1="0" y1="13.615384615384606" x2="257.65625" y2="13.615384615384606" fill="rgb(0, 0, 0)" stroke="rgb(189, 189, 189)" stroke-width="1px" opacity="0.25"></line><line x1="0" y1="0" x2="257.65625" y2="0" fill="rgb(0, 0, 0)" stroke="rgb(189, 189, 189)" stroke-width="1px" opacity="0.25"></line></g></g></g><g><g><line x1="0" y1="326.7692307692308" x2="257.65625" y2="326.7692307692308" fill="rgb(0, 0, 0)" stroke="rgb(153, 153, 153)" stroke-width="1.5px"></line></g></g><g><g><line x1="23.423295454545457" y1="0" x2="23.423295454545457" y2="177" fill="rgb(0, 0, 0)" stroke="rgb(153, 153, 153)" stroke-width="1.5px"></line></g></g><g><g><g><g><g><path stroke="rgb(204, 51, 17)" stroke-width="2px" d="M23.563835227272726,163.3846153846154L23.86833806818182,163.3846153846154L24.008877840909093,163.3846153846154L24.383650568181817,163.3846153846154L24.43049715909091,163.3846153846154L24.500767045454545,163.3846153846154L24.758423295454545,163.38461538461542L25.10977272727273,163.38461538461542L25.180042613636363,163.3846153846154L25.648508522727273,163.3846153846154L25.835894886363636,163.38461538461542L25.92958806818182,163.38461538461542L26.398053977272728,163.3846153846154L27.077329545454546,163.36341115541813L27.147599431818183,163.35085223655312L27.358409090909092,163.34452431787423L27.616065340909092,163.34078190347273L27.73318181818182,163.31230064706455L27.780028409090907,163.29534006686868L27.897144886363638,163.28560982168776L28.810653409090907,163.2612298413633L28.927769886363638,163.24678834574615L29.279119318181817,163.23827647838797L29.41965909090909,163.2331295119834L29.536775568181817,163.22999481065781L29.70073863636364,163.2280475140826L29.84127840909091,163.2268658419757L30.286321022727275,163.2261701357678L30.66109375,163.2257527123165L30.70794034090909,163.22550225834414L30.895326704545454,163.22535198599613L31.17640625,163.22526182260015L31.38721590909091,163.2252077245671L31.574602272727272,163.22517526574893L31.949375,163.22515579045864L32.04306818181818,163.22514410528467L33.33134943181818,163.2002930059857L33.35477272727273,163.18541558719005L33.75296875,163.1784303919619L33.823238636363634,163.17447860776804L33.893508522727274,163.17277235095756L34.24485795454546,163.17229374410792L34.31512784090909,163.17197998745024L34.338551136363634,163.17178508531865L34.57278409090909,163.17164155149166L34.970980113636365,163.17150224609935L35.01782670454545,163.1714186628639L35.50971590909091,163.17136851292267L35.931335227272726,163.17133842295792L36.071875000000006,163.17132036897908L36.75115056818182,163.12229947048576L37.00880681818182,163.0955661306087L37.17276988636364,163.08003803323297L37.336732954545454,163.07084084127393L37.360156249999996,163.06532252609847L37.73492897727272,163.061925111212L38.20339488636364,163.01144833595794L38.25024147727272,162.98134177050503L38.53132102272727,162.94141875671409L38.69528409090909,162.9185951317328L38.71870738636364,162.90533973378726L38.765553977272724,162.89770560559688L38.835823863636364,162.8936370352331L38.882670454545455,162.89141528153652L39.16375,162.86475947541228L39.42140625,162.85003578590846L39.725909090909084,162.81580568879266L39.843025568181815,162.7959590367732L40.45203125,162.785254358362L40.545724431818186,162.77903764356284L40.63941761363636,162.77529431840935L40.66284090909091,162.77315469350953L40.826803977272725,162.77187756670665L41.06103693181819,162.77107804993986L41.15473011363636,162.77059169174277L41.24842329545454,162.7702998768245L41.365539772727274,162.7701114915995L41.459232954545456,162.7699984604645L41.67004261363636,162.76993064178353L41.763735795454544,162.76988995057494L41.834005681818184,162.76986553584976L41.904275568181816,162.76985088701468L42.06823863636363,162.76984209771362L42.18535511363636,162.769836824133L42.23220170454546,162.76983365998464L42.37274147727273,162.7698317614956L42.41958806818182,162.74267963081562L42.51328125,162.72664098161437L42.60697443181818,162.71730366198545L42.74751420454546,162.7121533435254L42.7709375,162.7091761707787L43.33309659090909,162.7087460870826L43.426789772727275,162.70848138872793L44.19975852272727,162.7083890510853L44.363721590909094,162.70833364849975L44.50426136363637,162.70830040694838L44.832187499999996,162.7082804620176L44.92588068181818,162.70826849505912L45.08984375,162.70826131488403L45.13669034090909,162.70825700677895L45.277230113636364,162.70825442191594L45.324076704545455,162.7082528709981L45.65200284090909,162.70825194044744L45.67542613636364,162.70825138211703L45.909659090909095,162.70050596749135L45.97992897727273,162.67742343476164L46.19073863636364,162.66518941241947L46.28443181818182,162.6583808499757L46.378125,162.6544020827018L46.58893465909091,162.65287908014992L46.61235795454545,162.65211818577023L46.752897727272725,162.65195416717128L46.776321022727274,162.65190229297102L46.8934375,162.65192435354703L47.338480113636365,162.65194423802967L47.40875,162.6519428724452L47.61955965909091,162.65191546054643L48.36910511363636,162.57464766124372L48.67360795454545,162.53087975509962L48.814147727272726,162.5047852148386L48.88441761363636,162.48912184254496L48.93126420454546,162.48028226267843L49.02495738636363,162.47550371758302L49.18892045454545,162.44614376450414L49.306036931818184,162.41772457000056L49.56369318181819,162.3861867627335L49.70423295454545,162.3676430221834L49.844772727272726,162.35711511018502L50.10242897727273,162.351476472962L50.24296875,162.3493830292099L51.320440340909094,162.32238537642016L51.414133522727276,162.3065524322824L51.43755681818182,162.297145739718L51.46098011363636,162.2916213906457L51.92944602272728,162.28853946599799L52.257372159090906,162.28667701493532L52.280795454545455,162.28555954429774L52.42133522727273,162.28488906191515L52.58529829545455,162.28448677248565L53.381690340909095,162.28424539882795L53.73303977272727,162.2572421010756L54.08438920454545,162.2420772317992L54.15465909090909,162.2330181990555L54.24835227272727,162.22757613127226L54.88078125,162.17195016343885L55.04474431818181,162.13965158093592L55.20870738636364,162.09600008317693L55.34924715909091,162.07098590477392L55.770866477272726,162.0577590984533L55.841136363636366,162.04992938485321L56.1690625,162.0456769818735L56.23933238636364,162.0431255400856L56.35644886363636,162.04158802687587L56.37987215909091,162.04065222267602L57.691576704545454,162.04005085133397L57.785269886363636,162.03969002852872L57.87896306818182,161.98546406970138L57.90238636363636,161.9532210124338L58.55823863636363,161.90966931118624L59.05012784090909,161.8576039079257L59.09697443181818,161.82673031350538L59.190667613636364,161.78882683744217L59.35463068181818,161.7607795384629L59.47174715909091,161.74458273209217L60.26813920454545,161.73683249682742L60.291562500000005,161.73217570753155L60.666335227272725,161.7202869825117L60.94741477272728,161.6957821654686L61.04110795454545,161.68130531190133L61.08795454545455,161.67273221809032L61.55642045454545,161.6679938981619L62.00146306818182,161.66535699845244L62.14200284090909,161.66376821048974L62.89154829545454,161.66280828957508L63.43028409090909,161.63584588119699L63.47713068181818,161.61966843617012L64.03928977272727,161.55905053586073L64.13298295454545,161.52311192458134L64.55460227272728,161.5022667566118L64.57802556818183,161.48975965583003L64.99964488636363,161.48243489506052L65.30414772727272,161.45094223210842L65.46811079545455,161.37868868662082L65.63207386363636,161.31022654580664L65.70234375,161.26998027844553L65.88973011363638,161.24805964393028L65.98342329545454,161.23519978124997L66.28792613636364,161.22881349104566L66.54558238636363,161.22517451289661L66.73296875,161.15576516446873L66.89693181818181,161.07520800943843L67.15458806818181,161.0287817317448L67.29512784090909,161.00153759373438L67.34197443181817,160.98620162775507L67.38882102272727,160.97771139882852L67.45909090909092,160.97261726147258L67.62305397727272,160.94319426764076L67.88071022727273,160.87351215102916L68.11494318181818,160.80616073863433L68.23205965909092,160.7599327713056L68.27890625,160.7132953373627L68.39602272727272,160.68537935836713L68.51313920454545,160.66905525173902L68.58340909090909,160.66016493439676L68.60683238636364,160.6555487427895L68.63025568181818,160.65277902782515L69.16899147727273,160.62553516759652L69.40322443181819,160.55750623427187L69.54376420454545,160.51861018587562L69.7779971590909,160.44401542041962L69.80142045454546,160.39925856114604L70.01223011363636,160.33630506156743L70.22303977272728,160.2594153235991L70.76177556818182,160.19652817552966L70.85546875,160.16053105045003L71.11312500000001,160.13900590490945L71.20681818181818,160.1261905396404L71.44105113636364,160.09143675467368L71.79240056818182,160.01959992089314L71.86267045454545,159.9770163753123L72.02663352272727,159.89891272482683L72.07348011363636,159.85236299697542L73.01041193181818,159.67235702594965L73.174375,159.56624151424768L73.59599431818182,159.40110169190197L73.6428409090909,159.302170705646L73.83022727272727,159.1675219621496L73.9004971590909,159.08788284375612L73.94734374999999,159.04171487001568L74.48607954545454,159.01991098330748L74.83742897727274,158.95509284899893L74.88427556818182,158.91656761594984L75.30589488636365,158.821758966505L75.39958806818181,158.75930263801598L75.58697443181819,158.72464100288173L76.03201704545454,158.67974452510643L76.17255681818182,158.54918877485952L76.73471590909091,158.4268513057811L77.03921875,158.3315897498148L77.13291193181819,158.26822345625908L77.15633522727273,158.21038558367133L77.20318181818182,158.17588230422925L77.2500284090909,158.15585844653995L77.34372159090908,158.1175839907004L77.43741477272728,158.06839241665583L77.60137784090908,158.01645995420026L77.95272727272727,157.96562863928696L78.77254261363636,157.81947885875246L78.86623579545454,157.70599421879714L79.03019886363637,157.61439562232397L79.24100852272728,157.41014589953622L79.52208806818182,157.2420097903227L79.75632102272728,157.15016959114072L79.80316761363636,157.09747209723253L79.85001420454546,157.0665516552746L79.8734375,157.04800603823688L79.96713068181818,156.9409992359229L80.03740056818182,156.87182899618114L80.22478693181817,156.72329184632645L80.31848011363637,156.5896203902478L80.64640625,156.477054385591L80.78694602272728,156.40567215959982L80.9040625,156.32302048325988L80.92748579545454,156.27498514151844L80.97433238636363,156.24804535925L81.04460227272727,156.23702714794183L81.13829545454546,156.22838189122905L81.16171875,156.20107638533838L81.32568181818182,156.13727856858281L81.39595170454545,156.07432864205114L81.51306818181818,156.04214976936532L81.95811079545454,155.87321947399903L82.19234375,155.70692229437537L82.33288352272727,155.6121234412286L82.47342329545455,155.53208866810257L82.56711647727272,155.47417537634232L82.87161931818181,155.37930829822125L82.89504261363636,155.30733002100007L83.480625,155.11854885394618L83.69143465909092,155.01494654493985L84.11305397727273,154.8534952331538L84.53467329545455,154.67852213238027L84.55809659090909,154.55544204294978L84.60494318181819,154.4824183582819L84.83917613636363,154.4143052066759L84.93286931818182,154.32361617689017L85.37791193181818,154.1316129152687L85.63556818181819,153.99481116112037L85.82295454545455,153.83574468194865L85.96349431818182,153.72121799306342L85.98691761363636,153.6531202564751L86.03376420454546,153.61392364877688L86.1040340909091,153.59182173734305L86.22115056818181,153.52618656704527L86.80673295454547,153.3709683254435L86.83015625,153.27919360043435L87.06438920454546,153.15800639463563L87.11123579545455,153.03224858587993L87.22835227272726,152.95840274978517L87.55627840909091,152.79468805912592L87.69681818181819,152.6824782125789L87.9076278409091,152.54574575416996L88.25897727272728,152.42387729024236L88.35267045454545,152.3514542662728L88.39951704545454,152.30812676649447L88.70401988636364,152.18467522606252L88.98509943181818,152.06471886009663L89.26617897727273,151.96704334280076L89.52383522727273,151.89254898494727L89.66437499999999,151.82298168964624L90.08599431818182,151.7630187688959L90.2265340909091,151.72846371776782L90.24995738636365,151.707730687091L90.46076704545455,151.6691570420623L90.60130681818181,151.6469103535427L90.74184659090909,151.58070965112802L90.85896306818182,151.5439941876119L91.39769886363636,151.4262982177955L91.5616619318182,151.3075348276124L91.67877840909091,151.18256649452417L91.98328124999999,151.06586843487557L92.14724431818182,150.97746750022824L92.49859375,150.80408901125475L92.77967329545454,150.60375700501007L92.84994318181819,150.45914584212863L93.17786931818182,150.28697717625076L93.20129261363637,150.15724298393556L93.24813920454545,150.08222792677958L93.99768465909091,149.85458792043073L94.02110795454546,149.71859560081614L94.04453124999999,149.63775144853057L94.20849431818182,149.54198335108947L94.46615056818182,149.44018606684358L94.84092329545454,149.2971295187119L94.95803977272728,149.1531376871887L95.70758522727273,148.88312769194062L96.03551136363637,148.6231946364985L96.24632102272727,148.4738231070193L96.48055397727272,148.3617760231659L96.62109375,148.26276302976493L96.71478693181818,148.18712048312338L97.18325284090909,148.09206007533078L97.23009943181818,148.03530305241L97.25352272727272,148.00149481972727L97.53460227272727,147.93444688432433L98.00306818181818,147.81715291875568L98.40126420454546,147.7015293188616L98.58865056818182,147.58155618807174L99.15080965909091,147.370998541569L99.36161931818181,147.17180702007363L99.4084659090909,147.02698929768118L99.4553125,146.9425385305318L99.54900568181817,146.89273897619165L99.57242897727272,146.86470742567897L99.85350852272727,146.85109954555162L99.92377840909091,146.8178447483646L100.13458806818181,146.726869822276L100.20485795454546,146.667857207368L100.81386363636364,146.56076942508184L100.93098011363635,146.49835164152748L100.97782670454546,146.46154584068572L101.32917613636364,146.41665925020467L101.6805255681818,146.3636599506637L102.31295454545455,146.2149595295929L102.68772727272727,146.08069814864513L102.87511363636364,145.93879895980007L102.99223011363635,145.77957260755073L103.1093465909091,145.63972031483092L103.20303977272727,145.56168589232402L103.24988636363636,145.51380818503384L103.64808238636364,145.39510567424145L104.093125,145.23158808152806L104.11654829545455,145.1334775259L104.28051136363636,145.0777757057443L104.35078125000001,145.0179083245884L104.9129403409091,144.9404835764838L104.98321022727272,144.89522539228454L105.1705965909091,144.8694931830871L105.24086647727273,144.80916563641475L105.26428977272727,144.76454591880798L105.31113636363636,144.72122687520306L105.3345596590909,144.68604772367954L105.9435653409091,144.57410673667167L106.15437499999999,144.45466784308474L106.7165340909091,144.30687668992536L106.92734374999999,144.14933394664752L107.25526988636364,143.98410536348132L107.27869318181818,143.87158551376183L107.3958096590909,143.76981575387012L107.67688920454545,143.7154086830913L108.37958806818182,143.41548273990287L108.4264346590909,143.22990285007154L108.47328125,143.1203432650309L108.66066761363636,143.01617463389834L109.05886363636364,142.87645534374045L109.1994034090909,142.7718151007755L109.71471590909091,142.66547236124657L109.78498579545455,142.6019858281061L109.90210227272728,142.5378598036545L110.15975852272727,142.42390124126723L110.20660511363637,142.303723820181L110.34714488636364,142.22707004180813L110.37056818181819,142.15720431474833L110.53453125,142.0763799806759L110.72191761363636,141.92901428648247L110.86245738636363,141.85107233390872L110.93272727272728,141.80430051422746L111.35434659090909,141.67436801887303L111.65884943181817,141.53545840146808L111.72911931818182,141.3871403879361L111.89308238636363,141.23172139472078L112.26785511363637,140.96443506790217L112.31470170454546,140.8043424935658L112.45524147727272,140.7256784754063L112.54893465909092,140.63244171565245L112.94713068181818,140.51113517662705L113.34532670454546,140.3878054674546L113.86063920454545,140.17393748720355L114.28225852272726,139.8503542666611L114.32910511363637,139.65725473998467L114.37595170454546,139.51574651135857L114.44622159090909,139.40774594617812L114.51649147727272,139.3214255875386L114.9146875,139.20708105114096L115.17234375,139.08786871031197L115.50026988636364,138.9717854915117L116.27323863636363,138.80956025223875L116.34350852272726,138.71326886618698L116.95251420454547,138.5064826914069L117.04620738636363,138.34487560492826L117.09305397727273,138.21062195250022L117.23359375,138.13800763664437L117.30386363636363,138.09512380524384L117.35071022727273,138.07003172755736L117.56151988636364,138.03308416574114L117.72548295454546,137.98726820527403L118.02998579545455,137.9649242870466L118.2173721590909,137.92745168010057L118.52187500000001,137.8409266120267L118.56872159090909,137.7760676484059L118.63899147727273,137.71198242347864L118.92007102272727,137.5058719210343L119.01376420454547,137.30652987587777L119.13088068181818,137.17057023171657L119.17772727272727,137.09259773548425L119.41196022727273,137.05862519778094L119.5056534090909,137.04092087437772L120.20835227272727,136.83322090653766L120.32546875000001,136.68630307427114L120.48943181818181,136.54879660568048L121.09843749999999,136.32288576088425L121.54348011363636,136.14868033723965L121.75428977272728,136.02184593521636L121.91825284090909,135.89507984177885L122.01194602272727,135.7944885601154L122.26960227272727,135.70383158258366L122.4335653409091,135.5560842560406L122.57410511363636,135.47321309118445L123.08941761363636,135.30612418133327L123.34707386363637,135.13137181198508L123.4641903409091,134.9768255661574L123.675,134.81407299143723L123.72184659090908,134.69026102743445L124.00292613636364,134.56762194849193L124.26058238636364,134.44768768982834L124.33085227272727,134.34967973378883L124.56508522727273,134.19592626725645L125.68940340909091,133.90605166630337L125.80651988636363,133.73372245861617L125.8299431818182,133.63038476723702L126.11102272727273,133.49495347903212L127.84434659090908,133.02484517185437L128.14884943181818,132.6117188143506L128.1722727272727,132.36407568464404L128.2191193181818,132.21854130171192L128.2659659090909,132.13480401780598L128.33623579545454,132.0618915002269L128.35965909090908,132.02311679616975L128.96866477272727,131.90911819969705L129.08578125,131.8420154285322L129.15605113636366,131.8047055386698L129.36686079545456,131.78299106659134L129.62451704545455,131.77059395636107L129.85875000000001,131.73686895644886L129.92901988636365,131.71682675247507L129.95244318181818,131.70498092979034L130.30379261363635,131.58288725829487L130.6785653409091,131.4253127335827L130.8425284090909,131.3103715343804L130.9362215909091,131.18943167964267L131.14703125,131.12231259101875L131.1938778409091,131.05685134667857L131.4046875,130.9989664645576L131.4983806818182,130.96442833125863L131.66234375,130.94539407808207L131.82630681818182,130.93626048531075L132.48215909090908,130.80240480380667L132.69296875,130.7249633900965L133.04431818181817,130.6284447182526L133.20828125,130.54985780901646L133.34882102272726,130.50428127194834L133.44251420454543,130.47787273702716L133.4659375,130.44875128644708L133.95782670454545,130.2687580585269L134.0280965909091,130.16167956468342L134.16863636363635,130.10301690347353L134.89475852272727,129.82464375085814L135.03529829545454,129.56167394582738L135.12899147727273,129.41142440205172L135.38664772727273,129.28270883293774L135.43349431818183,129.20762683972657L135.8316903409091,129.0901461909754L135.85511363636363,129.01966444986164L136.30015625000001,128.89111582736894L136.32357954545455,128.77470946036365L136.39384943181818,128.6929787711701L136.6046590909091,128.6225400045891L136.8623153409091,128.43341939788567L137.47132102272727,128.2087901829021L137.54159090909093,128.05110982188071L137.82267045454546,127.93593226933032L137.8929403409091,127.86699194122559L137.9397869318182,127.8257740033772L137.98663352272726,127.8014421288893L138.29113636363635,127.68351101050668L138.68933238636362,127.47024952246989L139.1812215909091,127.2374049718954L139.34518465909093,127.06560103602187L139.53257102272727,126.94952821476214L139.62626420454546,126.87357543997507L139.79022727272726,126.76170855274708L139.8136505681818,126.67598028489344L139.83707386363636,126.60915953511875L140.0713068181818,126.52555502846307L140.7271590909091,126.31295174454178L140.8442755681818,126.08955023091978L141.21904829545454,125.7296322193812L141.47670454545454,125.4065666288042L141.5703977272727,125.16945455059981L141.59382102272727,125.0175740975474L141.78120738636363,124.79044488671354L141.85147727272727,124.4908093373767L141.8749005681818,124.31572824064716L141.92174715909093,124.22214097083062L141.99201704545453,124.14226140791902L142.22625000000002,123.98803660737164L142.3199431818182,123.85940899116575L142.48390625000002,123.54123745449512L142.50732954545455,123.36078540388698L142.64786931818182,123.15796436883457L142.7884090909091,122.93812530098823L142.83525568181818,122.78246141857372L142.90552556818182,122.67671749868028L143.7253409090909,122.20024898628748L144.00642045454546,121.85154298402006L144.4514630681818,121.43148701336877L144.4983096590909,121.15841872544915L144.94335227272728,120.87764367066613L144.99019886363638,120.70989663659438L145.0136221590909,120.60140361446865L145.45866477272727,120.22131906922203L146.02082386363637,119.78621876274717L146.09109375,119.51227448931897L146.3955965909091,119.17588737988943L146.58298295454546,118.86739905203223L146.79379261363636,118.5779701929381L146.8640625,118.416884504585L146.91090909090912,118.30547422739043L146.93433238636362,118.20934301750397L147.26225852272728,118.13271710106729L147.44964488636364,117.86546495865721L147.96495738636364,117.58185056473762L148.1054971590909,117.33210372826564L148.19919034090907,117.17088066394257L148.3631534090909,117.06376908346165L148.66765625,116.85416056365874L148.7145028409091,116.73135387275052L148.73792613636363,116.63319141770076L148.90188920454545,116.53927155885366L149.32350852272728,116.34947823729537L149.8622443181818,115.97581964219694L149.97936079545454,115.74684447462106L150.44782670454546,115.30512760574621L150.49467329545456,115.00079369836357L150.63521306818183,114.81453023043643L151.24421875,114.4616309237186L151.36133522727272,114.16203620897876L151.6658380681818,113.86764555351228L151.75953124999998,113.64761876990787L152.1811505681818,113.43242120936057L152.36853693181817,113.14339503330865L152.90727272727273,112.7449531858506L152.9775426136364,112.4501434484695L153.0009659090909,112.24759579714663L153.0946590909091,112.09179606001877L153.11808238636365,112.00525687279007L153.21177556818182,111.89625245600577L153.7270880681818,111.6932333696371L154.26582386363637,111.26733613055632L154.57032670454547,110.87718630874247L154.94509943181816,110.4752243077815L155.20275568181816,110.15107835720495L155.57752840909092,109.72143953235182L155.90545454545455,109.28703518125003L155.92887784090908,109.00892791463943L155.99914772727274,108.77764975509376L156.39734375,108.377072575412L156.9595028409091,107.94938176640103L157.00634943181817,107.7016691364632L157.33427556818182,107.45193669071205L157.77931818181818,106.98706195433107L157.80274147727272,106.67142609988231L157.84958806818182,106.39619054574668L157.96670454545455,106.22085097107782L158.62255681818183,105.77274961509863L158.83336647727273,105.37980797218417L158.99732954545456,105.1645325447288L159.09102272727273,104.97559388831566L159.2315625,104.84667405384278L159.37210227272726,104.71495368861576L159.48921875,104.60677603678724L159.55948863636365,104.53347284863484L159.60633522727272,104.4505993341809L159.95768465909092,104.24790824083306L160.1684943181818,104.07686468608638L160.35588068181818,103.87558684800997L160.75407670454544,103.59519837533239L160.87119318181817,103.39059333409368L160.91803977272727,103.2768385350115L161.19911931818183,103.17886848308623L161.2459659090909,103.11829810307287L161.38650568181816,102.92335791833412L161.66758522727272,102.767382539462L161.78470170454545,102.50035406544401L162.01893465909092,102.3484870411294L162.25316761363635,102.12282182954542L162.90901988636364,101.7970001139532L162.95586647727274,101.54888043195368L163.0495596590909,101.35949487575874L163.4009090909091,100.98609423615238L164.36126420454545,100.20004694133081L164.43153409090908,99.70945807765906L164.52522727272728,99.40016639557379L164.8531534090909,99.04602122406303L165.1108096590909,98.63111164519503L165.27477272727273,98.2503001000978L165.67296875,97.91158706126062L165.74323863636363,97.6658444017203L165.86035511363636,97.44810140515477L165.9774715909091,97.21109871118183L166.11801136363636,97.03507137364419L166.39909090909092,96.6524071571192L166.42251420454545,96.40847524379075L166.82071022727274,96.18661320366625L166.89098011363635,96.00519726414687L167.05494318181817,95.89134165325974L167.68737215909093,95.56169002050152L167.73421875,95.33775191794992L167.89818181818183,95.1230729130897L168.31980113636362,94.76563607808218L168.36664772727272,94.54522389444547L168.53061079545455,94.39235406322982L168.74142045454545,94.29726155903165L168.9756534090909,94.13394888253438L168.99907670454544,94.03257737489324L169.2333096590909,93.82064896399845L169.3270028409091,93.66491822455292L169.35042613636364,93.55369601435918L169.79546875,93.13956428830298L169.9125852272727,92.82732297051784L169.95943181818183,92.62837718074822L170.053125,92.52769097191045L170.26393465909092,92.38283461018955L170.68555397727272,92.11867481208728L171.1540198863636,91.766272720786L171.27113636363637,91.50566184461101L171.48194602272727,91.28302668909835L171.62248579545454,91.14215923761766L171.6459090909091,91.06172737099607L171.66933238636364,91.01568208065052L171.73960227272727,90.9628185783182L171.80987215909093,90.89620440570488L172.32518465909092,90.66810692076669L172.72338068181818,90.29218807072925L172.74680397727272,90.0689170717044L172.84049715909092,89.89535816820292L172.95761363636362,89.69464533962366L173.12157670454545,89.47181638796891L173.33238636363637,89.3047453691395L173.37923295454544,89.17657393422408L173.61346590909093,89.00005538817865L173.7540056818182,88.7662939375346L173.80085227272727,88.59782902177554L173.94139204545453,88.35429379227206L173.98823863636363,88.11251925913726L174.03508522727273,87.93141498847514L174.3161647727273,87.81131098226777L174.36301136363636,87.67048689735344L174.40985795454546,87.56473170421735L174.94859375000001,86.91100379867223L175.15940340909088,86.47356637175143L175.22967329545455,86.18427203458933L175.60444602272727,85.75726180098198L175.8386789772727,85.36531399915886L175.86210227272727,85.13584941962753L175.90894886363637,84.9701554225097L176.04948863636363,84.80234963872216L176.1900284090909,84.64020414170686L176.35399147727273,84.44172554992792L176.47110795454546,84.3132711698005L176.6350710227273,84.18749428992116L176.77561079545455,83.95921408446951L177.08011363636362,83.64055237646298L177.6891193181818,82.92947103675516L178.15758522727273,82.29900364819491L178.22785511363637,81.80996525231839L178.32154829545453,81.43522885091024L178.3449715909091,81.1967051440798L178.5089346590909,80.99295991036615L178.9071306818182,80.67632789183267L179.16478693181818,80.41389728347698L179.42244318181818,80.08429205848763L179.58640624999998,79.6049138393594L179.72694602272728,79.28461131443294L180.28910511363637,78.8063006303064L181.39,77.70621382169344L181.57738636363638,77.00619313676607L181.67107954545455,76.51533152959571L181.97558238636364,76.03914757310599L182.23323863636364,75.51716240954867L182.3269318181818,75.19575421405852L182.5143181818182,74.91918930728127L182.53774147727273,74.74536567271011L182.6314346590909,74.5643586389025L182.84224431818183,74.37079122751219L182.86566761363636,74.2526297470241L183.09990056818182,74.11844924244525L183.1233238636364,74.0179965286402L183.1467471590909,73.95866228767693L183.33413352272729,73.79560366016625L183.80259943181818,73.4841438968209L184.3647585227273,72.92936013616945L184.50529829545454,72.58312047623289L184.52872159090907,72.37276396242244L184.59899147727273,72.13381759470104L184.83322443181817,71.7385186217245L185.0440340909091,71.4786491462919L185.11430397727273,71.27651626061167L185.34853693181816,70.97467977589825L185.4656534090909,70.68041329672886L186.30889204545454,70.14717421000846L186.51970170454547,69.77046231596901L186.56654829545457,69.51981048002612L186.66024147727273,69.20887351758299L186.80078125,68.87603902941997L186.87105113636363,68.6129018130847L187.03501420454546,68.38386447276672L187.22240056818183,68.2102762031913L187.29267045454546,68.07954398964313L187.48005681818182,67.90790442864166L187.57375,67.74982093242537L187.6674431818182,67.55040228752013L187.92509943181818,67.25896324000004L188.20617897727274,66.91600166695676L188.2998721590909,66.7010037570851L188.46383522727274,66.52687080893854L188.5575284090909,66.28730754395689L188.8151846590909,66.0396924440424L189.09626420454546,65.78812379725476L189.47103693181816,65.4457694481245L190.05661931818182,64.78846966917516L190.40796875,64.24357597969018L190.73589488636364,63.76320741173237L190.82958806818183,63.4478884644673L190.92328125,63.213190598211646L191.11066761363634,63.04564636764097L191.25120738636363,62.8715914338658L191.27463068181817,62.749879965487764L191.67282670454546,62.41752255561478L191.88363636363636,62.09939897507559L192.02417613636365,61.837270094179985L192.21156249999999,61.6100144753782L192.28183238636365,61.3457376515731L192.79714488636364,60.77240758493426L193.1953409090909,60.294908305467736L193.2890340909091,59.92972803616525L193.47642045454543,59.621169190989995L193.5466903409091,59.44623877420937L193.68723011363636,59.206708934597756L194.1088494318182,58.94460765492932L194.15569602272726,58.791262639832595L194.57731534090908,58.5879192801135L194.67100852272728,58.39449897642146L194.7412784090909,58.260682972090876L195.16289772727274,57.92842897646365L195.2565909090909,57.67029375156331L195.42055397727273,57.40642305832979L195.72505681818183,56.95483137406037L195.8655965909091,56.678970038378516L196.19352272727275,56.38142788390449L196.47460227272728,55.9880414508956L196.66198863636365,55.68054876627051L196.849375,55.48522998842819L197.03676136363634,55.29172475687903L197.0601846590909,55.17707755995675L197.17730113636364,55.0899071429452L197.27099431818183,54.963411683603674L197.57549715909093,54.61666265769826L197.6691903409091,54.383789098525234L197.99711647727273,54.078426629187256L198.27819602272726,53.73030210882244L198.30161931818182,53.493219351230984L198.46558238636362,53.37293514138763L198.79350852272728,53.17179740544555L198.93404829545455,52.96538038888034L199.09801136363635,52.77230312815994L199.14485795454544,52.63762924768925L199.35566761363637,52.46693545876981L199.40251420454544,52.36683938523784L199.4259375,52.308470367921544L199.87098011363636,52.077947192207255L199.94125,51.94344931742772L200.15205965909092,51.75019098468739L200.47998579545452,51.453938509081674L200.80791193181818,51.13765314451151L201.04214488636362,50.673373700108336L201.41691761363637,50.25815357703618L201.67457386363637,49.931557410644785L202.0961931818182,49.546041379980615L202.33042613636363,49.28434312726722L202.3538494318182,49.12943163507424L202.47096590909092,49.01870097323203L202.49438920454546,48.93995022636711L202.65835227272729,48.78073850270729L202.75204545454545,48.664628836299855L202.77546875000002,48.56555832641933L202.79889204545455,48.4654560144814L203.31420454545454,48.18635180880906L203.3376278409091,47.990647999347935L203.43132102272727,47.82745993843092L203.47816761363637,47.65185697267394L203.68897727272727,47.419981145743826L203.78267045454544,47.220370898984775L203.8529403409091,47.046808026169714L204.46194602272726,46.62475639022106L204.4853693181818,46.32177075119994L204.7196022727273,45.99296246574402L204.78987215909092,45.75901966694646L204.8835653409091,45.58274075148994L204.95383522727272,45.42348249175938L205.18806818181818,45.17322538748349L205.21149147727272,45.02579686109586L205.23491477272728,44.94231255175369L205.2583380681818,44.89272722456184L205.37545454545455,44.851873639424575L205.53941761363637,44.60845163257303L205.63311079545454,44.405862671250546L205.67995738636364,44.27179750058686L206.05473011363637,44.10910764698672L206.19526988636363,44.00727881595647L206.2186931818182,43.93961315796331L206.40607954545453,43.82583107085971L206.5466193181818,43.76171025609758L206.8511221590909,43.511481306903704L207.03850852272728,43.299888558781596L207.27274147727272,43.04559449344202L207.8817471590909,42.5980003258729L208.42048295454546,42.130518269442L208.5844460227273,41.691683708059415L208.72498579545456,41.39466362026833L208.7952556818182,41.14047665773795L209.54480113636365,40.70521921279181L209.56822443181818,40.4001604489491L209.96642045454544,39.99388074953773L209.98984374999998,39.75109685416977L210.22407670454547,39.556615894953836L210.2943465909091,39.42394519803L210.3411931818182,39.34701533095745L210.5988494318182,39.06540699004083L210.73938920454546,38.782519509529294L210.8096590909091,38.587098619780086L210.9033522727273,38.48158669590655L211.32497159090912,38.16035841778432L211.34839488636362,37.968485708723456L211.44208806818182,37.858853444464806L211.51235795454545,37.77281056427503L211.55920454545455,37.60953602306022L211.8871306818182,37.346338500855374L211.98082386363637,37.167026282604574L212.2619034090909,37.01237014155793L212.33217329545454,36.86796032111261L212.8240625,36.5883323074512L213.01144886363636,36.25453822161018L213.24568181818182,35.95630811926417L213.26910511363636,35.78074731146239L213.52676136363638,35.55329784601203L214.0654971590909,35.24527963909761L214.18261363636364,35.04426055689607L214.5808096590909,34.8737880799309L215.11954545454546,34.41723866827107L215.16639204545456,34.1270343818521L215.6114346590909,33.700668195217006L215.63485795454545,33.444888372058074L215.72855113636365,33.28119564342715L215.82224431818182,33.138942746633255L216.24386363636364,32.83234100855686L216.3844034090909,32.60998032628797L216.40782670454547,32.477587730027594L217.3916051136364,31.66055466626174L217.57899147727272,31.187646576800333L217.7663778409091,30.85687280184945L217.78980113636365,30.659099943128897L218.1879971590909,30.32119396527639L218.37538352272725,29.98518182387734L218.4925,29.724126897811974L218.58619318181817,29.507009191571846L218.84384943181817,29.273599370111373L219.12492897727273,28.958986695384155L219.19519886363636,28.77600296975448L219.24204545454546,28.641508257213246L219.33573863636363,28.504581486779887L219.523125,28.402108717789062L220.43663352272725,27.89981368319746L220.95194602272727,27.37048534032714L221.09248579545456,27.02400882739346L221.11590909090907,26.816707955690855L221.16275568181817,26.695904130385653L221.5375284090909,26.47628526669292L221.70149147727273,26.32919664078495L222.24022727272725,26.00687585706713L222.33392045454548,25.76305061940853L222.615,25.573156994241273L222.68526988636364,25.423267694140904L223.10688920454547,25.194082236075907L223.24742897727273,25.03799606640516L223.55193181818183,24.812099623016163L224.02039772727272,24.517737763593352L224.23120738636365,24.28570177774734L224.55913352272725,23.967632004148385L224.60598011363635,23.761419647200576L224.65282670454545,23.641508263680894L224.86363636363635,23.512786343424875L225.07444602272727,23.30082204643952L225.26183238636364,23.167434108272385L225.73029829545456,22.909656754025928L225.77714488636366,22.75822133606937L225.84741477272726,22.675018739141592L225.89426136363636,22.62852761968692L226.03480113636365,22.580342833831377L226.3158806818182,22.42895998214979L226.33930397727275,22.304344438809135L226.50326704545455,22.12682150703544L226.57353693181818,21.995403826697224L226.6906534090909,21.873327031595277L226.85461647727274,21.808444310904235L226.9014630681818,21.76044661959542L228.09605113636366,21.26028179387262L228.35370738636365,20.846739088342837L228.42397727272726,20.593973065385498L228.54109375000002,20.307475936587043L228.91586647727274,20.04518958839453L229.0095596590909,19.840589414094396L229.05640625,19.718334567927773L229.10325284090908,19.629611167439357L229.17352272727274,19.53666115659346L229.33748579545454,19.431588565951255L229.43117897727274,19.34830808247936L229.54829545454544,19.298978013550155L229.75910511363637,19.228041856207028L229.78252840909093,19.158821132353996L229.89964488636363,19.074581065830667L230.01676136363636,19.002350802959974L230.04018465909093,18.930797951727897L230.3915340909091,18.496769636421334L231.09423295454545,18.00610106971338L231.11765625,17.695159364784736L231.4221590909091,17.44934614471222L231.5861221590909,17.295409519760014L231.70323863636364,17.15781362050986L232.03116477272727,16.928638067137648L232.2419744318182,16.646549051220074L232.61674715909092,16.3751669607801L232.87440340909092,16.048102129593047L233.03836647727272,15.683479216457734L233.06178977272728,15.43187696797558L233.1320596590909,15.24287497886223L233.27259943181818,14.981526144168317L234.16268465909093,14.748702044674033L234.2563778409091,14.584396181732275L234.3032244318182,14.47730304858263L234.37349431818183,14.39662627025535L234.39691761363636,14.348978090879136L234.49061079545453,14.322117698878454L234.5608806818182,14.309671235312628L235.2870028409091,14.096257368591392L235.6149289772727,13.864059334015417L236.27078125,13.615245696563107L236.41132102272726,13.443074626471534L236.50501420454546,13.289046698959856L236.9266335227273,13.10565683548172" style="fill: none;" fill="none"></path></g></g></g></g><g opacity="0.2"><g><g><g><path stroke="rgb(204, 51, 17)" stroke-width="2px" d="M23.563835227272726,163.3846153846154L23.86833806818182,163.3846153846154L24.008877840909093,163.3846153846154L24.383650568181817,163.3846153846154L24.43049715909091,163.3846153846154L24.500767045454545,163.3846153846154L24.758423295454545,163.3846153846154L25.10977272727273,163.3846153846154L25.180042613636363,163.3846153846154L25.648508522727273,163.3846153846154L25.835894886363636,163.3846153846154L25.92958806818182,163.3846153846154L26.398053977272728,163.3846153846154L27.077329545454546,163.33164635291467L27.147599431818183,163.33202862079327L27.358409090909092,163.33503690279446L27.616065340909092,163.33516986553485L27.73318181818182,163.26958599384014L27.780028409090907,163.26990178034856L27.897144886363638,163.27101534329927L28.810653409090907,163.22466120793268L28.927769886363638,163.22512657752404L29.279119318181817,163.22550884540263L29.41965909090909,163.22540912334736L29.536775568181817,163.2252927809495L29.70073863636364,163.22512657752404L29.84127840909091,163.22509333683894L30.286321022727275,163.22512657752404L30.66109375,163.22512657752404L30.70794034090909,163.22512657752404L30.895326704545454,163.22512657752404L31.17640625,163.22512657752404L31.38721590909091,163.22512657752404L31.574602272727272,163.22512657752404L31.949375,163.22512657752404L32.04306818181818,163.22512657752404L33.33134943181818,163.16301635742187L33.35477272727273,163.16309945913463L33.75296875,163.16795259915867L33.823238636363634,163.1685509314904L33.893508522727274,163.1702129657452L34.24485795454546,163.17157583383414L34.31512784090909,163.17150935246394L34.338551136363634,163.17149273212138L34.57278409090909,163.1714262507512L34.970980113636365,163.17129328801082L35.01782670454545,163.17129328801082L35.50971590909091,163.17129328801082L35.931335227272726,163.17129328801082L36.071875000000006,163.17129328801082L36.75115056818182,163.0487681227464L37.00880681818182,163.05546612079326L37.17276988636364,163.05674588716946L37.336732954545454,163.05704505333534L37.360156249999996,163.05704505333534L37.73492897727272,163.05682898888222L38.20339488636364,162.93573317307693L38.25024147727272,162.93618192232572L38.53132102272727,162.88153423602765L38.69528409090909,162.8843596942608L38.71870738636364,162.88545663686898L38.765553977272724,162.8862544133113L38.835823863636364,162.8875341796875L38.882670454545455,162.88808265099158L39.16375,162.82477576622597L39.42140625,162.82795025165265L39.725909090909084,162.764460543119L39.843025568181815,162.766189058744L40.45203125,162.7691973407452L40.545724431818186,162.76971257136418L40.63941761363636,162.76967933067908L40.66284090909091,162.76994525615987L40.826803977272725,162.7699618765024L41.06103693181819,162.76987877478967L41.15473011363636,162.7698621544471L41.24842329545454,162.7698621544471L41.365539772727274,162.769828913762L41.459232954545456,162.769828913762L41.67004261363636,162.769828913762L41.763735795454544,162.769828913762L41.834005681818184,162.769828913762L41.904275568181816,162.769828913762L42.06823863636363,162.769828913762L42.18535511363636,162.769828913762L42.23220170454546,162.769828913762L42.37274147727273,162.769828913762L42.41958806818182,162.70195143479566L42.51328125,162.7025830078125L42.60697443181818,162.70329768254206L42.74751420454546,162.70442786583533L42.7709375,162.70471041165865L43.33309659090909,162.70810096153846L43.426789772727275,162.7080843411959L44.19975852272727,162.7082505446214L44.363721590909094,162.7082505446214L44.50426136363637,162.7082505446214L44.832187499999996,162.7082505446214L44.92588068181818,162.7082505446214L45.08984375,162.7082505446214L45.13669034090909,162.7082505446214L45.277230113636364,162.7082505446214L45.324076704545455,162.7082505446214L45.65200284090909,162.7082505446214L45.67542613636364,162.7082505446214L45.909659090909095,162.68888784555287L45.97992897727273,162.64279963566707L46.19073863636364,162.64683837890624L46.28443181818182,162.6481680063101L46.378125,162.64843393179086L46.58893465909091,162.6505945763221L46.61235795454545,162.65097684420073L46.752897727272725,162.65170813927284L46.776321022727274,162.65182448167067L46.8934375,162.65195744441107L47.338480113636365,162.6519740647536L47.40875,162.6519408240685L47.61955965909091,162.6518743426983L48.36910511363636,162.45874596228967L48.67360795454545,162.4652278958834L48.814147727272726,162.46564340444712L48.88441761363636,162.46562678410456L48.93126420454546,162.4670228928786L49.02495738636363,162.46833589993992L49.18892045454545,162.40210383488582L49.306036931818184,162.3750957782452L49.56369318181819,162.33888005183292L49.70423295454545,162.3398274113582L49.844772727272726,162.34132324218749L50.10242897727273,162.3430185171274L50.24296875,162.34624286358172L51.320440340909094,162.28188889723558L51.414133522727276,162.28280301607572L51.43755681818182,162.28303570087138L51.46098011363636,162.28333486703727L51.92944602272728,162.28391657902642L52.257372159090906,162.28388333834135L52.280795454545455,162.28388333834135L52.42133522727273,162.28388333834135L52.58529829545455,162.28388333834135L53.381690340909095,162.28388333834135L53.73303977272727,162.21673715444712L54.08438920454545,162.21932992788462L54.15465909090909,162.2194296499399L54.24835227272727,162.21941302959735L54.88078125,162.0885112116887L55.04474431818181,162.09120370718148L55.20870738636364,162.03052283653847L55.34924715909091,162.03346463716946L55.770866477272726,162.03791888897237L55.841136363636366,162.03818481445313L56.1690625,162.03929837740384L56.23933238636364,162.03929837740384L56.35644886363636,162.0392817570613L56.37987215909091,162.0392485163762L57.691576704545454,162.0391487943209L57.785269886363636,162.0391487943209L57.87896306818182,161.90412513146035L57.90238636363636,161.90485642653246L58.55823863636363,161.84434175931491L59.05012784090909,161.77950580303485L59.09697443181818,161.780419921875L59.190667613636364,161.73197162334736L59.35463068181818,161.71870858999398L59.47174715909091,161.72028752253607L60.26813920454545,161.72520714393028L60.291562500000005,161.72519052358774L60.666335227272725,161.70245389498197L60.94741477272728,161.65902493990384L61.04110795454545,161.65959003155047L61.08795454545455,161.6598725773738L61.55642045454545,161.66088641826923L62.00146306818182,161.66140164888822L62.14200284090909,161.66138502854568L62.89154829545454,161.66136840820312L63.43028409090909,161.5954022686298L63.47713068181818,161.5954022686298L64.03928977272727,161.46812368539662L64.13298295454545,161.46920400766226L64.55460227272728,161.47099900465744L64.57802556818183,161.47099900465744L64.99964488636363,161.47144775390626L65.30414772727272,161.40370323768028L65.46811079545455,161.27030836838944L65.63207386363636,161.20753333458535L65.70234375,161.20961087740383L65.88973011363638,161.21517869215745L65.98342329545454,161.21590998722957L66.28792613636364,161.21923405573918L66.54558238636363,161.21971604567307L66.73296875,161.0516511418269L66.89693181818181,160.95437227689303L67.15458806818181,160.95914231520433L67.29512784090909,160.96067138671876L67.34197443181817,160.96319767878606L67.38882102272727,160.9649760554387L67.45909090909092,160.9649760554387L67.62305397727272,160.89905977689304L67.88071022727273,160.76898897611179L68.11494318181818,160.70513362004206L68.23205965909092,160.6905908203125L68.27890625,160.64333918644832L68.39602272727272,160.6435053898738L68.51313920454545,160.64456909179688L68.58340909090909,160.64682945838342L68.60683238636364,160.6486244553786L68.63025568181818,160.6486244553786L69.16899147727273,160.5846693772536L69.40322443181819,160.45546283428487L69.54376420454545,160.46026611328125L69.7779971590909,160.33212327223558L69.80142045454546,160.33212327223558L70.01223011363636,160.2418748121995L70.22303977272728,160.14408071664664L70.76177556818182,160.10219745342548L70.85546875,160.10653536283053L71.11312500000001,160.10671818659856L71.20681818181818,160.10696749173678L71.44105113636364,160.03930607722356L71.79240056818182,159.91184467022237L71.86267045454545,159.9131410569411L72.02663352272727,159.78175724909858L72.07348011363636,159.78253840519832L73.01041193181818,159.40234806941106L73.174375,159.4070682466947L73.59599431818182,159.15339195838342L73.6428409090909,159.15377422626202L73.83022727272727,158.96554884690505L73.9004971590909,158.96842416616585L73.94734374999999,158.97246290940504L74.48607954545454,158.98720515324518L74.83742897727274,158.85786564753604L74.88427556818182,158.85877976637622L75.30589488636365,158.67954599233775L75.39958806818181,158.66561814528245L75.58697443181819,158.6726485501803L76.03201704545454,158.6123998084435L76.17255681818182,158.35335514948918L76.73471590909091,158.24334510216346L77.03921875,158.1886974158654L77.13291193181819,158.1731740159255L77.15633522727273,158.12362877478967L77.20318181818182,158.1241273850661L77.2500284090909,158.125822660006L77.34372159090908,158.0601723069411L77.43741477272728,157.99460505558895L77.60137784090908,157.93856126051682L77.95272727272727,157.88938166691707L78.77254261363636,157.60025418795072L78.86623579545454,157.53576725886418L79.03019886363637,157.4769977276142L79.24100852272728,157.10377131535455L79.52208806818182,156.9898056265024L79.75632102272728,157.01240929236778L79.80316761363636,157.0184258563702L79.85001420454546,157.02017099233774L79.8734375,157.02018761268027L79.96713068181818,156.78048903245192L80.03740056818182,156.76807363656852L80.22478693181817,156.50048612154447L80.31848011363637,156.3891132061298L80.64640625,156.30820537860578L80.78694602272728,156.298598820613L80.9040625,156.19904296875L80.92748579545454,156.20293212890624L80.97433238636363,156.20763568584735L81.04460227272727,156.22049983097955L81.13829545454546,156.21541400615985L81.16171875,156.1601181265024L81.32568181818182,156.04158184344953L81.39595170454545,155.97990375225362L81.51306818181818,155.99388146033652L81.95811079545454,155.6198240309495L82.19234375,155.4574765249399L82.33288352272727,155.4699251615084L82.47342329545455,155.41203650841345L82.56711647727272,155.38730543870193L82.87161931818181,155.23700768103967L82.89504261363636,155.19936260516826L83.480625,154.83537710336537L83.69143465909092,154.85954308143027L84.11305397727273,154.61131826547478L84.53467329545455,154.41606248121994L84.55809659090909,154.3708219088041L84.60494318181819,154.37288283128004L84.83917613636363,154.31213547926683L84.93286931818182,154.18758263221153L85.37791193181818,153.84360802283655L85.63556818181819,153.78960852989783L85.82295454545455,153.5971449631911L85.96349431818182,153.54942795973557L85.98691761363636,153.55097365159256L86.03376420454546,153.55512873722958L86.1040340909091,153.5586688701923L86.22115056818181,153.42773381159856L86.80673295454547,153.13814096304088L86.83015625,153.14153151292066L87.06438920454546,152.9762255859375L87.11123579545455,152.84361187274638L87.22835227272726,152.84763399564304L87.55627840909091,152.549116023137L87.69681818181819,152.51416344275842L87.9076278409091,152.34064706655647L88.25897727272728,152.24107459435095L88.35267045454545,152.24281973031853L88.39951704545454,152.24313551682692L88.70401988636364,151.99949791541468L88.98509943181818,151.88478431114783L89.26617897727273,151.82053006685697L89.52383522727273,151.78080744816708L89.66437499999999,151.7186307466947L90.08599431818182,151.67307438777044L90.2265340909091,151.67663114107572L90.24995738636365,151.67663114107572L90.46076704545455,151.61129657451923L90.60130681818181,151.6135403207632L90.74184659090909,151.48140859750603L90.85896306818182,151.48892099233774L91.39769886363636,151.2497542630709L91.5616619318182,151.12938974233774L91.67877840909091,150.99511399489182L91.98328124999999,150.89082134540263L92.14724431818182,150.8448660982572L92.49859375,150.54402127779446L92.77967329545454,150.30325899564303L92.84994318181819,150.2422290978065L93.17786931818182,150.0287241774339L93.20129261363637,149.96264169546274L93.24813920454545,149.96970534104568L93.99768465909091,149.51312791090746L94.02110795454546,149.51460712139422L94.04453124999999,149.51648522010217L94.20849431818182,149.39833120492787L94.46615056818182,149.28749014047474L94.84092329545454,149.08254469651442L94.95803977272728,148.93714993990383L95.70758522727273,148.47811269906853L96.03551136363637,148.23329505333533L96.24632102272727,148.2497658128005L96.48055397727272,148.1937053973858L96.62109375,148.11424353966345L96.71478693181818,148.07365666316107L97.18325284090909,147.94946946364183L97.23009943181818,147.95016751802885L97.25352272727272,147.95078247070313L97.53460227272727,147.83387498121996L98.00306818181818,147.64121197040265L98.40126420454546,147.52809391902045L98.58865056818182,147.401596491887L99.15080965909091,147.05516207181492L99.36161931818181,146.87301973783053L99.4084659090909,146.80976271409256L99.4553125,146.8158623798077L99.54900568181817,146.8180396446815L99.57242897727272,146.82266009990985L99.85350852272727,146.83068772536058L99.92377840909091,146.76796255258412L100.13458806818181,146.59040743314304L100.20485795454546,146.579338285006L100.81386363636364,146.40013775165266L100.93098011363635,146.40472496619591L100.97782670454546,146.40633713942307L101.32917613636364,146.34932936448317L101.6805255681818,146.28416100135217L102.31295454545455,145.99190889798678L102.68772727272727,145.87930607722356L102.87511363636364,145.72595017653245L102.99223011363635,145.5407330791767L103.1093465909091,145.4299418757512L103.20303977272727,145.4446342585637L103.24988636363636,145.44199162409856L103.64808238636364,145.2170519080529L104.093125,144.98631169245792L104.11654829545455,144.98631169245792L104.28051136363636,144.9942229755108L104.35078125000001,144.92810725285457L104.9129403409091,144.82434645432693L104.98321022727272,144.82733811598558L105.1705965909091,144.83089486929086L105.24086647727273,144.71867431640626L105.26428977272727,144.69761634239785L105.31113636363636,144.65624830979567L105.3345596590909,144.6332789963942L105.9435653409091,144.40619525615986L106.15437499999999,144.27550950270432L106.7165340909091,144.08518996018628L106.92734374999999,143.91301983173076L107.25526988636364,143.73626248873197L107.27869318181818,143.7028057391827L107.3958096590909,143.61716111403246L107.67688920454545,143.63379807692309L108.37958806818182,142.9655938251202L108.4264346590909,142.95153301532451L108.47328125,142.95600388746996L108.66066761363636,142.85992168719952L109.05886363636364,142.6668764085036L109.1994034090909,142.6148547363281L109.71471590909091,142.50595825195313L109.78498579545455,142.50675602839544L109.90210227272728,142.44167076697715L110.15975852272727,142.2529633976863L110.20660511363637,142.12345768855167L110.34714488636364,142.1120893742488L110.37056818181819,142.05240572415863L110.53453125,141.9551434795673L110.72191761363636,141.70796574519233L110.86245738636363,141.73415940504808L110.93272727272728,141.73414278470554L111.35434659090909,141.47946927584135L111.65884943181817,141.32709397536058L111.72911931818182,141.16466336763824L111.89308238636363,140.99859290489783L112.26785511363637,140.56350557767428L112.31470170454546,140.5642036320613L112.45524147727272,140.60768244816708L112.54893465909092,140.49258657602164L112.94713068181818,140.32917536808893L113.34532670454546,140.2028109036959L113.86063920454545,139.8531355168269L114.28225852272726,139.36497943584735L114.32910511363637,139.36760544996994L114.37595170454546,139.30348416841946L114.44622159090909,139.24574509840747L114.51649147727272,139.19194504957932L114.9146875,139.03556424654445L115.17234375,138.9090501990685L115.50026988636364,138.79766066331132L116.27323863636363,138.56622239332933L116.34350852272726,138.56883178710936L116.95251420454547,138.1963034292368L117.04620738636363,138.10246497521032L117.09305397727273,138.00924147385817L117.23359375,138.02908616286058L117.30386363636363,138.03079805814303L117.35071022727273,138.03239361102763L117.56151988636364,137.97766282301683L117.72548295454546,137.9185442645733L118.02998579545455,137.93140840970554L118.2173721590909,137.8712427696815L118.52187500000001,137.71113900991588L118.56872159090909,137.67877920297477L118.63899147727273,137.61585458608772L118.92007102272727,137.19670616736778L119.01376420454547,137.007516808143L119.13088068181818,136.96663076547475L119.17772727272727,136.9756389911358L119.41196022727273,137.00766639122597L119.5056534090909,137.01436438927283L120.20835227272727,136.52167095477765L120.32546875000001,136.46592632587138L120.48943181818181,136.34253690279448L121.09843749999999,135.98401949368989L121.54348011363636,135.88737220177285L121.75428977272728,135.83159433218148L121.91825284090909,135.7049307016226L122.01194602272727,135.6436016376202L122.26960227272727,135.56784611628606L122.4335653409091,135.33446326622595L122.57410511363636,135.34890634390024L123.08941761363636,135.05549081655647L123.34707386363637,134.86924325796275L123.4641903409091,134.74500619741588L123.675,134.56994412935697L123.72184659090908,134.50454308143028L124.00292613636364,134.38366333007812L124.26058238636364,134.26778630183293L124.33085227272727,134.20266779972957L124.56508522727273,133.96529606745793L125.68940340909091,133.4712397648738L125.80651988636363,133.47522864708534L125.8299431818182,133.47537823016827L126.11102272727273,133.29180654672476L127.84434659090908,132.31968271108775L128.14884943181818,131.99202927809495L128.1722727272727,131.99261099008413L128.2191193181818,132.0002397273137L128.2659659090909,132.00919809194713L128.33623579545454,131.95252272385818L128.35965909090908,131.96495474008412L128.96866477272727,131.73812030498797L129.08578125,131.74136127178485L129.15605113636366,131.7487407038762L129.36686079545456,131.75041935847358L129.62451704545455,131.7519982910156L129.85875000000001,131.68628145658053L129.92901988636365,131.68676344651442L129.95244318181818,131.6872121957632L130.30379261363635,131.39974675105168L130.6785653409091,131.1889509465144L130.8425284090909,131.1379597355769L130.9362215909091,131.00802189753605L131.14703125,131.02163395808293L131.1938778409091,130.95865948016828L131.4046875,130.9121391413762L131.4983806818182,130.91262113131012L131.66234375,130.9168426983173L131.82630681818182,130.92256009615383L132.48215909090908,130.60162128155048L132.69296875,130.60880126953126L133.04431818181817,130.48366671048677L133.20828125,130.43197744516226L133.34882102272726,130.43591646634616L133.44251420454543,130.43825993464543L133.4659375,130.40506911057693L133.95782670454545,129.99876821664662L134.0280965909091,130.00106182391826L134.16863636363635,130.01502291165866L134.89475852272727,129.4070840219351L135.03529829545454,129.16721923828126L135.12899147727273,129.1860500863882L135.38664772727273,129.0896354792668L135.43349431818183,129.09500384990986L135.8316903409091,128.91392521784854L135.85511363636363,128.9139418381911L136.30015625000001,128.69829289362983L136.32357954545455,128.60009990985577L136.39384943181818,128.57038273737982L136.6046590909091,128.51688185471755L136.8623153409091,128.14973848783055L137.47132102272727,127.87184636042669L137.54159090909093,127.81458928034856L137.82267045454546,127.7631659405048L137.8929403409091,127.7635814490685L137.9397869318182,127.76394709660458L137.98663352272726,127.76494431715746L138.29113636363635,127.50661433293268L138.68933238636362,127.15035729041468L139.1812215909091,126.88813814603365L139.34518465909093,126.80789513221154L139.53257102272727,126.7754189828726L139.62626420454546,126.75964627779446L139.79022727272726,126.59390822190507L139.8136505681818,126.54738788311298L139.83707386363636,126.50892841045673L140.0713068181818,126.40014826847957L140.7271590909091,125.99404681865984L140.8442755681818,125.75444796048677L141.21904829545454,125.1897552020733L141.47670454545454,124.9219682429387L141.5703977272727,124.81378643329327L141.59382102272727,124.78975341796875L141.78120738636363,124.44975107046274L141.85147727272727,124.0413560133714L141.8749005681818,124.05310659555288L141.92174715909093,124.08176006610577L141.99201704545453,124.0224420635517L142.22625000000002,123.75669940655048L142.3199431818182,123.66646756685697L142.48390625000002,123.06398014948918L142.50732954545455,123.09010732797476L142.64786931818182,122.853732816256L142.7884090909091,122.60836669921875L142.83525568181818,122.54896559495192L142.90552556818182,122.51810161884015L143.7253409090909,121.48554621769831L144.00642045454546,121.328483980619L144.4514630681818,120.80140305739182L144.4983096590909,120.74881629356973L144.94335227272728,120.45648108849159L144.99019886363638,120.45827608548679L145.0136221590909,120.43866408128004L145.45866477272727,119.65119225135217L146.02082386363637,119.13356830303485L146.09109375,119.10135807917669L146.3955965909091,118.67130671574519L146.58298295454546,118.4046665602464L146.79379261363636,118.14382690429687L146.8640625,118.17525597205527L146.91090909090912,118.13835881159856L146.93433238636362,118.06514620267427L147.26225852272728,118.01777822641226L147.44964488636364,117.46458674504207L147.96495738636364,117.15642897385817L148.1054971590909,116.95748347355769L148.19919034090907,116.92904606745792L148.3631534090909,116.90310171274038L148.66765625,116.53974778395433L148.7145028409091,116.54714383638822L148.73792613636363,116.48594773512619L148.90188920454545,116.39839177058293L149.32350852272728,116.06478825495792L149.8622443181818,115.41533174954927L149.97936079545454,115.40338172325721L150.44782670454546,114.6425523024339L150.49467329545456,114.54429283728966L150.63521306818183,114.53513502854567L151.24421875,113.93228196364183L151.36133522727272,113.71264413686899L151.6658380681818,113.42605957031249L151.75953124999998,113.3175785945012L152.1811505681818,113.10962486853967L152.36853693181817,112.70985576923077L152.90727272727273,112.14729041466347L152.9775426136364,112.00792884239783L153.0009659090909,111.94377432016226L153.0946590909091,111.85809645432693L153.11808238636365,111.8754480919471L153.21177556818182,111.73274583082932L153.7270880681818,111.38870474008414L154.26582386363637,110.62849027193508L154.57032670454547,110.29196157602163L154.94509943181816,109.87228130634014L155.20275568181816,109.66485943134015L155.57752840909092,109.07698129507212L155.90545454545455,108.63542865459735L155.92887784090908,108.59176701472357L155.99914772727274,108.43073251577525L156.39734375,107.77620680588943L156.9595028409091,107.30784555288461L157.00634943181817,107.33010019155648L157.33427556818182,107.07733802208536L157.77931818181818,106.28974984975962L157.80274147727272,106.19797231820915L157.84958806818182,105.98333721454328L157.96670454545455,105.95784160907452L158.62255681818183,105.10059758112982L158.83336647727273,104.7903955078125L158.99732954545456,104.84161940354569L159.09102272727273,104.69218590369593L159.2315625,104.6532943021334L159.37210227272726,104.51737314077523L159.48921875,104.44450955904448L159.55948863636365,104.42351806640625L159.60633522727272,104.3262890625L159.95768465909092,103.94387160081129L160.1684943181818,103.82029935396635L160.35588068181818,103.57367009089545L160.75407670454544,103.1746156663161L160.87119318181817,103.08368577223558L160.91803977272727,103.10620633638821L161.19911931818183,103.03191340519831L161.2459659090909,103.02744253305288L161.38650568181816,102.63094764122596L161.66758522727272,102.53341947115383L161.78470170454545,102.09981135441706L162.01893465909092,102.12068650465744L162.25316761363635,101.78432401216946L162.90901988636364,101.3082675405649L162.95586647727274,101.17670090895433L163.0495596590909,101.07541654146635L163.4009090909091,100.42599327674279L164.36126420454545,99.02097599909854L164.43153409090908,98.97357478215145L164.52522727272728,98.93622887244591L164.8531534090909,98.51480346679688L165.1108096590909,98.00874727689305L165.27477272727273,97.67908278245194L165.67296875,97.4035175030048L165.74323863636363,97.29723041240985L165.86035511363636,97.1214869103065L165.9774715909091,96.85559467022236L166.11801136363636,96.77103036733774L166.39909090909092,96.07841083233173L166.42251420454545,96.04257737379807L166.82071022727274,95.85382014347955L166.89098011363635,95.73307335486778L167.05494318181817,95.72055823692908L167.68737215909093,95.06721257136418L167.73421875,95.0018447641226L167.89818181818183,94.80105440579926L168.31980113636362,94.2294808255709L168.36664772727272,94.21460561899038L168.53061079545455,94.16304931640626L168.74142045454545,94.15462280273438L168.9756534090909,93.88897986778845L168.99907670454544,93.8805201134315L169.2333096590909,93.50275634765624L169.3270028409091,93.4313221153846L169.35042613636364,93.38686269906852L169.79546875,92.51836669921875L169.9125852272727,92.35896099384014L169.95943181818183,92.32995849609375L170.053125,92.37666165865384L170.26393465909092,92.16555006760818L170.68555397727272,91.72243511493389L171.1540198863636,91.23766958383413L171.27113636363637,91.11474553034854L171.48194602272727,90.94907395582932L171.62248579545454,90.93085806039664L171.6459090909091,90.94107957106371L171.66933238636364,90.94661414513222L171.73960227272727,90.8835233248197L171.80987215909093,90.79628314678486L172.32518465909092,90.32596069335938L172.72338068181818,89.72830979567307L172.74680397727272,89.73401057316707L172.84049715909092,89.63501981295073L172.95761363636362,89.3935760967548L173.12157670454545,89.13757296048679L173.33238636363637,89.05413884089545L173.37923295454544,88.98431678185095L173.61346590909093,88.7352775691106L173.7540056818182,88.41565176156851L173.80085227272727,88.34513164813703L173.94139204545453,87.98899094801682L173.98823863636363,87.7498574594351L174.03508522727273,87.65975858248197L174.3161647727273,87.63115497295672L174.36301136363636,87.45925076998198L174.40985795454546,87.40609891451324L174.94859375000001,85.93041194035456L175.15940340909088,85.8174102313702L175.22967329545455,85.75033052884616L175.60444602272727,85.1167464505709L175.8386789772727,84.77739229642428L175.86210227272727,84.79165255033054L175.90894886363637,84.72161442683293L176.04948863636363,84.55064096304086L176.1900284090909,84.39698589618389L176.35399147727273,84.14400766225963L176.47110795454546,84.12058959960939L176.6350710227273,83.99882897010215L176.77561079545455,83.61679377629207L177.08011363636362,83.16255981445313L177.6891193181818,81.8628490271935L178.15758522727273,81.35330256535457L178.22785511363637,81.0764076585036L178.32154829545453,80.87312424879809L178.3449715909091,80.83891958383414L178.5089346590909,80.68734205979567L178.9071306818182,80.20137986403246L179.16478693181818,80.02025137094351L179.42244318181818,79.5898842210036L179.58640624999998,78.88584651066706L179.72694602272728,78.80415752704327L180.28910511363637,78.08883460411658L181.39,76.05608360877405L181.57738636363638,75.95616210937499L181.67107954545455,75.77903911884015L181.97558238636364,75.32487163837139L182.23323863636364,74.73418466421275L182.3269318181818,74.71364192082332L182.5143181818182,74.50434194711539L182.53774147727273,74.48463022085336L182.6314346590909,74.29284808819109L182.84224431818183,74.08044011042668L182.86566761363636,74.07538752629206L183.09990056818182,73.91717848557693L183.1233238636364,73.8673174579327L183.1467471590909,73.86966092623199L183.33413352272729,73.55101571890023L183.80259943181818,73.01695425180289L184.3647585227273,72.09718449519231L184.50529829545454,72.06376098632812L184.52872159090907,72.05722919170674L184.59899147727273,71.775398043119L184.83322443181817,71.14557016225962L185.0440340909091,71.08884493314302L185.11430397727273,70.97331693209135L185.34853693181816,70.52192504882814L185.4656534090909,70.23901357797476L186.30889204545454,69.34731557992788L186.51970170454547,69.20539447490985L186.56654829545457,69.14383272611178L186.66024147727273,68.74246807391827L186.80078125,68.37678729717548L186.87105113636363,68.21819598858173L187.03501420454546,68.04030846228967L187.22240056818183,67.94989379882813L187.29267045454546,67.88344566932092L187.48005681818182,67.65044508713942L187.57375,67.51269568810096L187.6674431818182,67.25127432016225L187.92509943181818,66.82180466871995L188.20617897727274,66.40155930739182L188.2998721590909,66.37850689227764L188.46383522727274,66.26567138671874L188.5575284090909,65.92796264648439L188.8151846590909,65.66826979417067L189.09626420454546,65.41077082707332L189.47103693181816,64.93223792442909L190.05661931818182,63.802520000751194L190.40796875,63.42623544546275L190.73589488636364,63.04265455979568L190.82958806818183,62.97491004356971L190.92328125,62.861143798828124L191.11066761363634,62.794330021784866L191.25120738636363,62.61050903320314L191.27463068181817,62.56731276292068L191.67282670454546,61.91898644080529L191.88363636363636,61.622213604266825L192.02417613636365,61.444076772836546L192.21156249999999,61.269131047175485L192.28183238636365,60.949322415865396L192.79714488636364,59.91241248497596L193.1953409090909,59.578659386268036L193.2890340909091,59.38195763221154L193.47642045454543,59.158330923227176L193.5466903409091,59.18384314903845L193.68723011363636,58.84741417518029L194.1088494318182,58.55145573542668L194.15569602272726,58.56124511718749L194.57731534090908,58.28290424053486L194.67100852272728,58.10436852088341L194.7412784090909,58.05995896559495L195.16289772727274,57.430047983022824L195.2565909090909,57.283090914212735L195.42055397727273,57.01061701847957L195.72505681818183,56.277443847656244L195.8655965909091,56.26517803485576L196.19352272727275,55.935114652193505L196.47460227272728,55.397961801382216L196.66198863636365,55.21930973933294L196.849375,55.19225182166466L197.03676136363634,55.00146690955529L197.0601846590909,55.00510676457331L197.17730113636364,54.95915151742788L197.27099431818183,54.77366849459135L197.57549715909093,54.096539118840134L197.6691903409091,54.03447875976563L197.99711647727273,53.62038292518029L198.27819602272726,53.20811532827525L198.30161931818182,53.137595214843756L198.46558238636362,53.19250882662259L198.79350852272728,52.870090801532456L198.93404829545455,52.65575486403245L199.09801136363635,52.482687237079325L199.14485795454544,52.435618426983176L199.35566761363637,52.21089477539062L199.40251420454544,52.216695274939894L199.4259375,52.22091684194711L199.87098011363636,51.73216242863582L199.94125,51.74170250525842L200.15205965909092,51.46030348557692L200.47998579545452,51.00955979567307L200.80791193181818,50.663225097656245L201.04214488636362,49.97695453350361L201.41691761363637,49.635323392427885L201.67457386363637,49.44166316105769L202.0961931818182,48.96776733398438L202.33042613636363,48.89179574819711L202.3538494318182,48.89706439678485L202.47096590909092,48.85260498046876L202.49438920454546,48.821824106069705L202.65835227272729,48.54192091721755L202.75204545454545,48.49046433668871L202.77546875000002,48.41695256159857L202.79889204545455,48.31530254657452L203.31420454545454,47.76769550030048L203.3376278409091,47.69709228515625L203.43132102272727,47.5826778470553L203.47816761363637,47.38845252403845L203.68897727272727,47.07216740534855L203.78267045454544,46.92095552884616L203.8529403409091,46.78646371694712L204.46194602272726,45.99167893629807L204.4853693181818,45.86729229266827L204.7196022727273,45.49975003756009L204.78987215909092,45.40810546875001L204.8835653409091,45.3183223783053L204.95383522727272,45.18459510216345L205.18806818181818,44.79783973106971L205.21149147727272,44.80465407151442L205.23491477272728,44.817086087740385L205.2583380681818,44.818349233774036L205.37545454545455,44.79059326171876L205.53941761363637,44.24331862229568L205.63311079545454,44.101979229266824L205.67995738636364,44.07069974459135L206.05473011363637,43.86507286658654L206.19526988636363,43.85453556941105L206.2186931818182,43.83811467097357L206.40607954545453,43.65515794020433L206.5466193181818,43.66552903395433L206.8511221590909,43.13613788311299L207.03850852272728,42.98249943659856L207.27274147727272,42.664153395432685L207.8817471590909,41.92660907451923L208.42048295454546,41.42929518479566L208.5844460227273,41.033431865985584L208.72498579545456,40.94913348858174L208.7952556818182,40.75919621394232L209.54480113636365,40.05233304537259L209.56822443181818,39.942572303185095L209.96642045454544,39.38446120042068L209.98984374999998,39.386921011117785L210.22407670454547,39.2648944561298L210.2943465909091,39.22493915264423L210.3411931818182,39.23162053034855L210.5988494318182,38.64299447866586L210.73938920454546,38.358188288762015L210.8096590909091,38.293967285156256L210.9033522727273,38.32331881009616L211.32497159090912,37.67851600060096L211.34839488636362,37.680676645132216L211.44208806818182,37.69440504807692L211.51235795454545,37.643746243990385L211.55920454545455,37.364624211237974L211.8871306818182,36.95154221754808L211.98082386363637,36.898057955228374L212.2619034090909,36.78038592998797L212.33217329545454,36.65134559044471L212.8240625,36.16889028695913L213.01144886363636,35.75384709284855L213.24568181818182,35.508962965745184L213.26910511363636,35.51740609975961L213.52676136363638,35.21212364783653L214.0654971590909,34.78325232872596L214.18261363636364,34.74273193359374L214.5808096590909,34.61807936448317L215.11954545454546,33.73241455078126L215.16639204545456,33.69172795222356L215.6114346590909,33.06111891526443L215.63485795454545,33.06121863731971L215.72855113636365,33.03565655048076L215.82224431818182,32.925563401442304L216.24386363636364,32.3724384014423L216.3844034090909,32.27643930288461L216.40782670454547,32.278998835637026L217.3916051136364,30.435005070612988L217.57899147727272,30.47828444260818L217.7663778409091,30.360712139423082L217.78980113636365,30.362440655048083L218.1879971590909,29.81433499849759L218.37538352272725,29.48116361177884L218.4925,29.332544508713944L218.58619318181817,29.181332632211532L218.84384943181817,28.92348463792068L219.12492897727273,28.487067683293272L219.19519886363636,28.501527381310105L219.24204545454546,28.43976618840145L219.33573863636363,28.29919133112981L219.523125,28.248399564302883L220.43663352272725,27.1463711313101L220.95194602272727,26.57649282602163L221.09248579545456,26.50429405799279L221.11590909090907,26.505756648137027L221.16275568181817,26.51469839242789L221.5375284090909,26.146856971153845L221.70149147727273,26.108563701923078L222.24022727272725,25.523394681490384L222.33392045454548,25.397312762920667L222.615,25.288316556490383L222.68526988636364,25.198433743990385L223.10688920454547,24.850304048978366L223.24742897727273,24.80386681189904L223.55193181818183,24.473254957932703L224.02039772727272,24.076194974459124L224.23120738636365,23.93764779897837L224.55913352272725,23.490527343749996L224.60598011363635,23.452101111778838L224.65282670454545,23.461641188401437L224.86363636363635,23.319703463040863L225.07444602272727,22.982875600961528L225.26183238636364,22.96735220102163L225.73029829545456,22.522990722656253L225.77714488636366,22.531068209134613L225.84741477272726,22.550214843750005L225.89426136363636,22.558790940504803L226.03480113636365,22.50806565504807L226.3158806818182,22.2018857046274L226.33930397727275,22.117421123798074L226.50326704545455,21.860537109375006L226.57353693181818,21.798277306189895L226.6906534090909,21.690211838942307L226.85461647727274,21.711120229867785L226.9014630681818,21.688450082632222L228.09605113636366,20.510034555288453L228.35370738636365,20.226425030048084L228.42397727272726,20.21482403094951L228.54109375000002,19.877730243389415L228.91586647727274,19.65176006610577L229.0095596590909,19.533689152644236L229.05640625,19.534952298677887L229.10325284090908,19.496526066706732L229.17352272727274,19.397236140324527L229.33748579545454,19.273979679987978L229.43117897727274,19.223387357271637L229.54829545454544,19.224982910156246L229.75910511363637,19.121637620192306L229.78252840909093,19.054990046574524L229.89964488636363,18.948220966045675L230.01676136363636,18.89400540865384L230.04018465909093,18.823468674879802L230.3915340909091,17.845727163461543L231.09423295454545,17.270098219651448L231.11765625,17.22874680739182L231.4221590909091,17.080626314603357L231.5861221590909,17.064504582331722L231.70323863636364,16.95141977163462L232.03116477272727,16.584874737079335L232.2419744318182,16.223415527343743L232.61674715909092,15.968093825120194L232.87440340909092,15.557504882812498L233.03836647727272,15.136544846754813L233.06178977272728,15.054473595252396L233.1320596590909,14.959371995192317L233.27259943181818,14.589502892127408L234.16268465909093,14.399465895432687L234.2563778409091,14.337937387319705L234.3032244318182,14.316663348858182L234.37349431818183,14.275611102764419L234.39691761363636,14.277505821814897L234.49061079545453,14.281827110877412L234.5608806818182,14.291001539963947L235.2870028409091,13.776136568509617L235.6149289772727,13.515762282151444L236.27078125,13.242025240384612L236.41132102272726,13.184818021334127L236.50501420454546,13.058004807692317L236.9266335227273,12.830572040264418" style="fill: none;" fill="none"></path></g></g></g></g></g></g><g transform="translate(72, 177)" clip-path="url(#clip_1)"><clipPath id="clip_1"><rect width="257" height="22"></rect></clipPath><g><g><line x1="0" y1="0" x2="0" y2="5" style="visibility: inherit;" fill="rgb(0, 0, 0)" stroke="rgb(204, 204, 204)" stroke-width="1px"></line><line x1="23.423295454545457" y1="0" x2="23.423295454545457" y2="5" style="visibility: inherit;" fill="rgb(0, 0, 0)" stroke="rgb(204, 204, 204)" stroke-width="1px"></line><line x1="46.846590909090914" y1="0" x2="46.846590909090914" y2="5" style="visibility: inherit;" fill="rgb(0, 0, 0)" stroke="rgb(204, 204, 204)" stroke-width="1px"></line><line x1="70.26988636363636" y1="0" x2="70.26988636363636" y2="5" style="visibility: inherit;" fill="rgb(0, 0, 0)" stroke="rgb(204, 204, 204)" stroke-width="1px"></line><line x1="93.69318181818183" y1="0" x2="93.69318181818183" y2="5" style="visibility: inherit;" fill="rgb(0, 0, 0)" stroke="rgb(204, 204, 204)" stroke-width="1px"></line><line x1="117.11647727272727" y1="0" x2="117.11647727272727" y2="5" style="visibility: inherit;" fill="rgb(0, 0, 0)" stroke="rgb(204, 204, 204)" stroke-width="1px"></line><line x1="140.53977272727272" y1="0" x2="140.53977272727272" y2="5" style="visibility: inherit;" fill="rgb(0, 0, 0)" stroke="rgb(204, 204, 204)" stroke-width="1px"></line><line x1="163.9630681818182" y1="0" x2="163.9630681818182" y2="5" style="visibility: inherit;" fill="rgb(0, 0, 0)" stroke="rgb(204, 204, 204)" stroke-width="1px"></line><line x1="187.38636363636365" y1="0" x2="187.38636363636365" y2="5" style="visibility: inherit;" fill="rgb(0, 0, 0)" stroke="rgb(204, 204, 204)" stroke-width="1px"></line><line x1="210.8096590909091" y1="0" x2="210.8096590909091" y2="5" style="visibility: inherit;" fill="rgb(0, 0, 0)" stroke="rgb(204, 204, 204)" stroke-width="1px"></line><line x1="234.23295454545453" y1="0" x2="234.23295454545453" y2="5" style="visibility: inherit;" fill="rgb(0, 0, 0)" stroke="rgb(204, 204, 204)" stroke-width="1px"></line><line x1="257.65625" y1="0" x2="257.65625" y2="5" style="visibility: inherit;" fill="rgb(0, 0, 0)" stroke="rgb(204, 204, 204)" stroke-width="1px"></line></g><g transform="translate(0, 8)"><text x="0" y="0" dx="0em" dy="0.95em" style="text-anchor: middle; visibility: hidden; font-family: Roboto, sans-serif; font-size: 12px; font-weight: 200;" fill="rgb(255, 255, 255)" stroke="none" stroke-width="1px">-10M</text><text x="23.423295454545457" y="0" dx="0em" dy="0.95em" style="text-anchor: middle; visibility: inherit; font-family: Roboto, sans-serif; font-size: 12px; font-weight: 200;" fill="rgb(255, 255, 255)" stroke="none" stroke-width="1px">0</text><text x="46.846590909090914" y="0" dx="0em" dy="0.95em" style="text-anchor: middle; visibility: hidden; font-family: Roboto, sans-serif; font-size: 12px; font-weight: 200;" fill="rgb(255, 255, 255)" stroke="none" stroke-width="1px">10M</text><text x="70.26988636363636" y="0" dx="0em" dy="0.95em" style="text-anchor: middle; visibility: inherit; font-family: Roboto, sans-serif; font-size: 12px; font-weight: 200;" fill="rgb(255, 255, 255)" stroke="none" stroke-width="1px">20M</text><text x="93.69318181818183" y="0" dx="0em" dy="0.95em" style="text-anchor: middle; visibility: hidden; font-family: Roboto, sans-serif; font-size: 12px; font-weight: 200;" fill="rgb(255, 255, 255)" stroke="none" stroke-width="1px">30M</text><text x="117.11647727272727" y="0" dx="0em" dy="0.95em" style="text-anchor: middle; visibility: inherit; font-family: Roboto, sans-serif; font-size: 12px; font-weight: 200;" fill="rgb(255, 255, 255)" stroke="none" stroke-width="1px">40M</text><text x="140.53977272727272" y="0" dx="0em" dy="0.95em" style="text-anchor: middle; visibility: hidden; font-family: Roboto, sans-serif; font-size: 12px; font-weight: 200;" fill="rgb(255, 255, 255)" stroke="none" stroke-width="1px">50M</text><text x="163.9630681818182" y="0" dx="0em" dy="0.95em" style="text-anchor: middle; visibility: inherit; font-family: Roboto, sans-serif; font-size: 12px; font-weight: 200;" fill="rgb(255, 255, 255)" stroke="none" stroke-width="1px">60M</text><text x="187.38636363636365" y="0" dx="0em" dy="0.95em" style="text-anchor: middle; visibility: hidden; font-family: Roboto, sans-serif; font-size: 12px; font-weight: 200;" fill="rgb(255, 255, 255)" stroke="none" stroke-width="1px">70M</text><text x="210.8096590909091" y="0" dx="0em" dy="0.95em" style="text-anchor: middle; visibility: inherit; font-family: Roboto, sans-serif; font-size: 12px; font-weight: 200;" fill="rgb(255, 255, 255)" stroke="none" stroke-width="1px">80M</text><text x="234.23295454545453" y="0" dx="0em" dy="0.95em" style="text-anchor: middle; visibility: hidden; font-family: Roboto, sans-serif; font-size: 12px; font-weight: 200;" fill="rgb(255, 255, 255)" stroke="none" stroke-width="1px">90M</text><text x="257.65625" y="0" dx="0em" dy="0.95em" style="text-anchor: middle; visibility: hidden; font-family: Roboto, sans-serif; font-size: 12px; font-weight: 200;" fill="rgb(255, 255, 255)" stroke="none" stroke-width="1px">100M</text></g><line x1="0" y1="0" x2="257.65625" y2="0" fill="rgb(0, 0, 0)" stroke="rgb(204, 204, 204)" stroke-width="1px"></line></g></g></g></g></svg>