<svg viewBox="0 0 330.0000305175781 200.00001525878906" xmlns="http://www.w3.org/2000/svg"><g><g><g><g><g><line x1="41.171875" y1="165" x2="36.171875" y2="165" style="visibility: inherit;" fill="rgb(0, 0, 0)" stroke="rgb(204, 204, 204)" stroke-width="1px"></line><line x1="41.171875" y1="151.25" x2="36.171875" y2="151.25" style="visibility: inherit;" fill="rgb(0, 0, 0)" stroke="rgb(204, 204, 204)" stroke-width="1px"></line><line x1="41.171875" y1="137.5" x2="36.171875" y2="137.5" style="visibility: inherit;" fill="rgb(0, 0, 0)" stroke="rgb(204, 204, 204)" stroke-width="1px"></line><line x1="41.171875" y1="123.75" x2="36.171875" y2="123.75" style="visibility: inherit;" fill="rgb(0, 0, 0)" stroke="rgb(204, 204, 204)" stroke-width="1px"></line><line x1="41.171875" y1="110.00000000000001" x2="36.171875" y2="110.00000000000001" style="visibility: inherit;" fill="rgb(0, 0, 0)" stroke="rgb(204, 204, 204)" stroke-width="1px"></line><line x1="41.171875" y1="96.24999999999999" x2="36.171875" y2="96.24999999999999" style="visibility: inherit;" fill="rgb(0, 0, 0)" stroke="rgb(204, 204, 204)" stroke-width="1px"></line><line x1="41.171875" y1="82.5" x2="36.171875" y2="82.5" style="visibility: inherit;" fill="rgb(0, 0, 0)" stroke="rgb(204, 204, 204)" stroke-width="1px"></line><line x1="41.171875" y1="68.75" x2="36.171875" y2="68.75" style="visibility: inherit;" fill="rgb(0, 0, 0)" stroke="rgb(204, 204, 204)" stroke-width="1px"></line><line x1="41.171875" y1="55.00000000000001" x2="36.171875" y2="55.00000000000001" style="visibility: inherit;" fill="rgb(0, 0, 0)" stroke="rgb(204, 204, 204)" stroke-width="1px"></line><line x1="41.171875" y1="41.25" x2="36.171875" y2="41.25" style="visibility: inherit;" fill="rgb(0, 0, 0)" stroke="rgb(204, 204, 204)" stroke-width="1px"></line><line x1="41.171875" y1="27.499999999999993" x2="36.171875" y2="27.499999999999993" style="visibility: inherit;" fill="rgb(0, 0, 0)" stroke="rgb(204, 204, 204)" stroke-width="1px"></line><line x1="41.171875" y1="13.750000000000005" x2="36.171875" y2="13.750000000000005" style="visibility: inherit;" fill="rgb(0, 0, 0)" stroke="rgb(204, 204, 204)" stroke-width="1px"></line><line x1="41.171875" y1="0" x2="36.171875" y2="0" style="visibility: inherit;" fill="rgb(0, 0, 0)" stroke="rgb(204, 204, 204)" stroke-width="1px"></line></g><g transform="translate(31.171875, 0)"><text x="0" y="165" dx="0em" dy="0.3em" style="text-anchor: end; visibility: hidden; font-family: Roboto, sans-serif; font-size: 12px; font-weight: 200;" fill="rgb(255, 255, 255)" stroke="none" stroke-width="1px">80</text><text x="0" y="151.25" dx="0em" dy="0.3em" style="text-anchor: end; visibility: inherit; font-family: Roboto, sans-serif; font-size: 12px; font-weight: 200;" fill="rgb(255, 255, 255)" stroke="none" stroke-width="1px">100</text><text x="0" y="137.5" dx="0em" dy="0.3em" style="text-anchor: end; visibility: hidden; font-family: Roboto, sans-serif; font-size: 12px; font-weight: 200;" fill="rgb(255, 255, 255)" stroke="none" stroke-width="1px">120</text><text x="0" y="123.75" dx="0em" dy="0.3em" style="text-anchor: end; visibility: inherit; font-family: Roboto, sans-serif; font-size: 12px; font-weight: 200;" fill="rgb(255, 255, 255)" stroke="none" stroke-width="1px">140</text><text x="0" y="110.00000000000001" dx="0em" dy="0.3em" style="text-anchor: end; visibility: hidden; font-family: Roboto, sans-serif; font-size: 12px; font-weight: 200;" fill="rgb(255, 255, 255)" stroke="none" stroke-width="1px">160</text><text x="0" y="96.24999999999999" dx="0em" dy="0.3em" style="text-anchor: end; visibility: inherit; font-family: Roboto, sans-serif; font-size: 12px; font-weight: 200;" fill="rgb(255, 255, 255)" stroke="none" stroke-width="1px">180</text><text x="0" y="82.5" dx="0em" dy="0.3em" style="text-anchor: end; visibility: hidden; font-family: Roboto, sans-serif; font-size: 12px; font-weight: 200;" fill="rgb(255, 255, 255)" stroke="none" stroke-width="1px">200</text><text x="0" y="68.75" dx="0em" dy="0.3em" style="text-anchor: end; visibility: inherit; font-family: Roboto, sans-serif; font-size: 12px; font-weight: 200;" fill="rgb(255, 255, 255)" stroke="none" stroke-width="1px">220</text><text x="0" y="55.00000000000001" dx="0em" dy="0.3em" style="text-anchor: end; visibility: hidden; font-family: Roboto, sans-serif; font-size: 12px; font-weight: 200;" fill="rgb(255, 255, 255)" stroke="none" stroke-width="1px">240</text><text x="0" y="41.25" dx="0em" dy="0.3em" style="text-anchor: end; visibility: inherit; font-family: Roboto, sans-serif; font-size: 12px; font-weight: 200;" fill="rgb(255, 255, 255)" stroke="none" stroke-width="1px">260</text><text x="0" y="27.499999999999993" dx="0em" dy="0.3em" style="text-anchor: end; visibility: hidden; font-family: Roboto, sans-serif; font-size: 12px; font-weight: 200;" fill="rgb(255, 255, 255)" stroke="none" stroke-width="1px">280</text><text x="0" y="13.750000000000005" dx="0em" dy="0.3em" style="text-anchor: end; visibility: inherit; font-family: Roboto, sans-serif; font-size: 12px; font-weight: 200;" fill="rgb(255, 255, 255)" stroke="none" stroke-width="1px">300</text><text x="0" y="0" dx="0em" dy="0.3em" style="text-anchor: end; visibility: hidden; font-family: Roboto, sans-serif; font-size: 12px; font-weight: 200;" fill="rgb(255, 255, 255)" stroke="none" stroke-width="1px">320</text></g><line x1="41.171875" y1="0" x2="41.171875" y2="165" fill="rgb(0, 0, 0)" stroke="rgb(204, 204, 204)" stroke-width="1px"></line></g></g><g transform="translate(41, 0)" clip-path="url(#clip_0)"><clipPath id="clip_0"><rect width="288" height="165"></rect></clipPath><g><g><g><line x1="0" y1="0" x2="0" y2="165" fill="rgb(0, 0, 0)" stroke="rgb(189, 189, 189)" stroke-width="1px" opacity="0.25"></line><line x1="24.069010416666664" y1="0" x2="24.069010416666664" y2="165" fill="rgb(0, 0, 0)" stroke="rgb(189, 189, 189)" stroke-width="1px" opacity="0.25"></line><line x1="48.13802083333333" y1="0" x2="48.13802083333333" y2="165" fill="rgb(0, 0, 0)" stroke="rgb(189, 189, 189)" stroke-width="1px" opacity="0.25"></line><line x1="72.20703125" y1="0" x2="72.20703125" y2="165" fill="rgb(0, 0, 0)" stroke="rgb(189, 189, 189)" stroke-width="1px" opacity="0.25"></line><line x1="96.27604166666666" y1="0" x2="96.27604166666666" y2="165" fill="rgb(0, 0, 0)" stroke="rgb(189, 189, 189)" stroke-width="1px" opacity="0.25"></line><line x1="120.34505208333334" y1="0" x2="120.34505208333334" y2="165" fill="rgb(0, 0, 0)" stroke="rgb(189, 189, 189)" stroke-width="1px" opacity="0.25"></line><line x1="144.4140625" y1="0" x2="144.4140625" y2="165" fill="rgb(0, 0, 0)" stroke="rgb(189, 189, 189)" stroke-width="1px" opacity="0.25"></line><line x1="168.48307291666669" y1="0" x2="168.48307291666669" y2="165" fill="rgb(0, 0, 0)" stroke="rgb(189, 189, 189)" stroke-width="1px" opacity="0.25"></line><line x1="192.55208333333331" y1="0" x2="192.55208333333331" y2="165" fill="rgb(0, 0, 0)" stroke="rgb(189, 189, 189)" stroke-width="1px" opacity="0.25"></line><line x1="216.62109375" y1="0" x2="216.62109375" y2="165" fill="rgb(0, 0, 0)" stroke="rgb(189, 189, 189)" stroke-width="1px" opacity="0.25"></line><line x1="240.69010416666669" y1="0" x2="240.69010416666669" y2="165" fill="rgb(0, 0, 0)" stroke="rgb(189, 189, 189)" stroke-width="1px" opacity="0.25"></line><line x1="264.7591145833333" y1="0" x2="264.7591145833333" y2="165" fill="rgb(0, 0, 0)" stroke="rgb(189, 189, 189)" stroke-width="1px" opacity="0.25"></line><line x1="288.828125" y1="0" x2="288.828125" y2="165" fill="rgb(0, 0, 0)" stroke="rgb(189, 189, 189)" stroke-width="1px" opacity="0.25"></line></g><g><line x1="0" y1="165" x2="288.828125" y2="165" fill="rgb(0, 0, 0)" stroke="rgb(189, 189, 189)" stroke-width="1px" opacity="0.25"></line><line x1="0" y1="151.25" x2="288.828125" y2="151.25" fill="rgb(0, 0, 0)" stroke="rgb(189, 189, 189)" stroke-width="1px" opacity="0.25"></line><line x1="0" y1="137.5" x2="288.828125" y2="137.5" fill="rgb(0, 0, 0)" stroke="rgb(189, 189, 189)" stroke-width="1px" opacity="0.25"></line><line x1="0" y1="123.75" x2="288.828125" y2="123.75" fill="rgb(0, 0, 0)" stroke="rgb(189, 189, 189)" stroke-width="1px" opacity="0.25"></line><line x1="0" y1="110.00000000000001" x2="288.828125" y2="110.00000000000001" fill="rgb(0, 0, 0)" stroke="rgb(189, 189, 189)" stroke-width="1px" opacity="0.25"></line><line x1="0" y1="96.24999999999999" x2="288.828125" y2="96.24999999999999" fill="rgb(0, 0, 0)" stroke="rgb(189, 189, 189)" stroke-width="1px" opacity="0.25"></line><line x1="0" y1="82.5" x2="288.828125" y2="82.5" fill="rgb(0, 0, 0)" stroke="rgb(189, 189, 189)" stroke-width="1px" opacity="0.25"></line><line x1="0" y1="68.75" x2="288.828125" y2="68.75" fill="rgb(0, 0, 0)" stroke="rgb(189, 189, 189)" stroke-width="1px" opacity="0.25"></line><line x1="0" y1="55.00000000000001" x2="288.828125" y2="55.00000000000001" fill="rgb(0, 0, 0)" stroke="rgb(189, 189, 189)" stroke-width="1px" opacity="0.25"></line><line x1="0" y1="41.25" x2="288.828125" y2="41.25" fill="rgb(0, 0, 0)" stroke="rgb(189, 189, 189)" stroke-width="1px" opacity="0.25"></line><line x1="0" y1="27.499999999999993" x2="288.828125" y2="27.499999999999993" fill="rgb(0, 0, 0)" stroke="rgb(189, 189, 189)" stroke-width="1px" opacity="0.25"></line><line x1="0" y1="13.750000000000005" x2="288.828125" y2="13.750000000000005" fill="rgb(0, 0, 0)" stroke="rgb(189, 189, 189)" stroke-width="1px" opacity="0.25"></line><line x1="0" y1="0" x2="288.828125" y2="0" fill="rgb(0, 0, 0)" stroke="rgb(189, 189, 189)" stroke-width="1px" opacity="0.25"></line></g></g></g><g><g><line x1="0" y1="220" x2="288.828125" y2="220" fill="rgb(0, 0, 0)" stroke="rgb(153, 153, 153)" stroke-width="1.5px"></line></g></g><g><g><line x1="-11496081.4453125" y1="0" x2="-11496081.4453125" y2="165" fill="rgb(0, 0, 0)" stroke="rgb(153, 153, 153)" stroke-width="1.5px"></line></g></g><g><g><g><g><g><path stroke="rgb(255, 112, 67)" stroke-width="2px" d="M19.470706206597225,151.9375L24.476953399884263,89.63281249999999L29.562167004846643,112.30102040816327L35.786219209346065,67.32697610294119L37.212374934895834,111.24093420450923L37.67063552155671,124.08550414382194L43.625830193865745,104.28450112827723L44.71868361183449,58.22202800845001L45.8086888635706,92.20064295702278L46.17852926613137,93.83023932026455L51.38608698820891,88.31563677647976L52.355593413628476,72.20431121700044L53.37486251808449,45.48769297259701L54.46097661313657,94.76122773796426L60.30574132848669,79.67464315724015L61.2232720630787,54.397654978165825L62.34048198242188,80.35548678068794L62.973383297164354,92.7645523325725L68.70309145688657,77.14706424807649L69.61072715386285,52.06232141090346L70.42539629810474,85.68813049425617L76.20330933702257,81.93782893444556L77.06254626555267,68.41259054777207L77.9363115162037,34.905726096250696L82.57042506510416,88.29108785348824L87.88181382378473,74.97462999664901L88.88242944516782,49.1097515255354L89.69362195457175,13.79082922617514L94.2259169035735,75.74118772774722L100.4767793113426,68.54471104569501L101.61872013888889,44.47265397028328L102.70445982711227,86.42734572120172L108.11612944335937,77.98140702941086L109.16439501953124,55.65759357804292L110.24399042426215,94.58205681596483L116.68420908564813,73.52423387237957L117.61226332646123,44.73329014525053L118.84571988028067,80.34275246339367L124.21195923936632,75.43065146709246L125.17915905128761,60.383390860141056L126.28057702546296,83.75919980277754L126.84766965422455,97.46385462031726L132.64774624023437,90.37831277014448L133.69773007631656,60.62073765693142L134.85946097909434,84.77244259666931L135.2474801703559,87.71346555818502L140.18707626229744,80.12807933462716L141.26586936668113,64.16434760041788L142.39606317997686,62.4923585602282L142.73604463794848,75.99541513624605L148.8418444571036,73.78474908173692L149.81687338324653,51.80584777051139L151.08963596824364,82.60017393030493L151.59321315285013,92.46010435819329L158.13890756655093,74.72606261490482L159.26827902199074,39.88563756892974L160.05478742404514,85.42138212175145L167.48770567672165,69.26532927304866L168.64283097330727,66.44669756382896L176.80824275716145,50.08230305367742L177.90138366608795,80.20250683220733L185.02619184208623,70.25900409932422L186.32401294126157,61.56254471728486L186.924227202691,83.96252683037108L193.30164580439813,82.00251609822263L194.42928562825523,54.2615079804667L195.64978503146702,86.73190478828008L202.75904195240165,70.12039287296805L203.84829170464408,41.934735723780804L208.47981114908853,88.64000880029633L215.0029074363426,80.95900528017779L216.0314631673177,44.65665316810666L217.16274677191842,89.21899190086398L222.54108749457464,84.05639514051842L223.67685060944734,67.02550654842236L224.78413206199363,61.783161671363004L231.22279292353878,63.103231734873475L232.35312713939524,36.48693904092407L237.8440172290943,90.97827430254517L238.24891147099248,88.96196458152711L244.178686593967,68.91467874891627L245.26867847403068,36.76547671346109L246.4899066333912,79.58928518884326L251.69094566514755,79.10357111330597L252.94226008752892,53.8971409895168L254.03881077293113,70.28828459371007L255.0809788664641,94.34439752929734L260.5428123119213,79.1566385175784L261.628090677445,53.26898311054704L262.63568631184893,94.75305723235608L262.95066274233216,95.90183433941365L267.95953746925636,87.51610060364818L269.21268381076385,74.2346603621889L270.13643905888307,46.282465681424654L271.40741652560763,80.38614467679915" style="fill: none;" fill="none"></path></g></g></g></g><g opacity="0.2"><g><g><g><path stroke="rgb(255, 112, 67)" stroke-width="2px" d="M19.470706206597225,151.9375L24.476953399884263,52.25L29.562167004846643,134.0625L35.786219209346065,14.437500000000004L37.212374934895834,168.5749979019165L37.67063552155671,141.85416841506958L43.625830193865745,75.96875L44.71868361183449,-8.937500000000005L45.8086888635706,142.3125L46.17852926613137,96.24999999999999L51.38608698820891,80.09375000000001L52.355593413628476,48.12499999999999L53.37486251808449,5.499999999999999L54.46097661313657,168.5749979019165L60.30574132848669,57.0625L61.2232720630787,16.499999999999996L62.34048198242188,119.28125L62.973383297164354,111.37500000000001L68.70309145688657,53.723211288452156L69.61072715386285,14.437500000000004L70.42539629810474,136.125L76.20330933702257,76.3125L77.06254626555267,48.12499999999999L77.9363115162037,-15.354173660278326L82.57042506510416,168.36875104904175L87.88181382378473,55.00000000000001L88.88242944516782,10.3125L89.69362195457175,-39.18750000000001L94.2259169035735,168.66666841506958L100.4767793113426,57.74999999999999L101.61872013888889,8.364576339721681L102.70445982711227,149.359375L108.11612944335937,65.3125L109.16439501953124,22.171875000000004L110.24399042426215,152.96875L116.68420908564813,41.9375L117.61226332646123,1.5468750000000036L118.84571988028067,133.7569456100464L124.21195923936632,68.0625L125.17915905128761,37.81249999999999L126.28057702546296,118.82291316986083L126.84766965422455,118.02083683013916L132.64774624023437,79.74999999999999L133.69773007631656,15.984375000000007L134.85946097909434,121.00000000000001L135.2474801703559,92.125L140.18707626229744,68.75L141.26586936668113,40.21875000000001L142.39606317997686,59.984375L142.73604463794848,96.24999999999999L148.8418444571036,70.46875L149.81687338324653,18.83749580383301L151.08963596824364,128.79166316986084L151.59321315285013,107.25L158.13890756655093,48.12499999999999L159.26827902199074,-12.374999999999993L160.05478742404514,153.72499895095825L167.48770567672165,45.03125000000001L168.64283097330727,62.21875L176.80824275716145,25.535711288452145L177.90138366608795,125.3828125L185.02619184208623,55.34375000000001L186.32401294126157,48.51785564422608L186.924227202691,117.5625L193.30164580439813,79.0625L194.42928562825523,12.649995803833015L195.64978503146702,135.4375L202.75904195240165,45.20312499999999L203.84829170464408,-0.3437500000000171L208.47981114908853,158.69791841506958L215.0029074363426,69.43749999999999L216.0314631673177,-9.796874999999993L217.16274677191842,156.0625L222.54108749457464,76.3125L223.67685060944734,41.47917366027833L224.78413206199363,53.91964435577392L231.22279292353878,65.08333683013916L232.35312713939524,-3.4374999999999876L237.8440172290943,172.7152771949768L238.24891147099248,85.93749999999999L244.178686593967,38.84375000000001L245.26867847403068,-11.45832633972169L246.4899066333912,143.8249979019165L251.69094566514755,78.375L252.94226008752892,16.087495803833004L254.03881077293113,94.87499999999999L255.0809788664641,130.42856693267822L260.5428123119213,56.375L261.628090677445,14.437500000000004L262.63568631184893,156.97916841506958L262.95066274233216,97.625L267.95953746925636,74.93750000000001L269.21268381076385,54.31250000000001L270.13643905888307,4.354173660278327L271.40741652560763,131.54166316986084" style="fill: none;" fill="none"></path></g></g></g></g></g></g><g transform="translate(41, 165)" clip-path="url(#clip_1)"><clipPath id="clip_1"><rect width="288" height="35"></rect></clipPath><g><g visibility="inherit"><g><g transform="translate(0,0)" style="visibility: inherit;"><text transform="translate(3,14)" style="text-anchor: start; font-family: Roboto, sans-serif; font-size: 12px; font-weight: 200;" fill="rgb(255, 255, 255)" stroke="none" stroke-width="1px">12 PM</text></g><g transform="translate(72.20703125,0)" style="visibility: inherit;"><text transform="translate(3,14)" style="text-anchor: start; font-family: Roboto, sans-serif; font-size: 12px; font-weight: 200;" fill="rgb(255, 255, 255)" stroke="none" stroke-width="1px">03 PM</text></g><g transform="translate(144.4140625,0)" style="visibility: inherit;"><text transform="translate(3,14)" style="text-anchor: start; font-family: Roboto, sans-serif; font-size: 12px; font-weight: 200;" fill="rgb(255, 255, 255)" stroke="none" stroke-width="1px">06 PM</text></g><g transform="translate(216.62109375,0)" style="visibility: inherit;"><text transform="translate(3,14)" style="text-anchor: start; font-family: Roboto, sans-serif; font-size: 12px; font-weight: 200;" fill="rgb(255, 255, 255)" stroke="none" stroke-width="1px">09 PM</text></g><g transform="translate(288.828125,0)" style="visibility: hidden;"><text transform="translate(3,14)" style="text-anchor: start; font-family: Roboto, sans-serif; font-size: 12px; font-weight: 200;" fill="rgb(255, 255, 255)" stroke="none" stroke-width="1px">12 AM</text></g></g><g><line x1="0" y1="0" x2="0" y2="17" fill="rgb(0, 0, 0)" stroke="rgb(204, 204, 204)" stroke-width="1px"></line><line x1="72.20703125" y1="0" x2="72.20703125" y2="17" fill="rgb(0, 0, 0)" stroke="rgb(204, 204, 204)" stroke-width="1px"></line><line x1="144.4140625" y1="0" x2="144.4140625" y2="17" fill="rgb(0, 0, 0)" stroke="rgb(204, 204, 204)" stroke-width="1px"></line><line x1="216.62109375" y1="0" x2="216.62109375" y2="17" fill="rgb(0, 0, 0)" stroke="rgb(204, 204, 204)" stroke-width="1px"></line><line x1="288.828125" y1="0" x2="288.828125" y2="17" fill="rgb(0, 0, 0)" stroke="rgb(204, 204, 204)" stroke-width="1px"></line></g><line x1="0" y1="0" x2="288.828125" y2="0" style="visibility: inherit;" fill="rgb(0, 0, 0)" stroke="rgb(204, 204, 204)" stroke-width="1px"></line></g><g visibility="inherit"><g><g transform="translate(144.4140625,0)" style="visibility: inherit;"><text transform="translate(0,31)" style="text-anchor: middle; font-family: Roboto, sans-serif; font-size: 12px; font-weight: 200;" fill="rgb(255, 255, 255)" stroke="none" stroke-width="1px">June 27, 2024</text></g></g><g><line x1="0" y1="17" x2="0" y2="34" fill="rgb(0, 0, 0)" stroke="rgb(204, 204, 204)" stroke-width="1px"></line><line x1="288.828125" y1="17" x2="288.828125" y2="34" fill="rgb(0, 0, 0)" stroke="rgb(204, 204, 204)" stroke-width="1px"></line></g><line x1="0" y1="17" x2="288.828125" y2="17" style="visibility: inherit;" fill="rgb(0, 0, 0)" stroke="rgb(204, 204, 204)" stroke-width="1px"></line></g></g></g></g></g></svg>