<svg viewBox="0 0 330.0000305175781 200.00001525878906" xmlns="http://www.w3.org/2000/svg"><g><g><g><g><g><line x1="72.34375" y1="165" x2="67.34375" y2="165" style="visibility: inherit;" fill="rgb(0, 0, 0)" stroke="rgb(204, 204, 204)" stroke-width="1px"></line><line x1="72.34375" y1="152.30769230769232" x2="67.34375" y2="152.30769230769232" style="visibility: inherit;" fill="rgb(0, 0, 0)" stroke="rgb(204, 204, 204)" stroke-width="1px"></line><line x1="72.34375" y1="139.6153846153846" x2="67.34375" y2="139.6153846153846" style="visibility: inherit;" fill="rgb(0, 0, 0)" stroke="rgb(204, 204, 204)" stroke-width="1px"></line><line x1="72.34375" y1="126.9230769230769" x2="67.34375" y2="126.9230769230769" style="visibility: inherit;" fill="rgb(0, 0, 0)" stroke="rgb(204, 204, 204)" stroke-width="1px"></line><line x1="72.34375" y1="114.23076923076923" x2="67.34375" y2="114.23076923076923" style="visibility: inherit;" fill="rgb(0, 0, 0)" stroke="rgb(204, 204, 204)" stroke-width="1px"></line><line x1="72.34375" y1="101.53846153846155" x2="67.34375" y2="101.53846153846155" style="visibility: inherit;" fill="rgb(0, 0, 0)" stroke="rgb(204, 204, 204)" stroke-width="1px"></line><line x1="72.34375" y1="88.84615384615384" x2="67.34375" y2="88.84615384615384" style="visibility: inherit;" fill="rgb(0, 0, 0)" stroke="rgb(204, 204, 204)" stroke-width="1px"></line><line x1="72.34375" y1="76.15384615384615" x2="67.34375" y2="76.15384615384615" style="visibility: inherit;" fill="rgb(0, 0, 0)" stroke="rgb(204, 204, 204)" stroke-width="1px"></line><line x1="72.34375" y1="63.46153846153845" x2="67.34375" y2="63.46153846153845" style="visibility: inherit;" fill="rgb(0, 0, 0)" stroke="rgb(204, 204, 204)" stroke-width="1px"></line><line x1="72.34375" y1="50.769230769230774" x2="67.34375" y2="50.769230769230774" style="visibility: inherit;" fill="rgb(0, 0, 0)" stroke="rgb(204, 204, 204)" stroke-width="1px"></line><line x1="72.34375" y1="38.07692307692307" x2="67.34375" y2="38.07692307692307" style="visibility: inherit;" fill="rgb(0, 0, 0)" stroke="rgb(204, 204, 204)" stroke-width="1px"></line><line x1="72.34375" y1="25.384615384615387" x2="67.34375" y2="25.384615384615387" style="visibility: inherit;" fill="rgb(0, 0, 0)" stroke="rgb(204, 204, 204)" stroke-width="1px"></line><line x1="72.34375" y1="12.692307692307685" x2="67.34375" y2="12.692307692307685" style="visibility: inherit;" fill="rgb(0, 0, 0)" stroke="rgb(204, 204, 204)" stroke-width="1px"></line><line x1="72.34375" y1="0" x2="67.34375" y2="0" style="visibility: inherit;" fill="rgb(0, 0, 0)" stroke="rgb(204, 204, 204)" stroke-width="1px"></line></g><g transform="translate(62.34375, 0)"><text x="0" y="165" dx="0em" dy="0.3em" style="text-anchor: end; visibility: hidden; font-family: Roboto, sans-serif; font-size: 12px; font-weight: 200;" fill="rgb(255, 255, 255)" stroke="none" stroke-width="1px">0</text><text x="0" y="152.30769230769232" dx="0em" dy="0.3em" style="text-anchor: end; visibility: inherit; font-family: Roboto, sans-serif; font-size: 12px; font-weight: 200;" fill="rgb(255, 255, 255)" stroke="none" stroke-width="1px">5e-4</text><text x="0" y="139.6153846153846" dx="0em" dy="0.3em" style="text-anchor: end; visibility: hidden; font-family: Roboto, sans-serif; font-size: 12px; font-weight: 200;" fill="rgb(255, 255, 255)" stroke="none" stroke-width="1px">1e-3</text><text x="0" y="126.9230769230769" dx="0em" dy="0.3em" style="text-anchor: end; visibility: inherit; font-family: Roboto, sans-serif; font-size: 12px; font-weight: 200;" fill="rgb(255, 255, 255)" stroke="none" stroke-width="1px">1.5e-3</text><text x="0" y="114.23076923076923" dx="0em" dy="0.3em" style="text-anchor: end; visibility: hidden; font-family: Roboto, sans-serif; font-size: 12px; font-weight: 200;" fill="rgb(255, 255, 255)" stroke="none" stroke-width="1px">2e-3</text><text x="0" y="101.53846153846155" dx="0em" dy="0.3em" style="text-anchor: end; visibility: inherit; font-family: Roboto, sans-serif; font-size: 12px; font-weight: 200;" fill="rgb(255, 255, 255)" stroke="none" stroke-width="1px">2.5e-3</text><text x="0" y="88.84615384615384" dx="0em" dy="0.3em" style="text-anchor: end; visibility: hidden; font-family: Roboto, sans-serif; font-size: 12px; font-weight: 200;" fill="rgb(255, 255, 255)" stroke="none" stroke-width="1px">3e-3</text><text x="0" y="76.15384615384615" dx="0em" dy="0.3em" style="text-anchor: end; visibility: inherit; font-family: Roboto, sans-serif; font-size: 12px; font-weight: 200;" fill="rgb(255, 255, 255)" stroke="none" stroke-width="1px">3.5e-3</text><text x="0" y="63.46153846153845" dx="0em" dy="0.3em" style="text-anchor: end; visibility: hidden; font-family: Roboto, sans-serif; font-size: 12px; font-weight: 200;" fill="rgb(255, 255, 255)" stroke="none" stroke-width="1px">4e-3</text><text x="0" y="50.769230769230774" dx="0em" dy="0.3em" style="text-anchor: end; visibility: inherit; font-family: Roboto, sans-serif; font-size: 12px; font-weight: 200;" fill="rgb(255, 255, 255)" stroke="none" stroke-width="1px">4.5e-3</text><text x="0" y="38.07692307692307" dx="0em" dy="0.3em" style="text-anchor: end; visibility: hidden; font-family: Roboto, sans-serif; font-size: 12px; font-weight: 200;" fill="rgb(255, 255, 255)" stroke="none" stroke-width="1px">5e-3</text><text x="0" y="25.384615384615387" dx="0em" dy="0.3em" style="text-anchor: end; visibility: inherit; font-family: Roboto, sans-serif; font-size: 12px; font-weight: 200;" fill="rgb(255, 255, 255)" stroke="none" stroke-width="1px">5.5e-3</text><text x="0" y="12.692307692307685" dx="0em" dy="0.3em" style="text-anchor: end; visibility: hidden; font-family: Roboto, sans-serif; font-size: 12px; font-weight: 200;" fill="rgb(255, 255, 255)" stroke="none" stroke-width="1px">6e-3</text><text x="0" y="0" dx="0em" dy="0.3em" style="text-anchor: end; visibility: hidden; font-family: Roboto, sans-serif; font-size: 12px; font-weight: 200;" fill="rgb(255, 255, 255)" stroke="none" stroke-width="1px">6.5e-3</text></g><line x1="72.34375" y1="0" x2="72.34375" y2="165" fill="rgb(0, 0, 0)" stroke="rgb(204, 204, 204)" stroke-width="1px"></line></g></g><g transform="translate(72, 0)" clip-path="url(#clip_0)"><clipPath id="clip_0"><rect width="257" height="165"></rect></clipPath><g><g><g><line x1="0" y1="0" x2="0" y2="165" fill="rgb(0, 0, 0)" stroke="rgb(189, 189, 189)" stroke-width="1px" opacity="0.25"></line><line x1="21.471354166666664" y1="0" x2="21.471354166666664" y2="165" fill="rgb(0, 0, 0)" stroke="rgb(189, 189, 189)" stroke-width="1px" opacity="0.25"></line><line x1="42.94270833333333" y1="0" x2="42.94270833333333" y2="165" fill="rgb(0, 0, 0)" stroke="rgb(189, 189, 189)" stroke-width="1px" opacity="0.25"></line><line x1="64.4140625" y1="0" x2="64.4140625" y2="165" fill="rgb(0, 0, 0)" stroke="rgb(189, 189, 189)" stroke-width="1px" opacity="0.25"></line><line x1="85.88541666666666" y1="0" x2="85.88541666666666" y2="165" fill="rgb(0, 0, 0)" stroke="rgb(189, 189, 189)" stroke-width="1px" opacity="0.25"></line><line x1="107.35677083333334" y1="0" x2="107.35677083333334" y2="165" fill="rgb(0, 0, 0)" stroke="rgb(189, 189, 189)" stroke-width="1px" opacity="0.25"></line><line x1="128.828125" y1="0" x2="128.828125" y2="165" fill="rgb(0, 0, 0)" stroke="rgb(189, 189, 189)" stroke-width="1px" opacity="0.25"></line><line x1="150.29947916666669" y1="0" x2="150.29947916666669" y2="165" fill="rgb(0, 0, 0)" stroke="rgb(189, 189, 189)" stroke-width="1px" opacity="0.25"></line><line x1="171.77083333333331" y1="0" x2="171.77083333333331" y2="165" fill="rgb(0, 0, 0)" stroke="rgb(189, 189, 189)" stroke-width="1px" opacity="0.25"></line><line x1="193.2421875" y1="0" x2="193.2421875" y2="165" fill="rgb(0, 0, 0)" stroke="rgb(189, 189, 189)" stroke-width="1px" opacity="0.25"></line><line x1="214.71354166666669" y1="0" x2="214.71354166666669" y2="165" fill="rgb(0, 0, 0)" stroke="rgb(189, 189, 189)" stroke-width="1px" opacity="0.25"></line><line x1="236.18489583333331" y1="0" x2="236.18489583333331" y2="165" fill="rgb(0, 0, 0)" stroke="rgb(189, 189, 189)" stroke-width="1px" opacity="0.25"></line><line x1="257.65625" y1="0" x2="257.65625" y2="165" fill="rgb(0, 0, 0)" stroke="rgb(189, 189, 189)" stroke-width="1px" opacity="0.25"></line></g><g><line x1="0" y1="165" x2="257.65625" y2="165" fill="rgb(0, 0, 0)" stroke="rgb(189, 189, 189)" stroke-width="1px" opacity="0.25"></line><line x1="0" y1="152.30769230769232" x2="257.65625" y2="152.30769230769232" fill="rgb(0, 0, 0)" stroke="rgb(189, 189, 189)" stroke-width="1px" opacity="0.25"></line><line x1="0" y1="139.6153846153846" x2="257.65625" y2="139.6153846153846" fill="rgb(0, 0, 0)" stroke="rgb(189, 189, 189)" stroke-width="1px" opacity="0.25"></line><line x1="0" y1="126.9230769230769" x2="257.65625" y2="126.9230769230769" fill="rgb(0, 0, 0)" stroke="rgb(189, 189, 189)" stroke-width="1px" opacity="0.25"></line><line x1="0" y1="114.23076923076923" x2="257.65625" y2="114.23076923076923" fill="rgb(0, 0, 0)" stroke="rgb(189, 189, 189)" stroke-width="1px" opacity="0.25"></line><line x1="0" y1="101.53846153846155" x2="257.65625" y2="101.53846153846155" fill="rgb(0, 0, 0)" stroke="rgb(189, 189, 189)" stroke-width="1px" opacity="0.25"></line><line x1="0" y1="88.84615384615384" x2="257.65625" y2="88.84615384615384" fill="rgb(0, 0, 0)" stroke="rgb(189, 189, 189)" stroke-width="1px" opacity="0.25"></line><line x1="0" y1="76.15384615384615" x2="257.65625" y2="76.15384615384615" fill="rgb(0, 0, 0)" stroke="rgb(189, 189, 189)" stroke-width="1px" opacity="0.25"></line><line x1="0" y1="63.46153846153845" x2="257.65625" y2="63.46153846153845" fill="rgb(0, 0, 0)" stroke="rgb(189, 189, 189)" stroke-width="1px" opacity="0.25"></line><line x1="0" y1="50.769230769230774" x2="257.65625" y2="50.769230769230774" fill="rgb(0, 0, 0)" stroke="rgb(189, 189, 189)" stroke-width="1px" opacity="0.25"></line><line x1="0" y1="38.07692307692307" x2="257.65625" y2="38.07692307692307" fill="rgb(0, 0, 0)" stroke="rgb(189, 189, 189)" stroke-width="1px" opacity="0.25"></line><line x1="0" y1="25.384615384615387" x2="257.65625" y2="25.384615384615387" fill="rgb(0, 0, 0)" stroke="rgb(189, 189, 189)" stroke-width="1px" opacity="0.25"></line><line x1="0" y1="12.692307692307685" x2="257.65625" y2="12.692307692307685" fill="rgb(0, 0, 0)" stroke="rgb(189, 189, 189)" stroke-width="1px" opacity="0.25"></line><line x1="0" y1="0" x2="257.65625" y2="0" fill="rgb(0, 0, 0)" stroke="rgb(189, 189, 189)" stroke-width="1px" opacity="0.25"></line></g></g></g><g><g><line x1="0" y1="165" x2="257.65625" y2="165" fill="rgb(0, 0, 0)" stroke="rgb(153, 153, 153)" stroke-width="1.5px"></line></g></g><g><g><line x1="-10255362.890625" y1="0" x2="-10255362.890625" y2="165" fill="rgb(0, 0, 0)" stroke="rgb(153, 153, 153)" stroke-width="1.5px"></line></g></g><g><g><g><g><g><path stroke="rgb(255, 112, 67)" stroke-width="2px" d="M17.369323524305557,141.30769315247352L17.371285767505785,91.70192790683359L19.327367881944443,81.86462928004435L21.835269762731482,86.62848194077088L26.37166589988426,87.59034746546894L31.92397915943287,106.68002226422148L33.19617478660301,124.57280250794555L33.60498340567129,133.27445170642025L38.91750338903357,122.50226792248537L39.89240426070602,130.75123969848906L40.86472856987847,121.85436547498259L41.19465978370949,111.67507586065017L45.84022582826967,129.98280298327523L46.705103902633105,108.43433760803514L47.61436207320602,127.00779746333713L48.5832628942419,122.70808135794209L53.79722936197917,113.22324564118166L54.61573527560764,94.67052678523532L55.612369929108795,114.10020342732932L56.17692340133102,124.30664976618216L61.28828661747685,127.04558855021241L62.09792963324653,134.78130153711484L62.82471111472801,139.08420013424754L67.97904089626736,112.89655519581937L68.74550859736691,76.42501433591957L69.5250082175926,39.42417951220062L73.65898346354166,66.50376722035969L79.28972680844907,8.42530641624627L80.01341283637151,48.71673727797043L84.05655232566552,77.29158727849632L89.63279421657985,77.85187742477183L90.65149068648728,97.20343548802134L91.61999786603009,114.76550142594844L96.44765888671876,110.49007117049236L97.38275425347221,130.263274010501L98.34586973741318,134.5118110323477L104.09103154296875,105.4147795438977L104.91892520978008,100.31040804509438L106.01925457537617,118.51445035380011L110.80634666521992,133.04713187277125L111.66915513961227,132.62828026945536L112.65170219907407,131.915430340427L113.15755537471065,135.2855224017547L118.3316984447338,136.0020827324678L119.26836241319445,121.20125193019929L120.30470714337385,134.20793089145405L120.65081940827547,108.95553011747545L125.05733770978009,58.26562701747887L126.01970169632523,86.06706820522857L127.02787720269097,89.20947270613075L127.33117797309028,105.31029951524066L132.77803706235534,112.94002627342512L133.64783565538195,67.15479317878301L134.78323489945024,96.01957350351991L135.232427557147,121.17482108676654L141.0717173936632,79.812590436945L142.0791950810185,98.99524743860134L142.7807775426794,115.92022572415252L149.4115372793692,132.5059817391703L150.44200124421297,136.70358961057752L150.59488325014468,105.37600144079794L157.72615218098957,113.26955767035915L158.70131548032407,125.07711953439319L165.05717627676506,114.64627401289295L166.21492958622687,119.21853486911166L166.75032376663773,125.85419876749893L172.4394990162037,96.8355964256628L173.44543792317708,106.95264119360516L174.53416679325812,121.03312333467957L174.6956015552662,138.61987400080773L180.8762083875868,73.35654248839988L181.84785873480902,78.19854133661107L185.9795556315104,97.41143347706321L186.16451345486112,31.031482854493312L191.79864450231483,44.68042824736476L192.7161930013021,71.92034555704599L193.7253287543403,99.74653996003049L198.52326984230325,125.8479239760183L199.53645533130788,128.91798621170088L200.52417937282985,130.40463859577855L206.26799325448496,126.64278429161743L207.276335760272,105.43182504903632L212.1746256076389,124.18217230238943L212.53578571325232,121.21699654588541L217.8256235966435,136.69942874806358L218.79797772714122,148.01965724883814L219.8873984519676,152.55538421556452L220.0772529369213,133.16400096675812L224.52711355251733,132.3599391865931L225.64337943431713,138.3082714576979L226.6215427589699,134.26188613878065L227.5512404658565,137.92636292910706L232.4236394386574,148.75581775746423L233.39178876229747,139.00733721873706L234.29063929036457,143.4315518903125L234.57158599537038,122.27431748704753L239.03991197554978,128.19535978351936L240.15781206597222,121.7972181767426L240.98182896050346,133.27613375702214L242.11562978153935,118.15976486528986" style="fill: none;" fill="none"></path></g></g></g></g><g opacity="0.2"><g><g><g><path stroke="rgb(255, 112, 67)" stroke-width="2px" d="M17.369323524305557,141.30769315247352L17.371285767505785,61.93846875944962L19.327367881944443,72.42082259832665L21.835269762731482,92.2307726697853L26.37166589988426,88.84615909451475L31.92397915943287,133.08791479382376L33.19617478660301,150.15976454095485L33.60498340567129,145.9615397736287L38.91750338903357,106.61538923015962L39.89240426070602,143.00000141768788L40.86472856987847,108.58974813412016L41.19465978370949,96.46153668371531L45.84022582826967,157.38461576169357L46.705103902633105,76.15385523209204L47.61436207320602,154.84615484145112L48.5832628942419,116.26153969277556L53.79722936197917,99.00000573064273L54.61573527560764,66.84615903462355L55.612369929108795,143.24175847479358L56.17692340133102,139.61538636483826L61.28828661747685,131.15384651634554L62.09792963324653,146.3846164705375L62.82471111472801,145.53846307671986L67.97904089626736,73.61539800579732L68.74550859736691,21.717962270172738L69.5250082175926,-16.076914931719145L73.65898346354166,107.1230794933553L79.28972680844907,-78.69229562580585L80.01341283637151,109.15384645645435L84.05655232566552,120.15384648639997L89.63279421657985,78.6923124583868L90.65149068648728,126.2307687325833L91.61999786603009,141.10859823628113L96.44765888671876,104.07692609354854L97.38275425347221,159.92307742072555L98.34586973741318,140.8846164555647L104.09103154296875,61.76923276140139L104.91892520978008,92.6538508442732L106.01925457537617,145.82051371546606L110.80634666521992,154.8461541026616L111.66915513961227,132.00000286532136L112.65170219907407,130.84615544774212L113.15755537471065,140.34066049131349L118.3316984447338,137.07692322822717L119.26836241319445,99.00000573064273L120.30470714337385,153.7179493313082L120.65081940827547,71.0769289588699L125.05733770978009,-17.769227629670745L126.01970169632523,127.76922998591684L127.02787720269097,93.92307945742056L127.33117797309028,129.46153972871028L132.77803706235534,124.38461641064629L133.64783565538195,-1.5230564629802534L134.78323489945024,139.31674399054967L135.232427557147,158.90769246159695L141.0717173936632,17.769244462251663L142.0791950810185,127.76923294107502L142.7807775426794,141.30769315247352L149.4115372793692,157.38461576169357L150.44200124421297,143.00000141768788L150.59488325014468,58.38461918613084L157.72615218098957,125.10989201470062L158.70131548032407,142.78846233044393L165.05717627676506,99.00000573064273L166.21492958622687,126.07692615343973L166.75032376663773,135.8076946150798L172.4394990162037,53.30769291290869L173.44543792317708,122.12820834551866L174.53416679325812,142.15384654629116L174.6956015552662,165L180.8762083875868,-24.538454780211836L181.84785873480902,85.46153960892786L185.9795556315104,126.23077168774145L186.16451345486112,-68.53844307936156L191.79864450231483,65.15384633667193L192.7161930013021,112.78022152156785L193.7253287543403,141.48583156450724L198.52326984230325,165L199.53645533130788,133.52307956522475L200.52417937282985,132.63461717189506L206.26799325448496,121.00000283537577L207.276335760272,73.61538618516462L212.1746256076389,152.30769318241911L212.53578571325232,116.7692329111294L217.8256235966435,159.92307705133078L218.79797772714122,165L219.8873984519676,159.3589746656541L220.0772529369213,104.07692609354854L224.52711355251733,131.15384651634554L225.64337943431713,147.23076986435515L226.6215427589699,128.19230816040474L227.5512404658565,143.4230781145967L232.4236394386574,165L233.39178876229747,124.38461641064629L234.29063929036457,150.06787389767572L234.57158599537038,90.53846588215004L239.03991197554978,137.07692322822717L240.15781206597222,112.20000576657745L240.98182896050346,150.49450712744147L242.11562978153935,95.48521152769143" style="fill: none;" fill="none"></path></g></g></g></g></g></g><g transform="translate(72, 165)" clip-path="url(#clip_1)"><clipPath id="clip_1"><rect width="257" height="35"></rect></clipPath><g><g visibility="inherit"><g><g transform="translate(0,0)" style="visibility: inherit;"><text transform="translate(3,14)" style="text-anchor: start; font-family: Roboto, sans-serif; font-size: 12px; font-weight: 200;" fill="rgb(255, 255, 255)" stroke="none" stroke-width="1px">12 PM</text></g><g transform="translate(64.4140625,0)" style="visibility: inherit;"><text transform="translate(3,14)" style="text-anchor: start; font-family: Roboto, sans-serif; font-size: 12px; font-weight: 200;" fill="rgb(255, 255, 255)" stroke="none" stroke-width="1px">03 PM</text></g><g transform="translate(128.828125,0)" style="visibility: inherit;"><text transform="translate(3,14)" style="text-anchor: start; font-family: Roboto, sans-serif; font-size: 12px; font-weight: 200;" fill="rgb(255, 255, 255)" stroke="none" stroke-width="1px">06 PM</text></g><g transform="translate(193.2421875,0)" style="visibility: inherit;"><text transform="translate(3,14)" style="text-anchor: start; font-family: Roboto, sans-serif; font-size: 12px; font-weight: 200;" fill="rgb(255, 255, 255)" stroke="none" stroke-width="1px">09 PM</text></g><g transform="translate(257.65625,0)" style="visibility: hidden;"><text transform="translate(3,14)" style="text-anchor: start; font-family: Roboto, sans-serif; font-size: 12px; font-weight: 200;" fill="rgb(255, 255, 255)" stroke="none" stroke-width="1px">12 AM</text></g></g><g><line x1="0" y1="0" x2="0" y2="17" fill="rgb(0, 0, 0)" stroke="rgb(204, 204, 204)" stroke-width="1px"></line><line x1="64.4140625" y1="0" x2="64.4140625" y2="17" fill="rgb(0, 0, 0)" stroke="rgb(204, 204, 204)" stroke-width="1px"></line><line x1="128.828125" y1="0" x2="128.828125" y2="17" fill="rgb(0, 0, 0)" stroke="rgb(204, 204, 204)" stroke-width="1px"></line><line x1="193.2421875" y1="0" x2="193.2421875" y2="17" fill="rgb(0, 0, 0)" stroke="rgb(204, 204, 204)" stroke-width="1px"></line><line x1="257.65625" y1="0" x2="257.65625" y2="17" fill="rgb(0, 0, 0)" stroke="rgb(204, 204, 204)" stroke-width="1px"></line></g><line x1="0" y1="0" x2="257.65625" y2="0" style="visibility: inherit;" fill="rgb(0, 0, 0)" stroke="rgb(204, 204, 204)" stroke-width="1px"></line></g><g visibility="inherit"><g><g transform="translate(128.828125,0)" style="visibility: inherit;"><text transform="translate(0,31)" style="text-anchor: middle; font-family: Roboto, sans-serif; font-size: 12px; font-weight: 200;" fill="rgb(255, 255, 255)" stroke="none" stroke-width="1px">June 27, 2024</text></g></g><g><line x1="0" y1="17" x2="0" y2="34" fill="rgb(0, 0, 0)" stroke="rgb(204, 204, 204)" stroke-width="1px"></line><line x1="257.65625" y1="17" x2="257.65625" y2="34" fill="rgb(0, 0, 0)" stroke="rgb(204, 204, 204)" stroke-width="1px"></line></g><line x1="0" y1="17" x2="257.65625" y2="17" style="visibility: inherit;" fill="rgb(0, 0, 0)" stroke="rgb(204, 204, 204)" stroke-width="1px"></line></g></g></g></g></g></svg>