<svg viewBox="0 0 330.0000305175781 200.00001525878906" xmlns="http://www.w3.org/2000/svg"><g><g><g><g><g><line x1="72.34375" y1="177" x2="67.34375" y2="177" style="visibility: inherit;" fill="rgb(0, 0, 0)" stroke="rgb(204, 204, 204)" stroke-width="1px"></line><line x1="72.34375" y1="160.90909090908758" x2="67.34375" y2="160.90909090908758" style="visibility: inherit;" fill="rgb(0, 0, 0)" stroke="rgb(204, 204, 204)" stroke-width="1px"></line><line x1="72.34375" y1="144.81818181817516" x2="67.34375" y2="144.81818181817516" style="visibility: inherit;" fill="rgb(0, 0, 0)" stroke="rgb(204, 204, 204)" stroke-width="1px"></line><line x1="72.34375" y1="128.72727272726274" x2="67.34375" y2="128.72727272726274" style="visibility: inherit;" fill="rgb(0, 0, 0)" stroke="rgb(204, 204, 204)" stroke-width="1px"></line><line x1="72.34375" y1="112.63636363636863" x2="67.34375" y2="112.63636363636863" style="visibility: inherit;" fill="rgb(0, 0, 0)" stroke="rgb(204, 204, 204)" stroke-width="1px"></line><line x1="72.34375" y1="96.54545454545621" x2="67.34375" y2="96.54545454545621" style="visibility: inherit;" fill="rgb(0, 0, 0)" stroke="rgb(204, 204, 204)" stroke-width="1px"></line><line x1="72.34375" y1="80.45454545454379" x2="67.34375" y2="80.45454545454379" style="visibility: inherit;" fill="rgb(0, 0, 0)" stroke="rgb(204, 204, 204)" stroke-width="1px"></line><line x1="72.34375" y1="64.36363636363137" x2="67.34375" y2="64.36363636363137" style="visibility: inherit;" fill="rgb(0, 0, 0)" stroke="rgb(204, 204, 204)" stroke-width="1px"></line><line x1="72.34375" y1="48.27272727271896" x2="67.34375" y2="48.27272727271896" style="visibility: inherit;" fill="rgb(0, 0, 0)" stroke="rgb(204, 204, 204)" stroke-width="1px"></line><line x1="72.34375" y1="32.18181818182484" x2="67.34375" y2="32.18181818182484" style="visibility: inherit;" fill="rgb(0, 0, 0)" stroke="rgb(204, 204, 204)" stroke-width="1px"></line><line x1="72.34375" y1="16.09090909091242" x2="67.34375" y2="16.09090909091242" style="visibility: inherit;" fill="rgb(0, 0, 0)" stroke="rgb(204, 204, 204)" stroke-width="1px"></line><line x1="72.34375" y1="0" x2="67.34375" y2="0" style="visibility: inherit;" fill="rgb(0, 0, 0)" stroke="rgb(204, 204, 204)" stroke-width="1px"></line></g><g transform="translate(62.34375, 0)"><text x="0" y="177" dx="0em" dy="0.3em" style="text-anchor: end; visibility: hidden; font-family: Roboto, sans-serif; font-size: 12px; font-weight: 200;" fill="rgb(255, 255, 255)" stroke="none" stroke-width="1px">1.2e+3</text><text x="0" y="160.90909090908758" dx="0em" dy="0.3em" style="text-anchor: end; visibility: inherit; font-family: Roboto, sans-serif; font-size: 12px; font-weight: 200;" fill="rgb(255, 255, 255)" stroke="none" stroke-width="1px">1.2e+3</text><text x="0" y="144.81818181817516" dx="0em" dy="0.3em" style="text-anchor: end; visibility: hidden; font-family: Roboto, sans-serif; font-size: 12px; font-weight: 200;" fill="rgb(255, 255, 255)" stroke="none" stroke-width="1px">1.2e+3</text><text x="0" y="128.72727272726274" dx="0em" dy="0.3em" style="text-anchor: end; visibility: inherit; font-family: Roboto, sans-serif; font-size: 12px; font-weight: 200;" fill="rgb(255, 255, 255)" stroke="none" stroke-width="1px">1.2e+3</text><text x="0" y="112.63636363636863" dx="0em" dy="0.3em" style="text-anchor: end; visibility: hidden; font-family: Roboto, sans-serif; font-size: 12px; font-weight: 200;" fill="rgb(255, 255, 255)" stroke="none" stroke-width="1px">1.2e+3</text><text x="0" y="96.54545454545621" dx="0em" dy="0.3em" style="text-anchor: end; visibility: inherit; font-family: Roboto, sans-serif; font-size: 12px; font-weight: 200;" fill="rgb(255, 255, 255)" stroke="none" stroke-width="1px">1.2e+3</text><text x="0" y="80.45454545454379" dx="0em" dy="0.3em" style="text-anchor: end; visibility: hidden; font-family: Roboto, sans-serif; font-size: 12px; font-weight: 200;" fill="rgb(255, 255, 255)" stroke="none" stroke-width="1px">1.2e+3</text><text x="0" y="64.36363636363137" dx="0em" dy="0.3em" style="text-anchor: end; visibility: inherit; font-family: Roboto, sans-serif; font-size: 12px; font-weight: 200;" fill="rgb(255, 255, 255)" stroke="none" stroke-width="1px">1.2e+3</text><text x="0" y="48.27272727271896" dx="0em" dy="0.3em" style="text-anchor: end; visibility: hidden; font-family: Roboto, sans-serif; font-size: 12px; font-weight: 200;" fill="rgb(255, 255, 255)" stroke="none" stroke-width="1px">1.2e+3</text><text x="0" y="32.18181818182484" dx="0em" dy="0.3em" style="text-anchor: end; visibility: inherit; font-family: Roboto, sans-serif; font-size: 12px; font-weight: 200;" fill="rgb(255, 255, 255)" stroke="none" stroke-width="1px">1.2e+3</text><text x="0" y="16.09090909091242" dx="0em" dy="0.3em" style="text-anchor: end; visibility: hidden; font-family: Roboto, sans-serif; font-size: 12px; font-weight: 200;" fill="rgb(255, 255, 255)" stroke="none" stroke-width="1px">1.2e+3</text><text x="0" y="0" dx="0em" dy="0.3em" style="text-anchor: end; visibility: hidden; font-family: Roboto, sans-serif; font-size: 12px; font-weight: 200;" fill="rgb(255, 255, 255)" stroke="none" stroke-width="1px">1.2e+3</text></g><line x1="72.34375" y1="0" x2="72.34375" y2="177" fill="rgb(0, 0, 0)" stroke="rgb(204, 204, 204)" stroke-width="1px"></line></g></g><g transform="translate(72, 0)" clip-path="url(#clip_0)"><clipPath id="clip_0"><rect width="257" height="176"></rect></clipPath><g><g><g><line x1="0" y1="0" x2="0" y2="177" fill="rgb(0, 0, 0)" stroke="rgb(189, 189, 189)" stroke-width="1px" opacity="0.25"></line><line x1="23.423295454545457" y1="0" x2="23.423295454545457" y2="177" fill="rgb(0, 0, 0)" stroke="rgb(189, 189, 189)" stroke-width="1px" opacity="0.25"></line><line x1="46.846590909090914" y1="0" x2="46.846590909090914" y2="177" fill="rgb(0, 0, 0)" stroke="rgb(189, 189, 189)" stroke-width="1px" opacity="0.25"></line><line x1="70.26988636363636" y1="0" x2="70.26988636363636" y2="177" fill="rgb(0, 0, 0)" stroke="rgb(189, 189, 189)" stroke-width="1px" opacity="0.25"></line><line x1="93.69318181818183" y1="0" x2="93.69318181818183" y2="177" fill="rgb(0, 0, 0)" stroke="rgb(189, 189, 189)" stroke-width="1px" opacity="0.25"></line><line x1="117.11647727272727" y1="0" x2="117.11647727272727" y2="177" fill="rgb(0, 0, 0)" stroke="rgb(189, 189, 189)" stroke-width="1px" opacity="0.25"></line><line x1="140.53977272727272" y1="0" x2="140.53977272727272" y2="177" fill="rgb(0, 0, 0)" stroke="rgb(189, 189, 189)" stroke-width="1px" opacity="0.25"></line><line x1="163.9630681818182" y1="0" x2="163.9630681818182" y2="177" fill="rgb(0, 0, 0)" stroke="rgb(189, 189, 189)" stroke-width="1px" opacity="0.25"></line><line x1="187.38636363636365" y1="0" x2="187.38636363636365" y2="177" fill="rgb(0, 0, 0)" stroke="rgb(189, 189, 189)" stroke-width="1px" opacity="0.25"></line><line x1="210.8096590909091" y1="0" x2="210.8096590909091" y2="177" fill="rgb(0, 0, 0)" stroke="rgb(189, 189, 189)" stroke-width="1px" opacity="0.25"></line><line x1="234.23295454545453" y1="0" x2="234.23295454545453" y2="177" fill="rgb(0, 0, 0)" stroke="rgb(189, 189, 189)" stroke-width="1px" opacity="0.25"></line><line x1="257.65625" y1="0" x2="257.65625" y2="177" fill="rgb(0, 0, 0)" stroke="rgb(189, 189, 189)" stroke-width="1px" opacity="0.25"></line></g><g><line x1="0" y1="177" x2="257.65625" y2="177" fill="rgb(0, 0, 0)" stroke="rgb(189, 189, 189)" stroke-width="1px" opacity="0.25"></line><line x1="0" y1="160.90909090908758" x2="257.65625" y2="160.90909090908758" fill="rgb(0, 0, 0)" stroke="rgb(189, 189, 189)" stroke-width="1px" opacity="0.25"></line><line x1="0" y1="144.81818181817516" x2="257.65625" y2="144.81818181817516" fill="rgb(0, 0, 0)" stroke="rgb(189, 189, 189)" stroke-width="1px" opacity="0.25"></line><line x1="0" y1="128.72727272726274" x2="257.65625" y2="128.72727272726274" fill="rgb(0, 0, 0)" stroke="rgb(189, 189, 189)" stroke-width="1px" opacity="0.25"></line><line x1="0" y1="112.63636363636863" x2="257.65625" y2="112.63636363636863" fill="rgb(0, 0, 0)" stroke="rgb(189, 189, 189)" stroke-width="1px" opacity="0.25"></line><line x1="0" y1="96.54545454545621" x2="257.65625" y2="96.54545454545621" fill="rgb(0, 0, 0)" stroke="rgb(189, 189, 189)" stroke-width="1px" opacity="0.25"></line><line x1="0" y1="80.45454545454379" x2="257.65625" y2="80.45454545454379" fill="rgb(0, 0, 0)" stroke="rgb(189, 189, 189)" stroke-width="1px" opacity="0.25"></line><line x1="0" y1="64.36363636363137" x2="257.65625" y2="64.36363636363137" fill="rgb(0, 0, 0)" stroke="rgb(189, 189, 189)" stroke-width="1px" opacity="0.25"></line><line x1="0" y1="48.27272727271896" x2="257.65625" y2="48.27272727271896" fill="rgb(0, 0, 0)" stroke="rgb(189, 189, 189)" stroke-width="1px" opacity="0.25"></line><line x1="0" y1="32.18181818182484" x2="257.65625" y2="32.18181818182484" fill="rgb(0, 0, 0)" stroke="rgb(189, 189, 189)" stroke-width="1px" opacity="0.25"></line><line x1="0" y1="16.09090909091242" x2="257.65625" y2="16.09090909091242" fill="rgb(0, 0, 0)" stroke="rgb(189, 189, 189)" stroke-width="1px" opacity="0.25"></line><line x1="0" y1="0" x2="257.65625" y2="0" fill="rgb(0, 0, 0)" stroke="rgb(189, 189, 189)" stroke-width="1px" opacity="0.25"></line></g></g></g><g><g><line x1="0" y1="96706.36363636164" x2="257.65625" y2="96706.36363636164" fill="rgb(0, 0, 0)" stroke="rgb(153, 153, 153)" stroke-width="1.5px"></line></g></g><g><g><line x1="0" y1="0" x2="0" y2="177" fill="rgb(0, 0, 0)" stroke="rgb(153, 153, 153)" stroke-width="1.5px"></line></g></g><g><g><g><g><g><path stroke="rgb(238, 51, 119)" stroke-width="2px" d="M12.180113636363636,160.90909090908758L14.053977272727272,160.90909090908758L19.675568181818182,160.90909090908758L25.29715909090909,160.90909090908758L27.171022727272728,160.90909090908758L31.855681818181818,160.90909090908758L32.79261363636363,160.90909090910588L33.72954545454546,148.11532515602104L34.66647727272728,137.12545244049306L39.351136363636364,130.60284167442296L40.28806818181818,126.714608552528L41.225,124.39071646745592L46.846590909090914,123.20416922993448L47.783522727272725,122.66228907849977L48.720454545454544,122.58111102414861L49.65738636363636,122.71711762548229L54.342045454545456,122.79869702599767L55.27897727272727,122.9340703874233L56.215909090909086,123.01921428867739L60.90056818181818,123.07029730878497L61.8375,123.10094592551032L62.77443181818182,123.2804030139346L68.39602272727272,123.66699752477058L69.33295454545456,124.00502078416203L70.26988636363636,124.44746951673595L74.95454545454545,124.76400781818774L75.89147727272727,124.9539304534555L76.82840909090909,125.15038129755307L81.51306818181818,125.33503530964988L82.45,125.70510507439981L83.38693181818181,126.01750111874716L84.32386363636364,126.16958271461105L89.00852272727273,126.28047388831004L89.94545454545455,126.37843614688167L90.88238636363636,126.43721350020631L91.81931818181819,126.47247991156816L96.50397727272728,126.49363975814013L97.44090909090909,126.50633566599551L98.3778409090909,126.51395321071604L103.0625,126.51852373750812L103.99943181818182,126.52126605358703L104.93636363636364,126.5189829986248L105.87329545454546,126.5136847210598L110.55795454545454,126.51050575451717L111.49488636363637,126.5085983745879L112.43181818181817,126.50745394663035L113.36875,126.50676728985948L117.11647727272727,126.50635529578233L118.0534090909091,126.50610809935434L118.9903409090909,126.50595978146825L119.92727272727272,126.50587079075491L124.61193181818182,126.50581739633787L125.54886363636363,126.50578535965107L126.48579545454545,126.50183769306965L132.10738636363635,126.49554064850389L133.04431818181817,126.49176242177538L133.98125000000002,126.48949548574195L138.6659090909091,126.48813532412922L139.60284090909093,126.48731922715059L140.53977272727272,126.48682956895244L146.16136363636363,126.4865357740299L147.09829545454545,126.48635949709467L148.03522727272727,126.47839684171434L152.71988636363636,126.46969080389118L153.65681818181818,126.46446718118999L154.59375,126.46133300758025L155.53068181818182,126.45945250341073L160.2153409090909,126.45832420091268L161.15227272727273,126.45764721942119L162.08920454545455,126.45724103050432L167.71079545454543,126.45699731716518L168.64772727272728,126.45685108915438L169.5846590909091,126.45676335235156L174.2693181818182,126.45671071028084L175.20625,126.45667912503475L176.1431818181818,126.45666017387246L177.08011363636362,126.45664880319339L181.7647727272727,112.4988783088966L182.70170454545456,102.26606171545454L183.63863636363638,96.12637175937832L189.26022727272726,92.69790668488032L190.19715909090908,80.68614901802995L191.1340909090909,68.34461732275302L195.81875,61.171476537117314L196.7556818181818,57.04044362824319L197.69261363636363,55.076450125816436L198.62954545454545,54.35768204281897L202.37727272727273,53.98927630666416L203.31420454545454,53.76823286496763L204.25113636363636,53.63560679995702L205.18806818181818,53.556031160939675L206.125,53.53578488974152L209.87272727272727,53.680774911120864L210.8096590909091,49.953249215134385L211.7465909090909,36.00996888277003L217.36818181818182,27.981846919157835L218.30511363636364,23.306397746668676L219.24204545454546,20.622910025838326L224.86363636363635,19.287808515499197L225.80056818181816,18.63995694879167L226.7375,18.247317564153903L231.4221590909091,18.10208815922716L232.35909090909092,18.242800303195626L233.2960227272727,18.374368924814945" style="fill: none;" fill="none"></path></g></g></g></g><g opacity="0.2"><g><g><g><path stroke="rgb(238, 51, 119)" stroke-width="2px" d="M12.180113636363636,160.90909090908758L14.053977272727272,160.90909090908758L19.675568181818182,160.90909090908758L25.29715909090909,160.90909090908758L27.171022727272728,160.90909090908758L31.855681818181818,160.90909090908758L32.79261363636363,160.90909090908758L33.72954545454546,129.46189186789505L34.66647727272728,120.91752485795205L39.351136363636364,120.91752485795205L40.28806818181818,120.91752485795205L41.225,120.91752485795205L46.846590909090914,121.42822265624748L47.783522727272725,121.8505304509918L48.720454545454544,122.45943936434406L49.65738636363636,122.9210316051111L54.342045454545456,122.9210316051111L55.27897727272727,123.1370960582361L56.215909090909086,123.14691716974177L60.90056818181818,123.14691716974177L61.8375,123.14691716974177L62.77443181818182,123.54958274147471L68.39602272727272,124.24688165837811L69.33295454545456,124.51205166903152L70.26988636363636,125.1111394708781L74.95454545454545,125.23881392045195L75.89147727272727,125.23881392045195L76.82840909090909,125.44505726207127L81.51306818181818,125.61201615766787L82.45,126.26020951704285L83.38693181818181,126.48609508167353L84.32386363636364,126.39770507812239L89.00852272727273,126.44681063565079L89.94545454545455,126.52537952769624L90.88238636363636,126.52537952769624L91.81931818181819,126.52537952769624L96.50397727272728,126.52537952769624L97.44090909090909,126.52537952769624L98.3778409090909,126.52537952769624L103.0625,126.52537952769624L103.99943181818182,126.52537952769624L104.93636363636364,126.51555841619056L105.87329545454546,126.50573730468489L110.55795454545454,126.50573730468489L111.49488636363637,126.50573730468489L112.43181818181817,126.50573730468489L113.36875,126.50573730468489L117.11647727272727,126.50573730468489L118.0534090909091,126.50573730468489L118.9903409090909,126.50573730468489L119.92727272727272,126.50573730468489L124.61193181818182,126.50573730468489L125.54886363636363,126.50573730468489L126.48579545454545,126.49591619317921L132.10738636363635,126.48609508167353L133.04431818181817,126.48609508167353L133.98125000000002,126.48609508167353L138.6659090909091,126.48609508167353L139.60284090909093,126.48609508167353L140.53977272727272,126.48609508167353L146.16136363636363,126.48609508167353L147.09829545454545,126.48609508167353L148.03522727272727,126.46645285866215L152.71988636363636,126.45663174715648L153.65681818181818,126.45663174715648L154.59375,126.45663174715648L155.53068181818182,126.45663174715648L160.2153409090909,126.45663174715648L161.15227272727273,126.45663174715648L162.08920454545455,126.45663174715648L167.71079545454543,126.45663174715648L168.64772727272728,126.45663174715648L169.5846590909091,126.45663174715648L174.2693181818182,126.45663174715648L175.20625,126.45663174715648L176.1431818181818,126.45663174715648L177.08011363636362,126.45663174715648L181.7647727272727,91.56222256746969L182.70170454545456,86.91683682528229L183.63863636363638,86.91683682528229L189.26022727272726,87.5552090731516L190.19715909090908,62.668512517754394L191.1340909090909,49.83231977982852L195.81875,50.41176535866373L196.7556818181818,50.84389426491373L197.69261363636363,52.13045987215801L198.62954545454545,53.279529918322766L202.37727272727273,53.43666770241367L203.31420454545454,53.43666770241367L204.25113636363636,53.43666770241367L205.18806818181818,53.43666770241367L206.125,53.50541548295344L209.87272727272727,53.898259943180705L210.8096590909091,44.361960671163864L211.7465909090909,15.095048384232648L217.36818181818182,15.939663973721263L218.30511363636364,16.2932239879258L219.24204545454546,16.597678444601936L224.86363636363635,17.285156249999645L225.80056818181816,17.668179598721224L226.7375,17.65835848721555L231.4221590909091,17.884244051846224L232.35909090909092,18.45386851917576L233.2960227272727,18.571721857243933" style="fill: none;" fill="none"></path></g></g></g></g></g></g><g transform="translate(72, 177)" clip-path="url(#clip_1)"><clipPath id="clip_1"><rect width="257" height="22"></rect></clipPath><g><g><line x1="0" y1="0" x2="0" y2="5" style="visibility: inherit;" fill="rgb(0, 0, 0)" stroke="rgb(204, 204, 204)" stroke-width="1px"></line><line x1="23.423295454545457" y1="0" x2="23.423295454545457" y2="5" style="visibility: inherit;" fill="rgb(0, 0, 0)" stroke="rgb(204, 204, 204)" stroke-width="1px"></line><line x1="46.846590909090914" y1="0" x2="46.846590909090914" y2="5" style="visibility: inherit;" fill="rgb(0, 0, 0)" stroke="rgb(204, 204, 204)" stroke-width="1px"></line><line x1="70.26988636363636" y1="0" x2="70.26988636363636" y2="5" style="visibility: inherit;" fill="rgb(0, 0, 0)" stroke="rgb(204, 204, 204)" stroke-width="1px"></line><line x1="93.69318181818183" y1="0" x2="93.69318181818183" y2="5" style="visibility: inherit;" fill="rgb(0, 0, 0)" stroke="rgb(204, 204, 204)" stroke-width="1px"></line><line x1="117.11647727272727" y1="0" x2="117.11647727272727" y2="5" style="visibility: inherit;" fill="rgb(0, 0, 0)" stroke="rgb(204, 204, 204)" stroke-width="1px"></line><line x1="140.53977272727272" y1="0" x2="140.53977272727272" y2="5" style="visibility: inherit;" fill="rgb(0, 0, 0)" stroke="rgb(204, 204, 204)" stroke-width="1px"></line><line x1="163.9630681818182" y1="0" x2="163.9630681818182" y2="5" style="visibility: inherit;" fill="rgb(0, 0, 0)" stroke="rgb(204, 204, 204)" stroke-width="1px"></line><line x1="187.38636363636365" y1="0" x2="187.38636363636365" y2="5" style="visibility: inherit;" fill="rgb(0, 0, 0)" stroke="rgb(204, 204, 204)" stroke-width="1px"></line><line x1="210.8096590909091" y1="0" x2="210.8096590909091" y2="5" style="visibility: inherit;" fill="rgb(0, 0, 0)" stroke="rgb(204, 204, 204)" stroke-width="1px"></line><line x1="234.23295454545453" y1="0" x2="234.23295454545453" y2="5" style="visibility: inherit;" fill="rgb(0, 0, 0)" stroke="rgb(204, 204, 204)" stroke-width="1px"></line><line x1="257.65625" y1="0" x2="257.65625" y2="5" style="visibility: inherit;" fill="rgb(0, 0, 0)" stroke="rgb(204, 204, 204)" stroke-width="1px"></line></g><g transform="translate(0, 8)"><text x="0" y="0" dx="0em" dy="0.95em" style="text-anchor: middle; visibility: hidden; font-family: Roboto, sans-serif; font-size: 12px; font-weight: 200;" fill="rgb(255, 255, 255)" stroke="none" stroke-width="1px">0</text><text x="23.423295454545457" y="0" dx="0em" dy="0.95em" style="text-anchor: middle; visibility: inherit; font-family: Roboto, sans-serif; font-size: 12px; font-weight: 200;" fill="rgb(255, 255, 255)" stroke="none" stroke-width="1px">50k</text><text x="46.846590909090914" y="0" dx="0em" dy="0.95em" style="text-anchor: middle; visibility: hidden; font-family: Roboto, sans-serif; font-size: 12px; font-weight: 200;" fill="rgb(255, 255, 255)" stroke="none" stroke-width="1px">100k</text><text x="70.26988636363636" y="0" dx="0em" dy="0.95em" style="text-anchor: middle; visibility: inherit; font-family: Roboto, sans-serif; font-size: 12px; font-weight: 200;" fill="rgb(255, 255, 255)" stroke="none" stroke-width="1px">150k</text><text x="93.69318181818183" y="0" dx="0em" dy="0.95em" style="text-anchor: middle; visibility: hidden; font-family: Roboto, sans-serif; font-size: 12px; font-weight: 200;" fill="rgb(255, 255, 255)" stroke="none" stroke-width="1px">200k</text><text x="117.11647727272727" y="0" dx="0em" dy="0.95em" style="text-anchor: middle; visibility: inherit; font-family: Roboto, sans-serif; font-size: 12px; font-weight: 200;" fill="rgb(255, 255, 255)" stroke="none" stroke-width="1px">250k</text><text x="140.53977272727272" y="0" dx="0em" dy="0.95em" style="text-anchor: middle; visibility: hidden; font-family: Roboto, sans-serif; font-size: 12px; font-weight: 200;" fill="rgb(255, 255, 255)" stroke="none" stroke-width="1px">300k</text><text x="163.9630681818182" y="0" dx="0em" dy="0.95em" style="text-anchor: middle; visibility: inherit; font-family: Roboto, sans-serif; font-size: 12px; font-weight: 200;" fill="rgb(255, 255, 255)" stroke="none" stroke-width="1px">350k</text><text x="187.38636363636365" y="0" dx="0em" dy="0.95em" style="text-anchor: middle; visibility: hidden; font-family: Roboto, sans-serif; font-size: 12px; font-weight: 200;" fill="rgb(255, 255, 255)" stroke="none" stroke-width="1px">400k</text><text x="210.8096590909091" y="0" dx="0em" dy="0.95em" style="text-anchor: middle; visibility: inherit; font-family: Roboto, sans-serif; font-size: 12px; font-weight: 200;" fill="rgb(255, 255, 255)" stroke="none" stroke-width="1px">450k</text><text x="234.23295454545453" y="0" dx="0em" dy="0.95em" style="text-anchor: middle; visibility: hidden; font-family: Roboto, sans-serif; font-size: 12px; font-weight: 200;" fill="rgb(255, 255, 255)" stroke="none" stroke-width="1px">500k</text><text x="257.65625" y="0" dx="0em" dy="0.95em" style="text-anchor: middle; visibility: hidden; font-family: Roboto, sans-serif; font-size: 12px; font-weight: 200;" fill="rgb(255, 255, 255)" stroke="none" stroke-width="1px">550k</text></g><line x1="0" y1="0" x2="257.65625" y2="0" fill="rgb(0, 0, 0)" stroke="rgb(204, 204, 204)" stroke-width="1px"></line></g></g></g></g></svg>